<?xml version="1.0" standalone="yes"?>
<svg xmlns="http://www.w3.org/2000/svg" width="326" height="398">
<path style="fill:#47714d; stroke:none;" d="M0 0L0 217L1 217C2.10034 163.689 42.8484 115.353 87 90.4244C96.3806 85.1279 106.671 81.2563 117 78.2909C121.674 76.9491 129.684 76.562 133.351 73.2616C138.282 68.824 140.375 58.0624 142.8 52C149.544 35.1404 158.813 17.6687 163 0L0 0z"/>
<path style="fill:#9b613c; stroke:none;" d="M163 0C157.046 17.5991 149.3 34.7491 142.4 52C139.964 58.0897 137.825 69.0224 132.606 73.2616C128.998 76.1929 122.394 76.4613 118 77.7099C108.386 80.4415 98.9595 83.7903 90 88.2701C58.3494 104.095 32.0922 130.356 16.2701 162C-1.31977 197.18 -5.09109 240.128 5.15123 278C13.4646 308.739 30.535 337.204 54.7145 358.101C76.2999 376.756 102.038 389.517 130 395.199C220.188 413.524 309.917 352.142 324.562 261C335.098 195.427 303.878 128.526 247 94.3997C231.737 85.2422 212.106 75.7894 194 75C189.607 49.4883 173.305 24.5497 165 0L163 0z"/>
<path style="fill:#47714d; stroke:none;" d="M165 0L194 75C211.035 76.3914 229.484 84.5423 244 93.2006C285.819 118.143 323.949 166.091 325 217L326 217L326 0L165 0z"/>
<path style="fill:#b29d85; stroke:none;" d="M148 94L148 95L152 95L148 94z"/>
<path style="fill:#e2dfd6; stroke:none;" d="M152 94.4244C125.443 97.9216 100.823 105.24 79 121.478C64.1444 132.532 51.7769 146.146 42.2037 162C-4.93798 240.069 35.9868 345.457 124 370.573C142.876 375.959 162.583 377.193 182 374.715C201.826 372.184 221.059 365.122 238 354.575C252.376 345.625 264.575 334.313 274.985 321C334.811 244.492 296.188 129.45 205 100.344C188.562 95.0975 169.212 92.1578 152 94.4244z"/>
<path style="fill:#b29d85; stroke:none;" d="M174 94L174 95L178 95L174 94M141.667 95.3333L142.333 95.6667L141.667 95.3333M183.667 95.3333L184.333 95.6667L183.667 95.3333M135.667 96.3333L136.333 96.6667L135.667 96.3333M189.667 96.3333L190.333 96.6667L189.667 96.3333M131 97L132 98L131 97M194 97L195 98L194 97M127 98L128 99L127 98M198 98L199 99L198 98M123 99L124 100L123 99M202 99L203 100L202 99M120 100L121 101L120 100M205 100L206 101L205 100M117 101L118 102L117 101M208 101L209 102L208 101M114 102L115 103L114 102M211 102L212 103L211 102M111 103L112 104L111 103M214 103L215 104L214 103M109 104L110 105L109 104M216 104L217 105L216 104M104 106L105 107L104 106M149 106L149 107L152 107L149 106z"/>
<path style="fill:#47714d; stroke:none;" d="M152 106L152 107L156 107L152 106z"/>
<path style="fill:#030303; stroke:none;" d="M89 129L89 130L165 123.005L235 129C226.657 119.963 211.582 114.898 200 111.579C159.907 100.089 124.45 109.338 89 129z"/>
<path style="fill:#47714d; stroke:none;" d="M170 106L170 107L174 107L170 106z"/>
<path style="fill:#b29d85; stroke:none;" d="M174 106L174 107L177 107L174 106M221 106L222 107L221 106M102 107L103 108L102 107M142 107L143 108L142 107z"/>
<path style="fill:#47714d; stroke:none;" d="M143.667 107.333L144.333 107.667L143.667 107.333M181.667 107.333L182.333 107.667L181.667 107.333z"/>
<path style="fill:#b29d85; stroke:none;" d="M183 107L184 108L183 107M223 107L224 108L223 107M100 108L101 109L100 108M136.667 108.333L137.333 108.667L136.667 108.333z"/>
<path style="fill:#47714d; stroke:none;" d="M138 108L139 109L138 108M187 108L188 109L187 108z"/>
<path style="fill:#b29d85; stroke:none;" d="M188.667 108.333L189.333 108.667L188.667 108.333M225 108L226 109L225 108M98 109L99 110L98 109M132 109L133 110L132 109z"/>
<path style="fill:#47714d; stroke:none;" d="M133 109L134 110L133 109M192 109L193 110L192 109z"/>
<path style="fill:#b29d85; stroke:none;" d="M193 109L194 110L193 109M227 109L228 110L227 109M96 110L97 111L96 110M128 110L129 111L128 110z"/>
<path style="fill:#47714d; stroke:none;" d="M129 110L130 111L129 110M196 110L197 111L196 110z"/>
<path style="fill:#b29d85; stroke:none;" d="M197 110L198 111L197 110M229 110L230 111L229 110M94 111L95 112L94 111M125 111L126 112L125 111z"/>
<path style="fill:#47714d; stroke:none;" d="M126 111L127 112L126 111M199 111L200 112L199 111z"/>
<path style="fill:#b29d85; stroke:none;" d="M200 111L201 112L200 111M231 111L232 112L231 111M122 112L123 113L122 112M203 112L204 113L203 112M91 113L92 114L91 113M119 113L120 114L119 113M206 113L207 114L206 113M234 113L235 114L234 113M89 114L90 115L89 114M116 114L117 115L116 114z"/>
<path style="fill:#47714d; stroke:none;" d="M117 114L118 115L117 114M208 114L209 115L208 114z"/>
<path style="fill:#b29d85; stroke:none;" d="M209 114L210 115L209 114M236 114L237 115L236 114z"/>
<path style="fill:#47714d; stroke:none;" d="M114 115L115 116L114 115M211 115L212 116L211 115z"/>
<path style="fill:#b29d85; stroke:none;" d="M86 116L87 117L86 116M111 116L112 117L111 116z"/>
<path style="fill:#47714d; stroke:none;" d="M112 116L113 117L112 116M213 116L214 117L213 116z"/>
<path style="fill:#b29d85; stroke:none;" d="M214 116L215 117L214 116M239 116L240 117L239 116M109 117L110 118L109 117M216 117L217 118L216 117M83 118L84 119L83 118M107 118L108 119L107 118M218 118L219 119L218 118M242 118L243 119L242 118M105 119L106 120L105 119M220 119L221 120L220 119M80 120L81 121L80 120M103 120L104 121L103 120M222 120L223 121L222 120M245 120L246 121L245 120M101 121L102 122L101 121M224 121L225 122L224 121M99 122L100 123L99 122M226 122L227 123L226 122M76 123L77 124L76 123z"/>
<path style="fill:#47714d; stroke:none;" d="M98 123L99 124L98 123M157 123L157 124L172 124L157 123M227 123L228 124L227 123z"/>
<path style="fill:#b29d85; stroke:none;" d="M249 123L250 124L249 123M75 124L76 125L75 124z"/>
<path style="fill:#47714d; stroke:none;" d="M96 124L97 125L96 124M133 124L133 125L139 125L133 124z"/>
<path style="fill:#9b613c; stroke:none;" d="M139 124L140 125L139 124z"/>
<path style="fill:#b29d85; stroke:none;" d="M140 126L126 125L126 126L163 128L163 129L158 129L159 132C152.705 132.27 143.561 132.176 140 138L154 139L154 142L150 141L141 149L164 145L164 146L142 151L142 152L166 149L166 150L154 153L165 157L165 158L158 161L158 162L170 162C164.826 166.237 159.579 167.48 153 168L153 169L155 169L155 170L148 170L118 181L119 184L111 187L111 185C106.368 186.719 96.0694 186.777 95 192L90 192L90 195L88 194L88 196L87 196L86 194L79 200L77 206L74 204L69 220L68 218L67 218L64 220L63 223L61 221L60 224C53.4057 217.908 46.2994 219.461 45 229L41 228C40.3668 233.317 42.7047 239.285 35 238L38 245C29.2582 246.873 42.5851 254.538 47 254C51.3133 261.133 62.3694 258.954 69.5756 260.838C80.3173 263.646 90.3231 268.003 101 270.914C109.169 273.142 118.889 274.283 126 279C128.869 277.242 130.625 279.441 132 282L120 282L120 283C126.436 283.133 135.82 284.051 141 288L115 288L110 290L110 289L112 289L112 288C105.56 285.99 98.4522 284.411 92 287L92 288L102 290L100 289L100 290L104 292L108 289L108 290L106 292L110 292L110 293C107.923 294.102 106.195 294.96 108 297L108 298L89 298C92.0249 303.177 96.5471 301.703 101 299L102 307L113 310L104 310L104 311L106 311L106 312C97.0154 313.135 91.6373 310.82 88 320L89 325L81 330L81 331L84 331L83 336C139.688 376.602 231.867 373.928 270 307L267 304L270 306L271 306L275 299L274 299L272 303L270 301L266 303L268 298L265 299L264 294L260 292C265.56 290.344 268.532 287.173 271 282L266 285L267 282L261 282L263 279L262 278L261 280L260 280L259 278L251 281L251 283L252 284L257 284L249 288L249 285L241 283L249 280L249 279C243.254 279.224 229.274 278.965 225 275L222 276L223 274L221 273L220 273L216 276L215 273L201 274L208 268L200 269L203 266L203 265L199 263L198 266L196 266L199 261L199 260L192 262L194 265L194 266L190 266L191 262L188 264L184 258L185 260L184 260C179.198 255.179 176.499 255.179 170 256L170 255L183 254L187 252L184 248L189 249L189 248L187 247L195 243L186 240L186 239L196 240L196 239L196 238L194 239L194 238C196.805 236.597 197.58 236.68 197 239L203 237L205 230L195 232L200 229L198 227L198 226L204 222L204 221L192 222L195 218L182 215L184 213L181 212L181 211L184 210L184 209L182 210L182 209L189 208L188 211L191 211L192 214L193 214L198 205L194 205L194 204L209 204L208 201L211 202L210 205L217 207L218 207C219.564 204.393 220.587 204.65 220 207L221 207L222 207L219 202L227 202L227 192L232 193L232 192L229 191L231 189L230 187L228 188L227 183L237 186C241.76 182.515 249.805 183.809 255 186L252 180L256 182L257 182L256 179L259 180L256 175L260 174L256 167L259 167L252 157L259 156L260 152L261 152L265 156C258.741 147.08 249.003 135.782 239 130.974C233.439 128.301 226.028 128.407 220 127.576C204.095 125.386 188.049 124 172 124C164.968 124 144.686 120.638 140 126z"/>
<path style="fill:#47714d; stroke:none;" d="M187 124L187 125L196 125L187 124M229 124L230 125L229 124z"/>
<path style="fill:#b29d85; stroke:none;" d="M250 124L251 125L250 124M94 125L95 126L94 125z"/>
<path style="fill:#47714d; stroke:none;" d="M122 125L122 126L126 126L122 125z"/>
<path style="fill:#e2dfd6; stroke:none;" d="M139 125L140 126L139 125z"/>
<path style="fill:#47714d; stroke:none;" d="M202 125L202 126L207 126L202 125z"/>
<path style="fill:#b29d85; stroke:none;" d="M231 125L232 126L231 125z"/>
<path style="fill:#47714d; stroke:none;" d="M93 126L94 127L93 126M113 126L113 127L117 127L113 126z"/>
<path style="fill:#b29d85; stroke:none;" d="M117 126L117 127L121 127L117 126z"/>
<path style="fill:#47714d; stroke:none;" d="M211 126L211 127L216 127L211 126M232 126L233 127L232 126z"/>
<path style="fill:#b29d85; stroke:none;" d="M71 127L72 128L71 127M91 127L92 128L91 127z"/>
<path style="fill:#47714d; stroke:none;" d="M105 127L105 128L108 128L105 127z"/>
<path style="fill:#b29d85; stroke:none;" d="M108 127L108 128L113 128L108 127z"/>
<path style="fill:#47714d; stroke:none;" d="M219 127L219 128L224 128L219 127z"/>
<path style="fill:#b29d85; stroke:none;" d="M234 127L235 128L234 127M254 127L255 128L254 127M70 128L71 129L70 128z"/>
<path style="fill:#47714d; stroke:none;" d="M90 128L91 129L90 128M98 128L98 129L101 129L98 128z"/>
<path style="fill:#b29d85; stroke:none;" d="M101 128L101 129L104 129L101 128z"/>
<path style="fill:#e2dfd6; stroke:none;" d="M164 128L165 129L164 128M166 128L167 129L166 128z"/>
<path style="fill:#47714d; stroke:none;" d="M227 128L227 129L231 129L227 128M233 129L233 130L237 130L233 129z"/>
<path style="fill:#b29d85; stroke:none;" d="M255 128L256 129L255 128M69 129L70 130L69 129M87 130L87 131L92 131L87 130z"/>
<path style="fill:#47714d; stroke:none;" d="M92.6667 129.333L93.3333 129.667L92.6667 129.333z"/>
<path style="fill:#b29d85; stroke:none;" d="M94 129L94 130L98 130L94 129M256 129L257 130L256 129z"/>
<path style="fill:#e2dfd6; stroke:none;" d="M159 130L160 131L159 130z"/>
<path style="fill:#b29d85; stroke:none;" d="M139 134L139 136L141 134L139 134z"/>
<path style="fill:#e2dfd6; stroke:none;" d="M142.333 135.667L142.667 136.333L142.333 135.667M144 135L145 136L144 135z"/>
<path style="fill:#b29d85; stroke:none;" d="M136 137L137 138L136 137M138 137L139 138L138 137z"/>
<path style="fill:#e2dfd6; stroke:none;" d="M154 138L155 139L154 138z"/>
<path style="fill:#9b613c; stroke:none;" d="M246 138L247 139L246 138z"/>
<path style="fill:#b29d85; stroke:none;" d="M149 140L150 141L149 140z"/>
<path style="fill:#e2dfd6; stroke:none;" d="M154.667 140.333L155.333 140.667L154.667 140.333z"/>
<path style="fill:#b29d85; stroke:none;" d="M57 141L58 142L57 141M268 141L269 142L268 141M56 142L57 143L56 142M147 142L148 143L147 142M269 142L270 143L269 142M55 143L56 144L55 143M270 143L271 144L270 143z"/>
<path style="fill:#e2dfd6; stroke:none;" d="M164 144L165 145L164 144z"/>
<path style="fill:#b29d85; stroke:none;" d="M139.667 145.333L140.333 145.667L139.667 145.333M135 146L135 147L138 147L135 146z"/>
<path style="fill:#e2dfd6; stroke:none;" d="M142 146L143 147L142 146z"/>
<path style="fill:#b29d85; stroke:none;" d="M52 147L53 148L52 147M133 147L134 148L133 147M139 147L140 148L139 147M273 147L274 148L273 147M51 148L52 149L51 148M274 148L275 149L274 148z"/>
<path style="fill:#9b613c; stroke:none;" d="M258 150L258 153L260 152L260 151L258 150z"/>
<path style="fill:#b29d85; stroke:none;" d="M48 152L49 153L48 152M139 152L140 153L139 152z"/>
<path style="fill:#9b613c; stroke:none;" d="M260 152L259 156L252 157L259 167L256 167L260 174L256 175L259 180L256 179L257 182L256 182L252 180L255 186C250.618 183.651 240.626 181.842 237 186L227 183L229 185L228 188L230 187L231 189L231 190L229 190L229 191L232 192L232 193L227 192L227 202L219 202L222 203L222 207L221 207L220 207L220 205L218 207L217 207L210 205L208 201L209 204L194 204L194 205L198 205L193 214L192 214L191 211L189 208L182 210L184 209L184 210L181 211L181 212L182 215L195 218L192 222L204 221L204 222L198 226L198 227L200 229L195 232L205 230L203 232L203 237L197 239C197.018 236.347 195.094 237.092 194 239L196 238L196 239L196 240L186 239L186 240L195 243L189 248L189 249L184 248L187 252L183 254L170 255L170 256L185 260L184 258L187 259L188 264L191 262L190 266L194 266L194 265L192 262L199 260L199 261L196 266L198 266L199 263L203 265L203 266L200 269L208 268L201 274L215 273L216 276L220 273L221 273L223 274L222 276L225 275C227.111 278.884 244.944 279.699 249 279L249 280L246 280L245 285L249 285L249 288L257 284L251 283L251 281L252 280L260 280L261 280L262 278L263 279L261 282L267 282L266 284L266 285L271 282L260 292L264 294L265 299L268 298L266 303L272 303L272 299C276.109 297.005 275.621 291.646 271 291L275 285L271 285L275 278L271 278L265 280L270 271L268 269L261 274L252 275L252 270L257 270L264 269L264 266L262 267L262 266L264 262L266 263L269 261L272 253L274 254L277 252L281 246L280 241L284 240L284 239L280 237L280 236L282 233L283 233L287 235C286.541 231.79 286.068 226.576 290 226L289 222L288 222L288 225L287 225L286 218L286 219L288 220L286 223L282 222L279 214L283 213L284 217L287 217L288 214L285 213L285 208L282 208L284 205L281 205L283 203L279 202L282 199C279.334 193.149 274.925 186.979 268 187L267 182L263 183L263 182L265 181L262 180L262 176L267 178L264 175L262 169L266 168L264 162L263 162L262 167L259 161L262 162L262 159L260 160L264 158L265 158L260 152z"/>
<path style="fill:#b29d85; stroke:none;" d="M277 152L278 153L277 152z"/>
<path style="fill:#47714d; stroke:none;" d="M262 154L263 155L262 154z"/>
<path style="fill:#b29d85; stroke:none;" d="M46 155L47 156L46 155M154 155L155 156L154 155M279 155L280 156L279 155z"/>
<path style="fill:#9b613c; stroke:none;" d="M249 156L249 157L252 157L252 156L249 156z"/>
<path style="fill:#47714d; stroke:none;" d="M263 156L260 160L262 159L262 160C260.604 160.698 260.604 160.302 262 161L262 162L259 161L262 167L263 162L264 162L266 168L262 169L264 175L267 178L265 176L262 176L262 180L263 182L263 183L267 182L268 187C274.764 187.382 278.523 193.857 282 199L279 202C281.527 202 282.548 202.789 281 205L284 205L282 208L285 208L285 213L288 214L287 217L284 217L283 213L279 214L282 222L286 223L286 219L286 218L289 219L287 225L288 225L288 222L289 222L290 226C286.023 226.498 286.067 231.63 287 235L283 233L282 233L280 236L280 237L284 239L284 240L280 241L281 246L277 252L274 254L272 253L269 261L266 263L264 262L262 267L264 266L264 269C261.036 267.811 259.132 267.409 257 270L252 270L252 275L261 274L268 269L270 271L265 280L271 278L275 278L271 285L275 285L271 291L277 295C292.08 258.78 297.94 220.069 280.766 183C276.354 173.477 271.444 162.591 263 156z"/>
<path style="fill:#b29d85; stroke:none;" d="M159 157L160 158L159 157M265 157L266 158L265 157M44 158L45 159L44 158M266 158L267 159L266 158M281 158L282 159L281 158z"/>
<path style="fill:#9b613c; stroke:none;" d="M252 159L252 162L253 162L252 159z"/>
<path style="fill:#47714d; stroke:none;" d="M258 159L259 160L258 159z"/>
<path style="fill:#b29d85; stroke:none;" d="M267 159L268 160L267 159M145 160L146 161L145 160M42 161L43 162L42 161z"/>
<path style="fill:#9b613c; stroke:none;" d="M268 161L269 162L268 161z"/>
<path style="fill:#b29d85; stroke:none;" d="M283 161L284 162L283 161M269 162L270 163L269 162M41 163L42 164L41 163M167 163L168 164L167 163z"/>
<path style="fill:#9b613c; stroke:none;" d="M260 163L261 164L260 163z"/>
<path style="fill:#b29d85; stroke:none;" d="M284 163L285 164L284 163z"/>
<path style="fill:#9b613c; stroke:none;" d="M270 164L271 165L270 164z"/>
<path style="fill:#b29d85; stroke:none;" d="M271 165L272 166L271 165M39 166L40 167L39 166M286 166L287 167L286 166z"/>
<path style="fill:#47714d; stroke:none;" d="M263.667 167.333L264.333 167.667L263.667 167.333z"/>
<path style="fill:#b29d85; stroke:none;" d="M272 167L273 168L272 167M38 168L39 169L38 168M261 168L262 169L261 168M273 168L274 169L273 168M287 168L288 169L287 168z"/>
<path style="fill:#e2dfd6; stroke:none;" d="M157 169L159 171L157 169z"/>
<path style="fill:#9b613c; stroke:none;" d="M268 169L267 171L268 169z"/>
<path style="fill:#b29d85; stroke:none;" d="M37 170L38 171L37 170z"/>
<path style="fill:#9b613c; stroke:none;" d="M265 170L266 171L265 170z"/>
<path style="fill:#b29d85; stroke:none;" d="M274 170L275 171L274 170M288 170L289 171L288 170M36 172L37 173L36 172z"/>
<path style="fill:#9b613c; stroke:none;" d="M257 172L258 173L257 172z"/>
<path style="fill:#b29d85; stroke:none;" d="M275 172L276 173L275 172M289 172L290 173L289 172M35 174L36 175L35 174z"/>
<path style="fill:#9b613c; stroke:none;" d="M276 174L277 175L276 174z"/>
<path style="fill:#b29d85; stroke:none;" d="M290 174L291 175L290 174M260 175L261 176L260 175M34 176L35 177L34 176z"/>
<path style="fill:#9b613c; stroke:none;" d="M277 176L278 177L277 176z"/>
<path style="fill:#b29d85; stroke:none;" d="M291 176L292 177L291 176M278 177L279 178L278 177z"/>
<path style="fill:#9b613c; stroke:none;" d="M251 178L252 179L251 178z"/>
<path style="fill:#47714d; stroke:none;" d="M261 178L262 179L261 178z"/>
<path style="fill:#9b613c; stroke:none;" d="M254 179L255 180L254 179z"/>
<path style="fill:#b29d85; stroke:none;" d="M279 179L280 180L279 179z"/>
<path style="fill:#9b613c; stroke:none;" d="M249 180L253 183L253 182L249 180z"/>
<path style="fill:#b29d85; stroke:none;" d="M260 180L261 181L260 180z"/>
<path style="fill:#9b613c; stroke:none;" d="M279 180L280 181L279 180z"/>
<path style="fill:#b29d85; stroke:none;" d="M32 181L33 182L32 181M293 181L294 182L293 181M258 182L259 183L258 182z"/>
<path style="fill:#9b613c; stroke:none;" d="M269 182L270 183L269 182z"/>
<path style="fill:#b29d85; stroke:none;" d="M280 182L281 183L280 182M31 183L32 184L31 183M112 183L113 184L112 183z"/>
<path style="fill:#9b613c; stroke:none;" d="M236 183L237 184L236 183z"/>
<path style="fill:#b29d85; stroke:none;" d="M294 183L295 184L294 183M111 184L112 185L111 184M281 184L282 185L281 184M246 185L247 186L246 185M30 186L31 187L30 186z"/>
<path style="fill:#9b613c; stroke:none;" d="M226 186L227 187L226 186z"/>
<path style="fill:#b29d85; stroke:none;" d="M256 186L257 187L256 186M282 186L283 187L282 186M295 186L296 187L295 186M99 187L100 188L99 187z"/>
<path style="fill:#9b613c; stroke:none;" d="M217 187L218 188L217 187M219 188L220 189L219 188z"/>
<path style="fill:#47714d; stroke:none;" d="M269 188L270 189L269 188z"/>
<path style="fill:#b29d85; stroke:none;" d="M29 189L30 190L29 189M92 189L92 191L94 189L92 189z"/>
<path style="fill:#e2dfd6; stroke:none;" d="M96 189L95 191L96 189z"/>
<path style="fill:#9b613c; stroke:none;" d="M223 189L223 190L227 192L227 191L223 189z"/>
<path style="fill:#47714d; stroke:none;" d="M272 189L273 190L272 189z"/>
<path style="fill:#b29d85; stroke:none;" d="M283 189L284 190L283 189M296 189L297 190L296 189z"/>
<path style="fill:#47714d; stroke:none;" d="M274 190L276 192L274 190z"/>
<path style="fill:#b29d85; stroke:none;" d="M284.333 191.667L284.667 192.333L284.333 191.667M28 192L29 193L28 192M297 192L298 193L297 192z"/>
<path style="fill:#e2dfd6; stroke:none;" d="M92 193L93 194L92 193z"/>
<path style="fill:#47714d; stroke:none;" d="M271 193L272 194L271 193M273 193L274 194L273 193z"/>
<path style="fill:#b29d85; stroke:none;" d="M285.333 194.667L285.667 195.333L285.333 194.667M27 195L28 196L27 195M298 195L299 196L298 195z"/>
<path style="fill:#47714d; stroke:none;" d="M278 197L277 199L277 200L281 199L281 198L278 197z"/>
<path style="fill:#b29d85; stroke:none;" d="M286.333 197.667L286.667 198.333L286.333 197.667z"/>
<path style="fill:#9b613c; stroke:none;" d="M217 198L218 199L217 198z"/>
<path style="fill:#b29d85; stroke:none;" d="M26 199L27 200L26 199z"/>
<path style="fill:#9b613c; stroke:none;" d="M219 199L220 200L219 199M222.333 199.667L222.667 200.333L222.333 199.667z"/>
<path style="fill:#b29d85; stroke:none;" d="M299 199L300 200L299 199z"/>
<path style="fill:#9b613c; stroke:none;" d="M224 200L225 201L224 200z"/>
<path style="fill:#47714d; stroke:none;" d="M277 201L281 204L281 203L277 201z"/>
<path style="fill:#b29d85; stroke:none;" d="M287 201L288 202L287 201z"/>
<path style="fill:#9b613c; stroke:none;" d="M217.333 202.667L217.667 203.333L217.333 202.667M287 202L288 203L287 202z"/>
<path style="fill:#b29d85; stroke:none;" d="M25 203L26 204L25 203M224 203L225 204L224 203M226 203L227 204L226 203M300 203L301 204L300 203z"/>
<path style="fill:#9b613c; stroke:none;" d="M193 205L192 207L193 205z"/>
<path style="fill:#47714d; stroke:none;" d="M280 205L282 207L280 205z"/>
<path style="fill:#b29d85; stroke:none;" d="M288.333 205.667L288.667 206.333L288.333 205.667M24.3333 207.667L24.6667 208.333L24.3333 207.667z"/>
<path style="fill:#9b613c; stroke:none;" d="M189 207L191 209L189 207z"/>
<path style="fill:#b29d85; stroke:none;" d="M213 207L214 208L213 207M215 207L216 208L215 207M301.333 207.667L301.667 208.333L301.333 207.667M218 208L219 209L218 208M220 208L221 209L220 208z"/>
<path style="fill:#9b613c; stroke:none;" d="M286 208L287 209L286 208M180 209L181 210L180 209z"/>
<path style="fill:#b29d85; stroke:none;" d="M213 209L214 210L213 209M289 209L289 212L290 212L289 209M185.333 210.667L185.667 211.333L185.333 210.667M218 210L219 211L218 210z"/>
<path style="fill:#9b613c; stroke:none;" d="M192 211L193 212L192 211z"/>
<path style="fill:#47714d; stroke:none;" d="M284 211L285 212L284 211z"/>
<path style="fill:#b29d85; stroke:none;" d="M187 212L188 213L187 212M23.3333 213.667L23.6667 214.333L23.3333 213.667M302.333 213.667L302.667 214.333L302.333 213.667z"/>
<path style="fill:#47714d; stroke:none;" d="M284 214L284 215L287 215L287 214L284 214z"/>
<path style="fill:#9b613c; stroke:none;" d="M181 215L182 216L181 215z"/>
<path style="fill:#b29d85; stroke:none;" d="M290 215L290 218L291 218L290 215M214 216L215 217L214 216z"/>
<path style="fill:#9b613c; stroke:none;" d="M288 216L289 217L288 216z"/>
<path style="fill:#b29d85; stroke:none;" d="M197 217L198 218L197 217M211 217L212 218L211 217M209 218L208 220L209 218z"/>
<path style="fill:#9b613c; stroke:none;" d="M290 218L291 219L290 218z"/>
<path style="fill:#b29d85; stroke:none;" d="M56 219L57 220L56 219z"/>
<path style="fill:#9b613c; stroke:none;" d="M188 219L189 220L188 219z"/>
<path style="fill:#b29d85; stroke:none;" d="M204 219L205 220L204 219M22 220L22 224L23 224L22 220M60 220L61 221L60 220z"/>
<path style="fill:#9b613c; stroke:none;" d="M190 220L189 222L190 220z"/>
<path style="fill:#b29d85; stroke:none;" d="M303 220L303 224L304 224L303 220z"/>
<path style="fill:#e2dfd6; stroke:none;" d="M68 221L67 223L68 221z"/>
<path style="fill:#9b613c; stroke:none;" d="M187 221L188 222L187 221z"/>
<path style="fill:#b29d85; stroke:none;" d="M206 221L207 222L206 221z"/>
<path style="fill:#e2dfd6; stroke:none;" d="M49 222L50 223L49 222M56 222L57 223L56 222M63 223L64 224L63 223z"/>
<path style="fill:#b29d85; stroke:none;" d="M291 223L291 228L292 228L291 223z"/>
<path style="fill:#e2dfd6; stroke:none;" d="M61 224L62 225L61 224M63 225L64 226L63 225M65 225L66 226L65 225z"/>
<path style="fill:#47714d; stroke:none;" d="M285.667 225.333L286.333 225.667L285.667 225.333z"/>
<path style="fill:#e2dfd6; stroke:none;" d="M47 226L48 227L47 226z"/>
<path style="fill:#47714d; stroke:none;" d="M278 226L278 233L281 232L279 230L278 226M285 227L286 228L285 227z"/>
<path style="fill:#9b613c; stroke:none;" d="M289 227L290 228L289 227M195 228L196 229L195 228z"/>
<path style="fill:#b29d85; stroke:none;" d="M204 228L205 229L204 228z"/>
<path style="fill:#9b613c; stroke:none;" d="M291 228L291 234L292 234L291 228z"/>
<path style="fill:#e2dfd6; stroke:none;" d="M45 229L46 230L45 229z"/>
<path style="fill:#b29d85; stroke:none;" d="M206 231L210 230L206 231z"/>
<path style="fill:#9b613c; stroke:none;" d="M187 230L187 231L191 231L187 230M278 231L279 232L278 231z"/>
<path style="fill:#47714d; stroke:none;" d="M284.667 232.333L285.333 232.667L284.667 232.333z"/>
<path style="fill:#9b613c; stroke:none;" d="M196 233L200 237L200 236L198 233L196 233M201 233L202 234L201 233z"/>
<path style="fill:#b29d85; stroke:none;" d="M205 234L206 235L205 234z"/>
<path style="fill:#47714d; stroke:none;" d="M280 234L281 235L280 234z"/>
<path style="fill:#9b613c; stroke:none;" d="M183 235L184 236L183 235z"/>
<path style="fill:#b29d85; stroke:none;" d="M207 235L208 236L207 235z"/>
<path style="fill:#9b613c; stroke:none;" d="M187 236L188 237L187 236z"/>
<path style="fill:#b29d85; stroke:none;" d="M204 236L205 237L204 236z"/>
<path style="fill:#9b613c; stroke:none;" d="M283 237L284 238L283 237M184 238L185 239L184 238z"/>
<path style="fill:#b29d85; stroke:none;" d="M203 238L203 239L208 239L203 238z"/>
<path style="fill:#47714d; stroke:none;" d="M280 238L282 240L280 238z"/>
<path style="fill:#9b613c; stroke:none;" d="M291 238L291 242L292 242L291 238z"/>
<path style="fill:#b29d85; stroke:none;" d="M191 240L192 241L191 240M198 240L199 241L198 240M291 242L291 247L292 247L291 242M197 243L196 245L197 243M203 244L204 245L203 244M22 246L22 250L23 250L22 246M202 246L203 247L202 246M303 246L303 250L304 250L303 246M199.667 249.333L200.333 249.667L199.667 249.333M188 251L191 254L192 253L188 251M290 252L290 255L291 255L290 252z"/>
<path style="fill:#47714d; stroke:none;" d="M0 253L0 398L145 398L145 397C92.2744 396.564 39.8852 354.224 17.2701 309C11.5212 297.504 7.17514 285.477 4.12963 273C2.5752 266.632 2.51562 258.94 0 253z"/>
<path style="fill:#b29d85; stroke:none;" d="M185 253L186 254L185 253z"/>
<path style="fill:#47714d; stroke:none;" d="M325 253C324.869 268.869 319.046 285.573 312.85 300C291.645 349.374 237.314 396.534 181 397L181 398L326 398L326 297C326 284.532 329.807 264.456 325 253z"/>
<path style="fill:#b29d85; stroke:none;" d="M23.3333 255.667L23.6667 256.333L23.3333 255.667M302.333 255.667L302.667 256.333L302.333 255.667M39 256L40 257L39 256M41 256L42 257L41 256z"/>
<path style="fill:#9b613c; stroke:none;" d="M176 256L177 257L176 256z"/>
<path style="fill:#47714d; stroke:none;" d="M269 257L270 258L269 257z"/>
<path style="fill:#b29d85; stroke:none;" d="M37 258C38.2489 262.48 43.9299 262.493 48 262L37 258z"/>
<path style="fill:#9b613c; stroke:none;" d="M289 258L290 259L289 258z"/>
<path style="fill:#b29d85; stroke:none;" d="M289.333 259.667L289.667 260.333L289.333 259.667z"/>
<path style="fill:#9b613c; stroke:none;" d="M155 260L156 261L155 260z"/>
<path style="fill:#b29d85; stroke:none;" d="M24.3333 261.667L24.6667 262.333L24.3333 261.667M301.333 261.667L301.667 262.333L301.333 261.667z"/>
<path style="fill:#9b613c; stroke:none;" d="M185 262L186 263L185 262M193.667 262.333L194.333 262.667L193.667 262.333z"/>
<path style="fill:#b29d85; stroke:none;" d="M201 263L202 264L201 263M288.333 263.667L288.667 264.333L288.333 263.667z"/>
<path style="fill:#9b613c; stroke:none;" d="M186 264L187 265L186 264M189 264L188 266L189 264M194 264L195 265L194 264M199 265L200 266L199 265z"/>
<path style="fill:#b29d85; stroke:none;" d="M25 266L26 267L25 266z"/>
<path style="fill:#47714d; stroke:none;" d="M260 266L261 267L260 266z"/>
<path style="fill:#b29d85; stroke:none;" d="M300 266L301 267L300 266z"/>
<path style="fill:#9b613c; stroke:none;" d="M197 267L198 268L197 267M199 267L200 268L199 267M270 267L271 268L270 267M273 267L274 268L273 267M275 267L276 268L275 267z"/>
<path style="fill:#b29d85; stroke:none;" d="M287.333 267.667L287.667 268.333L287.333 267.667z"/>
<path style="fill:#9b613c; stroke:none;" d="M194 268L195 269L194 268z"/>
<path style="fill:#b29d85; stroke:none;" d="M209.333 268.667L209.667 269.333L209.333 268.667M211 268L212 269L211 268M213 268L214 269L213 268z"/>
<path style="fill:#9b613c; stroke:none;" d="M277 268L279 270L277 268M259 269L260 270L259 269z"/>
<path style="fill:#b29d85; stroke:none;" d="M26 270L27 271L26 270M69 273L82 276L78 274L80 272C75.7918 270.012 72.7057 270.057 69 273z"/>
<path style="fill:#9b613c; stroke:none;" d="M275 270L276 271L275 270z"/>
<path style="fill:#b29d85; stroke:none;" d="M299 270L300 271L299 270M40 271L41 272L40 271z"/>
<path style="fill:#47714d; stroke:none;" d="M248 272L250 276L251 276L252 272L248 272z"/>
<path style="fill:#9b613c; stroke:none;" d="M257 271L258 272L257 271M259 271L260 272L259 271M277 271L278 272L277 271z"/>
<path style="fill:#b29d85; stroke:none;" d="M286 271L287 272L286 271z"/>
<path style="fill:#9b613c; stroke:none;" d="M199.333 272.667L199.667 273.333L199.333 272.667z"/>
<path style="fill:#47714d; stroke:none;" d="M265 272L266 273L265 272M267 272L269 274L267 272z"/>
<path style="fill:#9b613c; stroke:none;" d="M196 273L197 274L196 273M208 273L209 274L208 273z"/>
<path style="fill:#47714d; stroke:none;" d="M246 273L247 274L246 273M262 273L263 274L262 273z"/>
<path style="fill:#b29d85; stroke:none;" d="M27 274L28 275L27 274z"/>
<path style="fill:#9b613c; stroke:none;" d="M214.333 274.667L214.667 275.333L214.333 274.667z"/>
<path style="fill:#47714d; stroke:none;" d="M244 274L246 276L244 274M248 274L249 275L248 274M265 274L266 275L265 274z"/>
<path style="fill:#9b613c; stroke:none;" d="M278 274L279 275L278 274z"/>
<path style="fill:#b29d85; stroke:none;" d="M285 274L286 275L285 274M298 274L299 275L298 274M83 275L84 276L83 275z"/>
<path style="fill:#9b613c; stroke:none;" d="M218 275L219 276L218 275M220 275L221 276L220 275z"/>
<path style="fill:#47714d; stroke:none;" d="M241 275L242 276L241 275M256 275L257 276L256 275M258 275L259 276L258 275M261 275L262 276L261 275z"/>
<path style="fill:#b29d85; stroke:none;" d="M85 276L86 277L85 276z"/>
<path style="fill:#47714d; stroke:none;" d="M248 276L249 277L248 276M264 276L265 277L264 276z"/>
<path style="fill:#9b613c; stroke:none;" d="M271 276L272 277L271 276M273 276L274 277L273 276M275 276L276 277L275 276z"/>
<path style="fill:#b29d85; stroke:none;" d="M28 277L29 278L28 277z"/>
<path style="fill:#9b613c; stroke:none;" d="M223 277L224 278L223 277z"/>
<path style="fill:#47714d; stroke:none;" d="M252 277L253 278L252 277M257 277L258 278L257 277z"/>
<path style="fill:#b29d85; stroke:none;" d="M284 277L285 278L284 277M297 277L298 278L297 277z"/>
<path style="fill:#9b613c; stroke:none;" d="M232 278L233 279L232 278z"/>
<path style="fill:#b29d85; stroke:none;" d="M128 279L129 280L128 279M130 279L131 280L130 279z"/>
<path style="fill:#9b613c; stroke:none;" d="M242 279L243 280L242 279z"/>
<path style="fill:#b29d85; stroke:none;" d="M29 280L30 281L29 280z"/>
<path style="fill:#e2dfd6; stroke:none;" d="M134 280L135 281L134 280z"/>
<path style="fill:#9b613c; stroke:none;" d="M244 280L245 281L244 280M276 280L274 284C276.993 283.936 278.346 284.054 279 281L276 280z"/>
<path style="fill:#b29d85; stroke:none;" d="M283 280L284 281L283 280M296 280L297 281L296 280M114 281L114 282L120 282L114 281M249 281L250 282L249 281z"/>
<path style="fill:#9b613c; stroke:none;" d="M241 283L244 285L244 282L241 283z"/>
<path style="fill:#47714d; stroke:none;" d="M244 282L243 284L245 284L244 282z"/>
<path style="fill:#9b613c; stroke:none;" d="M280 282L281 283L280 282z"/>
<path style="fill:#b29d85; stroke:none;" d="M282.333 282.667L282.667 283.333L282.333 282.667M30 283L31 284L30 283M295 283L296 284L295 283z"/>
<path style="fill:#47714d; stroke:none;" d="M270 285L271 286L270 285z"/>
<path style="fill:#b29d85; stroke:none;" d="M281 285L282 286L281 285M31 286L32 287L31 286M294 286L295 287L294 286M84 289L84 290L91 288L84 289M280 287L281 288L280 287M32 288L33 289L32 288M293 288L294 289L293 288M268 289L268 291L270 289L268 289M279 289L280 290L279 289M70 293L73 291L70 293M98.6667 291.333L99.3333 291.667L98.6667 291.333z"/>
<path style="fill:#47714d; stroke:none;" d="M264 291L265 292L264 291M270 291L270 295L271 295L270 291z"/>
<path style="fill:#b29d85; stroke:none;" d="M278 291L279 292L278 291M85 295L90 295C87.8499 292.925 86.7951 292.44 85 295z"/>
<path style="fill:#47714d; stroke:none;" d="M266 292L267 293L266 292z"/>
<path style="fill:#b29d85; stroke:none;" d="M34 293L35 294L34 293M92 293L95 295L95 294L92 293M277 293L278 294L277 293M291 293L292 294L291 293z"/>
<path style="fill:#47714d; stroke:none;" d="M268.333 294.667L268.667 295.333L268.333 294.667z"/>
<path style="fill:#b29d85; stroke:none;" d="M35 295L36 296L35 295z"/>
<path style="fill:#e2dfd6; stroke:none;" d="M111 295L112 296L111 295z"/>
<path style="fill:#9b613c; stroke:none;" d="M259.667 295.333L260.333 295.667L259.667 295.333z"/>
<path style="fill:#b29d85; stroke:none;" d="M276 295L277 296L276 295M290 295L291 296L290 295M73 296L70 300L63 304L70 305L71 305L70 301L74 300L73 296z"/>
<path style="fill:#e2dfd6; stroke:none;" d="M108.667 296.333L109.333 296.667L108.667 296.333z"/>
<path style="fill:#47714d; stroke:none;" d="M274 296L275 297L274 296z"/>
<path style="fill:#b29d85; stroke:none;" d="M36 297L37 298L36 297z"/>
<path style="fill:#e2dfd6; stroke:none;" d="M124 297L125 298L124 297z"/>
<path style="fill:#9b613c; stroke:none;" d="M263.333 297.667L263.667 298.333L263.333 297.667z"/>
<path style="fill:#b29d85; stroke:none;" d="M275 297L276 298L275 297M289 297L290 298L289 297M77 298L77 299L83 299L77 298z"/>
<path style="fill:#47714d; stroke:none;" d="M274 298L275 299L274 298z"/>
<path style="fill:#b29d85; stroke:none;" d="M37 299L38 300L37 299z"/>
<path style="fill:#e2dfd6; stroke:none;" d="M97 299L98 300L97 299M117 299L118 300L117 299z"/>
<path style="fill:#b29d85; stroke:none;" d="M269 299L270 300L269 299z"/>
<path style="fill:#47714d; stroke:none;" d="M272.667 299.333L273.333 299.667L272.667 299.333z"/>
<path style="fill:#b29d85; stroke:none;" d="M288 299L289 300L288 299z"/>
<path style="fill:#47714d; stroke:none;" d="M271 300L272 301L271 300z"/>
<path style="fill:#b29d85; stroke:none;" d="M38 301L39 302L38 301M83 301L87 304L87 303L83 301z"/>
<path style="fill:#9b613c; stroke:none;" d="M263 301L264 304L265 304L263 301z"/>
<path style="fill:#b29d85; stroke:none;" d="M287 301L288 302L287 301M39 303L40 304L39 303M88 303L89 306L92 303L88 303M100 303L101 304L100 303z"/>
<path style="fill:#e2dfd6; stroke:none;" d="M111 305L111 306L118 304L111 305z"/>
<path style="fill:#b29d85; stroke:none;" d="M286 303L287 304L286 303z"/>
<path style="fill:#e2dfd6; stroke:none;" d="M105 304L103 305L103 306L105 304z"/>
<path style="fill:#9b613c; stroke:none;" d="M267 304C268.459 306.455 269.43 306.289 271 304L267 304z"/>
<path style="fill:#b29d85; stroke:none;" d="M41 306L42 307L41 306M100 306L97 307L97 308L100 306z"/>
<path style="fill:#9b613c; stroke:none;" d="M265 306L266 307L265 306z"/>
<path style="fill:#b29d85; stroke:none;" d="M284 306L285 307L284 306z"/>
<path style="fill:#e2dfd6; stroke:none;" d="M115 307L116 308L115 307M117 307L118 308L117 307z"/>
<path style="fill:#9b613c; stroke:none;" d="M263 307L264 308L263 307z"/>
<path style="fill:#b29d85; stroke:none;" d="M42 308L43 309L42 308M110 308L111 309L110 308M283 308L284 309L283 308z"/>
<path style="fill:#e2dfd6; stroke:none;" d="M125 309L126 310L125 309z"/>
<path style="fill:#9b613c; stroke:none;" d="M265 309L267 311L267 309L265 309z"/>
<path style="fill:#b29d85; stroke:none;" d="M66 318L74 310L66 318M87 310L80 311L81 318L85 316L83 325C87.226 322.062 88.9582 314.679 87 310M44 311L45 312L44 311z"/>
<path style="fill:#e2dfd6; stroke:none;" d="M107 311L108 312L107 311M121 311L120 315L121 311z"/>
<path style="fill:#b29d85; stroke:none;" d="M281 311L282 312L281 311M46 314L47 315L46 314M62 314L63 315L62 314M74 314L75 315L74 314M76 314L77 315L76 314z"/>
<path style="fill:#e2dfd6; stroke:none;" d="M105 316L105 317L113 315L105 316z"/>
<path style="fill:#b29d85; stroke:none;" d="M279 314L280 315L279 314M74 316L75 317L74 316z"/>
<path style="fill:#e2dfd6; stroke:none;" d="M94.3333 316.667L94.6667 317.333L94.3333 316.667z"/>
<path style="fill:#b29d85; stroke:none;" d="M48 317L49 318L48 317M277 317L278 318L277 317M71 318L72 319L71 318z"/>
<path style="fill:#e2dfd6; stroke:none;" d="M110 318L99 325L102 324L105 325L104 322L111 319L110 318M94 319L92 322L94 319M120 319L119 321L120 319z"/>
<path style="fill:#b29d85; stroke:none;" d="M72 320L71 325L78 323L78 322L72 320M79 320L80 321L79 320M51 321L52 322L51 321M274 321L275 322L274 321M52 322L53 323L52 322z"/>
<path style="fill:#e2dfd6; stroke:none;" d="M88 326L88 327L98 324L88 326z"/>
<path style="fill:#b29d85; stroke:none;" d="M273 322L274 323L273 322M55 326L56 327L55 326M74 326L76 329L74 326M270 326L271 327L270 326M56 327L57 328L56 327z"/>
<path style="fill:#e2dfd6; stroke:none;" d="M86 327L85 330L86 330L86 327z"/>
<path style="fill:#b29d85; stroke:none;" d="M269 327L270 328L269 327M57 328L58 329L57 328M79.6667 328.333L80.3333 328.667L79.6667 328.333z"/>
<path style="fill:#e2dfd6; stroke:none;" d="M85 332L85 333L86 336L94 333L91 336L91 337L96 338L102 333L100 331L103 328L85 332M117 328L116 330L117 328z"/>
<path style="fill:#b29d85; stroke:none;" d="M268 328L269 329L268 328z"/>
<path style="fill:#e2dfd6; stroke:none;" d="M103 331L103 333L106 333L106 331L103 331z"/>
<path style="fill:#b29d85; stroke:none;" d="M81.6667 333.333L82.3333 333.667L81.6667 333.333M69 340L70 341L69 340M256 340L257 341L256 340M70 341L71 342L70 341M255 341L256 342L255 341M71 342L72 343L71 342M254 342L255 343L254 342M75 345L76 346L75 345M250 345L251 346L250 345M76 346L77 347L76 346M249 346L250 347L249 346M80 349L81 350L80 349M245 349L246 350L245 349M83 351L84 352L83 351M242 351L243 352L242 351M86 353L87 354L86 353M239 353L240 354L239 353M89 355L90 356L89 355M236 355L237 356L236 355M91 356L92 357L91 356M234 356L235 357L234 356M94 358L95 359L94 358M231 358L232 359L231 358M96 359L97 360L96 359M229 359L230 360L229 359M98 360L99 361L98 360M227 360L228 361L227 360M100 361L101 362L100 361M225 361L226 362L225 361M102 362L103 363L102 362M223 362L224 363L223 362M104 363L105 364L104 363M221 363L222 364L221 363M109 365L110 366L109 365M216 365L217 366L216 365M111 366L112 367L111 366M214 366L215 367L214 366M114 367L115 368L114 367M211 367L212 368L211 367M117 368L118 369L117 368M208 368L209 369L208 368M120 369L121 370L120 369M205 369L206 370L205 369M123 370L124 371L123 370M202 370L203 371L202 370M127 371L128 372L127 371M198 371L199 372L198 371M131 372L132 373L131 372M194 372L195 373L194 372M135.667 373.333L136.333 373.667L135.667 373.333M189.667 373.333L190.333 373.667L189.667 373.333M141.667 374.333L142.333 374.667L141.667 374.333M183.667 374.333L184.333 374.667L183.667 374.333M148 375L148 376L152 376L148 375M174 375L174 376L178 376L174 375z"/>
</svg>
