<?xml version="1.0" standalone="yes"?>
<svg xmlns="http://www.w3.org/2000/svg" width="326" height="398">
<path style="fill:#466f4e; stroke:none;" d="M0 0L0 217L1 217C2.10049 163.682 42.8524 115.351 87 90.4244C96.3806 85.1279 106.671 81.2563 117 78.2909C121.674 76.9491 129.684 76.562 133.351 73.2616C138.282 68.824 140.375 58.0624 142.8 52C149.544 35.1404 158.813 17.6687 163 0L0 0z"/>
<path style="fill:#274d9f; stroke:none;" d="M163 0C157.046 17.5991 149.3 34.7491 142.4 52C139.964 58.0897 137.825 69.0224 132.606 73.2616C125.587 78.9643 110.583 79.4796 102 83.0108C81.7857 91.3268 62.4229 103.3 47.0895 119.039C-14.043 181.792 -15.0645 280.62 42.2863 346C55.7889 361.393 74.2869 374.804 93 383.139C102.918 387.556 118.784 389.476 127 396C143.287 393.419 162.026 399.447 179 397.83C227.917 393.172 272.941 366.132 299.921 325C349.293 249.73 326.711 142.482 249 95.6011C233.071 85.9917 212.976 75.8274 194 75C189.607 49.4883 173.305 24.5497 165 0L163 0z"/>
<path style="fill:#466f4e; stroke:none;" d="M165 0L194 75C211.035 76.3914 229.484 84.5423 244 93.2006C285.819 118.143 323.949 166.091 325 217L326 217L326 0L165 0M148 94L149 95L148 94z"/>
<path style="fill:#829acf; stroke:none;" d="M149 94L149 95L155 95L149 94z"/>
<path style="fill:#fbfcfe; stroke:none;" d="M155 94.4244C120.034 99.0154 88.8242 109.515 63.1698 135.17C50.9826 147.357 40.9413 162.188 34.1505 178C-8.36831 277.005 73.3426 387.977 181 374.714C249.479 366.277 302.302 306.683 303.985 238C305.866 161.234 235.345 83.8751 155 94.4244z"/>
<path style="fill:#829acf; stroke:none;" d="M171 94L171 95L177 95L171 94z"/>
<path style="fill:#466f4e; stroke:none;" d="M177 94L178 95L177 94z"/>
<path style="fill:#829acf; stroke:none;" d="M141 95L141 96L144 96L141 95M182 95L182 96L185 96L182 95z"/>
<path style="fill:#466f4e; stroke:none;" d="M135 96L136 97L135 96z"/>
<path style="fill:#829acf; stroke:none;" d="M136.667 96.3333L137.333 96.6667L136.667 96.3333M188.667 96.3333L189.333 96.6667L188.667 96.3333z"/>
<path style="fill:#466f4e; stroke:none;" d="M190 96L191 97L190 96z"/>
<path style="fill:#829acf; stroke:none;" d="M131.667 97.3333L132.333 97.6667L131.667 97.3333M193.667 97.3333L194.333 97.6667L193.667 97.3333M127.667 98.3333L128.333 98.6667L127.667 98.3333M197.667 98.3333L198.333 98.6667L197.667 98.3333M123.667 99.3333L124.333 99.6667L123.667 99.3333M201.667 99.3333L202.333 99.6667L201.667 99.3333M120 100L121 101L120 100M205 100L206 101L205 100M117 101L118 102L117 101M208 101L209 102L208 101M114 102L115 103L114 102M211 102L212 103L211 102z"/>
<path style="fill:#466f4e; stroke:none;" d="M111 103L112 104L111 103z"/>
<path style="fill:#829acf; stroke:none;" d="M112 103L113 104L112 103M213 103L214 104L213 103z"/>
<path style="fill:#466f4e; stroke:none;" d="M214 103L215 104L214 103z"/>
<path style="fill:#829acf; stroke:none;" d="M109 104L110 105L109 104M216 104L217 105L216 104M107 105L108 106L107 105M218 105L219 106L218 105z"/>
<path style="fill:#466f4e; stroke:none;" d="M104 106L105 107L104 106z"/>
<path style="fill:#829acf; stroke:none;" d="M105 106L106 107L105 106M131 175C125.603 168.877 125.157 158.703 123.489 151C120.974 139.384 116.478 127.974 112 117C98.8137 121.49 87.3594 129.714 77 138.845C8.97366 198.801 25.683 316.53 110 352.85C121.893 357.973 134.94 362.438 148 363L148 349L149 349L150 363L160 364L161 347L162 347L164 353L165 353L162 322L163 322L163 324L164 324L159 269L160 269L164 294L169 312L171 312L171 308L172 308L179 335C184.171 317.944 173.618 301.873 176 285L177 285L177 289L178 289L177 274C180.675 278.414 183.604 288.556 181 294L184 322L186 322L183 273L184 273L185 280L186 280L187 278L188 281L191 281L188 279L187 253L188 253L189 267L190 267L190 265L191 265L195 285L196 285L197 272L196 275C201.654 273.788 198.532 263.288 197.778 259C194.794 242.042 192.799 225.124 191 208L192 208L198 238L199 238L197.609 207.816L194 188L195 188L203 217L207 215L210 204L210 203L210 199L216.694 163L219 151L219 150C222.433 148.134 221.17 141.199 220 138C222.339 137.324 224.166 135.984 222 134L224 125L228 124C206.873 106.312 170.024 103.576 144 107.427C137.982 108.318 121.395 109.524 118.121 115.419C115.879 119.455 120.974 126.718 122.019 130.715C125.654 144.606 129.342 160.805 131 175M220 106L221 107L220 106z"/>
<path style="fill:#466f4e; stroke:none;" d="M221 106L222 107L221 106z"/>
<path style="fill:#829acf; stroke:none;" d="M102 107L103 108L102 107M223 107L224 108L223 107M100 108L101 109L100 108M225 108L226 109L225 108M98 109L99 110L98 109M227 109L228 110L227 109M96 110L97 111L96 110M229 110L230 111L229 110z"/>
<path style="fill:#466f4e; stroke:none;" d="M94 111L95 112L94 111M231 111L232 112L231 111z"/>
<path style="fill:#829acf; stroke:none;" d="M93 112L94 113L93 112M232 112L233 113L232 112M91 113L92 114L91 113M234 113L235 114L234 113M89 114L90 115L89 114M236 114L237 115L236 114M88 115L89 116L88 115M237 115L238 116L237 115M86 116L87 117L86 116M239 116L240 117L239 116M83 118L84 119L83 118M242 118L243 119L242 118M82 119L83 120L82 119M243 119L244 120L243 119z"/>
<path style="fill:#466f4e; stroke:none;" d="M80 120L81 121L80 120M245 120L246 121L245 120z"/>
<path style="fill:#829acf; stroke:none;" d="M79 121L80 122L79 121M246 121L247 122L246 121z"/>
<path style="fill:#466f4e; stroke:none;" d="M76 123L77 124L76 123M224 123L225 124L224 123M249 123L250 124L249 123z"/>
<path style="fill:#829acf; stroke:none;" d="M75 124L76 125L75 124z"/>
<path style="fill:#466f4e; stroke:none;" d="M224 125L222 134C223.537 136.102 222.083 136.971 220 138L219 150L219 151L221 152C216.451 155.277 217.326 161.877 215.852 166.871C213.025 176.45 207.73 188.49 210 199C207.85 200.169 207.794 201.843 210 203L210 204C206.565 206.692 206.106 210.922 207 215L203 217L195 188L194 188L197.304 207.961L199 238L198 238L192 208L191 208C192.28 224.215 193.579 241.127 197.116 257C198.3 262.316 201.395 271.502 196 275L197 272L196 285L195 285L191 265L190 265L190 267L189 267L188 253L187 253C185.29 260.863 185.853 274.564 191 281L188 281L187 278L186 280L185 280L184 273L183 273L186 322L184 322C183.382 314.168 185.86 300.177 181 294C184.29 289.201 181.085 277.582 177 274L178 289L177 289L177 285L176 285C170.8 301.983 183.314 317.086 179 335L172 308L171 308L171 312L169 312C168.852 306.896 168.225 297.047 164 294C165.512 286.253 163.096 276.167 160 269L159 269L164 324L163 324L163 322L162 322L165 353L164 353L162 347L161 347L160.029 362.397L169 363.576L192 361L191 352L192 352L193 360L199 353L199 323L203 343L204 343L212 314L215 314L218 305L217 297L219 297L220 289L228 267L227 264C232.097 259.481 232.486 246.513 233 240L236 241L236 240L234 239C236.962 235.839 240.091 225.766 238 222L238 221C241.024 217.425 241.763 212.53 241 208C248.04 206.827 242.81 200.257 245 195C247.827 188.215 251.177 172.406 252 165C252.429 161.135 252.356 155.339 255 156C254.97 152.864 256.298 149.095 255.218 146.09C252.213 137.736 232.848 123.486 224 125z"/>
<path style="fill:#829acf; stroke:none;" d="M229 124L230 125L229 124M250 124L251 125L250 124M74 125L75 126L74 125M230 125L231 126L230 125M251 125L252 126L251 125M232 126L233 127L232 126z"/>
<path style="fill:#466f4e; stroke:none;" d="M71 127L72 128L71 127z"/>
<path style="fill:#829acf; stroke:none;" d="M233 127L234 128L233 127z"/>
<path style="fill:#466f4e; stroke:none;" d="M254 127L255 128L254 127z"/>
<path style="fill:#829acf; stroke:none;" d="M70 128L71 129L70 128M235 128L236 129L235 128M255 128L256 129L255 128M69 129L70 130L69 129M236 129L237 130L236 129M256 129L257 130L256 129M68 130L69 131L68 130M238 130L239 131L238 130M257 130L258 131L257 130M67 131L68 132L67 131M239 131L240 132L239 131M258 131L259 132L258 131M66 132L67 133L66 132M259 132L260 133L259 132z"/>
<path style="fill:#466f4e; stroke:none;" d="M219 133L219 138L220 138L219 133z"/>
<path style="fill:#829acf; stroke:none;" d="M242 133L243 134L242 133M243 134L244 135L243 134M60 138L61 139L60 138M248 138L249 139L248 138M265 138L266 139L265 138M59 139L60 140L59 139M249 139L250 140L249 139M266 139L267 140L266 139M58 140L59 141L58 140M250 140L251 141L250 140M267 140L268 141L267 140M57 141L58 142L57 141M251 141L252 142L251 141M268 141L269 142L268 141M56 142L57 143L56 142M252 142L253 143L252 142M269 142L270 143L269 142z"/>
<path style="fill:#466f4e; stroke:none;" d="M55 143L56 144L55 143M270 143L271 144L270 143z"/>
<path style="fill:#829acf; stroke:none;" d="M255 145L256 146L255 145M53 146L54 147L53 146M256 146L260 150L256 146M272 146L273 147L272 146M52 147L53 148L52 147z"/>
<path style="fill:#274d9f; stroke:none;" d="M256 147L255 156L251.134 168L245.171 196.06L241 208L238 221L238 222L236 240L236 241L233 240L227 264L228 267L220 289L219 297L215 314L212 314L204 343L203 343C202.654 337.333 203.586 326.859 199 323L199 353L197 359L218 352C216.324 339.832 227.924 321.833 231.49 310C242.178 274.534 254.794 238.596 260.879 202C264.17 182.208 275.881 161.299 256 147z"/>
<path style="fill:#829acf; stroke:none;" d="M273 147L274 148L273 147z"/>
<path style="fill:#466f4e; stroke:none;" d="M51 148L52 149L51 148M274 148L275 149L274 148z"/>
<path style="fill:#829acf; stroke:none;" d="M49 151L50 152L49 151M276 151L277 152L276 151z"/>
<path style="fill:#466f4e; stroke:none;" d="M48 152L49 153L48 152M277 152L278 153L277 152M262 153L263 154L262 153z"/>
<path style="fill:#829acf; stroke:none;" d="M47 154L48 155L47 154z"/>
<path style="fill:#466f4e; stroke:none;" d="M263 154L264 155L263 154z"/>
<path style="fill:#829acf; stroke:none;" d="M278 154L279 155L278 154M46 155L47 156L46 155M264 155L265 156L264 155M279 155L280 156L279 155M265 156L266 157L265 156M44 158L45 159L44 158z"/>
<path style="fill:#466f4e; stroke:none;" d="M266 158L267 159L266 158z"/>
<path style="fill:#829acf; stroke:none;" d="M281 158L282 159L281 158M267 159L268 160L267 159M43 160L44 161L43 160M282 160L283 161L282 160M42 161L43 162L42 161M283 161L284 162L283 161z"/>
<path style="fill:#060d18; stroke:none;" d="M268 162L260.818 200.996L231.49 309L217 351C229.884 347.448 241.369 338.123 250.961 329.166C283.532 298.75 297.606 253.57 289.389 210C286.404 194.172 280.216 173.197 268 162z"/>
<path style="fill:#466f4e; stroke:none;" d="M269 162L270 163L269 162z"/>
<path style="fill:#829acf; stroke:none;" d="M41 163L42 164L41 163M270 163L271 164L270 163M284 163L285 164L284 163z"/>
<path style="fill:#274d9f; stroke:none;" d="M270 164L271 165L270 164z"/>
<path style="fill:#829acf; stroke:none;" d="M40 165L41 166L40 165z"/>
<path style="fill:#466f4e; stroke:none;" d="M271 165L272 166L271 165z"/>
<path style="fill:#829acf; stroke:none;" d="M285 165L286 166L285 165z"/>
<path style="fill:#466f4e; stroke:none;" d="M39 166L40 167L39 166z"/>
<path style="fill:#829acf; stroke:none;" d="M272 166L273 167L272 166z"/>
<path style="fill:#466f4e; stroke:none;" d="M286 166L287 167L286 166M212 167L212 169L214 169L214 167L212 167z"/>
<path style="fill:#274d9f; stroke:none;" d="M272 167L273 168L272 167z"/>
<path style="fill:#829acf; stroke:none;" d="M38 168L39 169L38 168M273 168L274 169L273 168M287 168L288 169L287 168M37 170L38 171L37 170z"/>
<path style="fill:#274d9f; stroke:none;" d="M274 170L275 171L274 170z"/>
<path style="fill:#829acf; stroke:none;" d="M288 170L289 171L288 170M275 171L276 172L275 171M36 172L37 173L36 172z"/>
<path style="fill:#274d9f; stroke:none;" d="M275 172L276 173L275 172z"/>
<path style="fill:#829acf; stroke:none;" d="M289 172L290 173L289 172M276 173L277 174L276 173M35 174L36 175L35 174M290 174L291 175L290 174M213 175L214 176L213 175M277 175L278 176L277 175z"/>
<path style="fill:#466f4e; stroke:none;" d="M34 176L35 177L34 176M291 176L292 177L291 176z"/>
<path style="fill:#829acf; stroke:none;" d="M34 177L35 178L34 177z"/>
<path style="fill:#fbfcfe; stroke:none;" d="M131 177L132 178L131 177z"/>
<path style="fill:#466f4e; stroke:none;" d="M192 177L193 188L194 188L192 177z"/>
<path style="fill:#829acf; stroke:none;" d="M214 177L215 178L214 177M278 177L279 178L278 177M291 177L292 178L291 177M33 179L34 180L33 179M214 179L215 180L214 179M279 179L280 180L279 179M292 179L293 180L292 179M32 181L33 182L32 181M280 181L281 182L280 181M293 181L294 182L293 181M214 182L215 183L214 182z"/>
<path style="fill:#466f4e; stroke:none;" d="M31 183L32 184L31 183z"/>
<path style="fill:#829acf; stroke:none;" d="M281 183L282 184L281 183z"/>
<path style="fill:#466f4e; stroke:none;" d="M294 183L295 184L294 183z"/>
<path style="fill:#829acf; stroke:none;" d="M31 184L32 185L31 184M215 184L216 185L215 184z"/>
<path style="fill:#466f4e; stroke:none;" d="M281 184L282 185L281 184z"/>
<path style="fill:#829acf; stroke:none;" d="M294 184L295 185L294 184M30 186L31 187L30 186z"/>
<path style="fill:#466f4e; stroke:none;" d="M282 186L283 187L282 186z"/>
<path style="fill:#829acf; stroke:none;" d="M295 186L296 187L295 186M283 188L284 189L283 188M29 189L30 190L29 189z"/>
<path style="fill:#466f4e; stroke:none;" d="M283 189L284 190L283 189z"/>
<path style="fill:#829acf; stroke:none;" d="M296 189L297 190L296 189M284 191L285 192L284 191M28 192L29 193L28 192M297 192L298 193L297 192M285 194L286 195L285 194M27.3333 195.667L27.6667 196.333L27.3333 195.667M211.333 195.667L211.667 196.333L211.333 195.667M298.333 195.667L298.667 196.333L298.333 195.667M286 197L287 198L286 197z"/>
<path style="fill:#466f4e; stroke:none;" d="M286 198L287 199L286 198z"/>
<path style="fill:#829acf; stroke:none;" d="M26.3333 199.667L26.6667 200.333L26.3333 199.667M299.333 199.667L299.667 200.333L299.333 199.667M287 200L288 201L287 200z"/>
<path style="fill:#466f4e; stroke:none;" d="M287 201L288 202L287 201z"/>
<path style="fill:#829acf; stroke:none;" d="M25.3333 203.667L25.6667 204.333L25.3333 203.667z"/>
<path style="fill:#466f4e; stroke:none;" d="M190 203L190 206L191 206L190 203z"/>
<path style="fill:#829acf; stroke:none;" d="M300.333 203.667L300.667 204.333L300.333 203.667M288 204L289 205L288 204z"/>
<path style="fill:#466f4e; stroke:none;" d="M288 205L289 206L288 205M24 207L25 208L24 207M301 207L302 208L301 207z"/>
<path style="fill:#829acf; stroke:none;" d="M24.3333 208.667L24.6667 209.333L24.3333 208.667M289.333 208.667L289.667 209.333L289.333 208.667M301.333 208.667L301.667 209.333L301.333 208.667z"/>
<path style="fill:#466f4e; stroke:none;" d="M289 210L290 211L289 210M242 212L243 213L242 212z"/>
<path style="fill:#829acf; stroke:none;" d="M23 213L23 216L24 216L23 213M302 213L302 216L303 216L302 213M290 214L291 215L290 214z"/>
<path style="fill:#466f4e; stroke:none;" d="M290.333 215.667L290.667 216.333L290.333 215.667z"/>
<path style="fill:#829acf; stroke:none;" d="M203 219L201 224L204 223L203 219z"/>
<path style="fill:#466f4e; stroke:none;" d="M22 220L23 221L22 220M303 220L304 221L303 220z"/>
<path style="fill:#829acf; stroke:none;" d="M22 221L22 227L23 227L22 221M291 221L291 224L292 224L291 221M303 221L303 227L304 227L303 221z"/>
<path style="fill:#274d9f; stroke:none;" d="M238 224L239 225L238 224z"/>
<path style="fill:#466f4e; stroke:none;" d="M291 224L291 227L292 227L291 224M182.333 225.667L182.667 226.333L182.333 225.667M183 230L183 238L184 238L183 230z"/>
<path style="fill:#829acf; stroke:none;" d="M202 230L203 231L202 230M22 243L22 249L23 249L22 243z"/>
<path style="fill:#466f4e; stroke:none;" d="M190 243L191 244L190 243M291 243L291 246L292 246L291 243z"/>
<path style="fill:#829acf; stroke:none;" d="M303 243L303 249L304 249L303 243M291 246L291 249L292 249L291 246z"/>
<path style="fill:#466f4e; stroke:none;" d="M184 248L184 251C186.006 249.873 186.006 249.127 184 248M22 249L23 250L22 249M160 249L162 255L160 249M303 249L304 250L303 249M192 251L192 271C197.671 269.785 194.222 254.813 192 251M0 253L0 398L145 398L145 397L127 396C122.451 390.387 106.885 388.681 100 385.719C82.6921 378.273 67.1687 368.142 53 355.714C32.8718 338.058 16.8181 313.384 8.35494 288C4.65031 276.888 4.45343 263.515 0 253M290.333 253.667L290.667 254.333L290.333 253.667M325 253C324.869 268.869 319.046 285.573 312.85 300C291.641 349.384 237.314 396.534 181 397L181 398L326 398L326 297C326 284.532 329.807 264.456 325 253z"/>
<path style="fill:#829acf; stroke:none;" d="M23 254L23 257L24 257L23 254M302 254L302 257L303 257L302 254M290 255L291 256L290 255z"/>
<path style="fill:#466f4e; stroke:none;" d="M156 257L157 258L156 257M157 259L157 263L158 263L157 259M177 259L178 260L177 259M289 259L290 260L289 259z"/>
<path style="fill:#829acf; stroke:none;" d="M24.3333 260.667L24.6667 261.333L24.3333 260.667z"/>
<path style="fill:#466f4e; stroke:none;" d="M162 260L164 278L165 278L162 260z"/>
<path style="fill:#829acf; stroke:none;" d="M289.333 260.667L289.667 261.333L289.333 260.667M301.333 260.667L301.667 261.333L301.333 260.667z"/>
<path style="fill:#466f4e; stroke:none;" d="M24 262L25 263L24 262M301 262L302 263L301 262M184 263L185 271L186 271L184 263M288 264L289 265L288 264z"/>
<path style="fill:#829acf; stroke:none;" d="M25.3333 265.667L25.6667 266.333L25.3333 265.667M288 265L289 266L288 265M300.333 265.667L300.667 266.333L300.333 265.667z"/>
<path style="fill:#466f4e; stroke:none;" d="M159 267L160 268L159 267M287 268L288 269L287 268z"/>
<path style="fill:#829acf; stroke:none;" d="M26.3333 269.667L26.6667 270.333L26.3333 269.667z"/>
<path style="fill:#466f4e; stroke:none;" d="M168.333 269.667L168.667 270.333L168.333 269.667z"/>
<path style="fill:#829acf; stroke:none;" d="M287 269L288 270L287 269M299.333 269.667L299.667 270.333L299.333 269.667z"/>
<path style="fill:#466f4e; stroke:none;" d="M286 271L287 272L286 271z"/>
<path style="fill:#829acf; stroke:none;" d="M286 272L287 273L286 272M27.3333 273.667L27.6667 274.333L27.3333 273.667M298.333 273.667L298.667 274.333L298.333 273.667z"/>
<path style="fill:#466f4e; stroke:none;" d="M179 274L180 275L179 274z"/>
<path style="fill:#829acf; stroke:none;" d="M285 275L286 276L285 275M28 277L29 278L28 277z"/>
<path style="fill:#466f4e; stroke:none;" d="M175 277L176 278L175 277z"/>
<path style="fill:#829acf; stroke:none;" d="M297 277L298 278L297 277M284 278L285 279L284 278M29 280L30 281L29 280z"/>
<path style="fill:#466f4e; stroke:none;" d="M283 280L284 281L283 280z"/>
<path style="fill:#829acf; stroke:none;" d="M296 280L297 281L296 280z"/>
<path style="fill:#466f4e; stroke:none;" d="M176.333 281.667L176.667 282.333L176.333 281.667z"/>
<path style="fill:#829acf; stroke:none;" d="M283 281L284 282L283 281M188 282L192 306L193 306C192.86 299.238 194.059 285.938 188 282M30 283L31 284L30 283z"/>
<path style="fill:#466f4e; stroke:none;" d="M282 283L283 284L282 283z"/>
<path style="fill:#829acf; stroke:none;" d="M295 283L296 284L295 283M31 285L32 286L31 285z"/>
<path style="fill:#466f4e; stroke:none;" d="M281 285L282 286L281 285z"/>
<path style="fill:#829acf; stroke:none;" d="M294 285L295 286L294 285z"/>
<path style="fill:#466f4e; stroke:none;" d="M31 286L32 287L31 286z"/>
<path style="fill:#829acf; stroke:none;" d="M185 286L186 287L185 286M281 286L282 287L281 286z"/>
<path style="fill:#466f4e; stroke:none;" d="M294 286L295 287L294 286M173 287L173 290L174 290L173 287z"/>
<path style="fill:#829acf; stroke:none;" d="M32 288L33 289L32 288M280 288L281 289L280 288M293 288L294 289L293 288M33 290L34 291L33 290M176 290L174 294L176 290M279 290L280 291L279 290M292 290L293 291L292 290M34 292L35 293L34 292M278 292L279 293L278 292M291 292L292 293L291 292z"/>
<path style="fill:#466f4e; stroke:none;" d="M34 293L35 294L34 293M291 293L292 294L291 293z"/>
<path style="fill:#829acf; stroke:none;" d="M176 294L177 301L178 301L176 294M277 294L278 295L277 294M35 295L36 296L35 295M290 295L291 296L290 295M276 296L277 297L276 296M36 297L37 298L36 297M165.333 297.667L165.667 298.333L165.333 297.667M289 297L290 298L289 297M275 298L276 299L275 298M37 299L38 300L37 299z"/>
<path style="fill:#466f4e; stroke:none;" d="M274 299L275 300L274 299z"/>
<path style="fill:#829acf; stroke:none;" d="M288 299L289 300L288 299M38 301L39 302L38 301z"/>
<path style="fill:#466f4e; stroke:none;" d="M273 301L274 302L273 301z"/>
<path style="fill:#829acf; stroke:none;" d="M287 301L288 302L287 301z"/>
<path style="fill:#466f4e; stroke:none;" d="M170 302L171 303L170 302M39 303L40 304L39 303z"/>
<path style="fill:#829acf; stroke:none;" d="M272 303L273 304L272 303z"/>
<path style="fill:#466f4e; stroke:none;" d="M286 303L287 304L286 303z"/>
<path style="fill:#829acf; stroke:none;" d="M40 304L41 305L40 304z"/>
<path style="fill:#274d9f; stroke:none;" d="M216 304L217 305L216 304z"/>
<path style="fill:#466f4e; stroke:none;" d="M271 304L272 305L271 304z"/>
<path style="fill:#829acf; stroke:none;" d="M285 304L286 305L285 304z"/>
<path style="fill:#274d9f; stroke:none;" d="M214.333 305.667L214.667 306.333L214.333 305.667z"/>
<path style="fill:#829acf; stroke:none;" d="M41 306L42 307L41 306M270 306L271 307L270 306M284 306L285 307L284 306z"/>
<path style="fill:#466f4e; stroke:none;" d="M269 307L270 308L269 307z"/>
<path style="fill:#829acf; stroke:none;" d="M42 308L43 309L42 308M283 308L284 309L283 308M43 309L44 310L43 309M268 309L269 310L268 309M282 309L283 310L282 309z"/>
<path style="fill:#466f4e; stroke:none;" d="M267 310L268 311L267 310z"/>
<path style="fill:#829acf; stroke:none;" d="M44 311L45 312L44 311M281 311L282 312L281 311M167 312L171 347L172 347L171 313L167 312M265 313L266 314L265 313M46 314L47 315L46 314z"/>
<path style="fill:#466f4e; stroke:none;" d="M264 314L265 315L264 314z"/>
<path style="fill:#829acf; stroke:none;" d="M279 314L280 315L279 314M47 315L48 316L47 315z"/>
<path style="fill:#274d9f; stroke:none;" d="M199 315L199 322L200 322L199 315z"/>
<path style="fill:#466f4e; stroke:none;" d="M263 315L264 316L263 315z"/>
<path style="fill:#829acf; stroke:none;" d="M278 315L279 316L278 315z"/>
<path style="fill:#466f4e; stroke:none;" d="M169 316L170 317L169 316M213 316L214 317L213 316M48 317L49 318L48 317M161 317L161 320L162 320L161 317M277 317L278 318L277 317z"/>
<path style="fill:#829acf; stroke:none;" d="M49 318L50 319L49 318M261 318L262 319L261 318M276 318L277 319L276 318z"/>
<path style="fill:#274d9f; stroke:none;" d="M207.333 319.667L207.667 320.333L207.333 319.667z"/>
<path style="fill:#829acf; stroke:none;" d="M260 319L261 320L260 319M259 320L260 321L259 320z"/>
<path style="fill:#466f4e; stroke:none;" d="M51 321L52 322L51 321M126 321L126 326L127 326L126 321z"/>
<path style="fill:#829acf; stroke:none;" d="M258 321L259 322L258 321z"/>
<path style="fill:#466f4e; stroke:none;" d="M274 321L275 322L274 321z"/>
<path style="fill:#829acf; stroke:none;" d="M52 322L53 323L52 322z"/>
<path style="fill:#466f4e; stroke:none;" d="M257 322L258 323L257 322z"/>
<path style="fill:#829acf; stroke:none;" d="M273 322L274 323L273 322M53 323L54 324L53 323z"/>
<path style="fill:#466f4e; stroke:none;" d="M256 323L257 324L256 323z"/>
<path style="fill:#829acf; stroke:none;" d="M272 323L273 324L272 323z"/>
<path style="fill:#466f4e; stroke:none;" d="M255 324L256 325L255 324M55 326L56 327L55 326z"/>
<path style="fill:#274d9f; stroke:none;" d="M190 326L190 337L191 337L190 326z"/>
<path style="fill:#466f4e; stroke:none;" d="M270 326L271 327L270 326z"/>
<path style="fill:#829acf; stroke:none;" d="M56 327L57 328L56 327z"/>
<path style="fill:#466f4e; stroke:none;" d="M252 327L253 328L252 327z"/>
<path style="fill:#829acf; stroke:none;" d="M269 327L270 328L269 327M57 328L58 329L57 328z"/>
<path style="fill:#466f4e; stroke:none;" d="M251 328L252 329L251 328z"/>
<path style="fill:#829acf; stroke:none;" d="M268 328L269 329L268 328M58 329L59 330L58 329z"/>
<path style="fill:#466f4e; stroke:none;" d="M127 329L128 343L129 343L127 329M250 329L251 330L250 329z"/>
<path style="fill:#829acf; stroke:none;" d="M267 329L268 330L267 329M59 330L60 331L59 330M249 330L250 331L249 330M266 330L267 331L266 330M60 331L61 332L60 331M248 331L249 332L248 331M265 331L266 332L265 331M247 332L248 333L247 332M246 333L247 334L246 333z"/>
<path style="fill:#274d9f; stroke:none;" d="M203 334L204 335L203 334z"/>
<path style="fill:#466f4e; stroke:none;" d="M243 335L244 336L243 335M242 336L243 337L242 336z"/>
<path style="fill:#829acf; stroke:none;" d="M66 337L67 338L66 337M179.333 337.667L179.667 338.333L179.333 337.667M241 337L242 338L241 337M259 337L260 338L259 337M67 338L68 339L67 338M258 338L259 339L258 338M68 339L69 340L68 339z"/>
<path style="fill:#274d9f; stroke:none;" d="M191 339L191 346L192 346L191 339z"/>
<path style="fill:#466f4e; stroke:none;" d="M238 339L239 340L238 339z"/>
<path style="fill:#829acf; stroke:none;" d="M257 339L258 340L257 339M69 340L70 341L69 340M237 340L238 341L237 340M256 340L257 341L256 340M70 341L71 342L70 341z"/>
<path style="fill:#466f4e; stroke:none;" d="M235 341L236 342L235 341z"/>
<path style="fill:#829acf; stroke:none;" d="M255 341L256 342L255 341z"/>
<path style="fill:#466f4e; stroke:none;" d="M71 342L72 343L71 342z"/>
<path style="fill:#829acf; stroke:none;" d="M234 342L235 343L234 342z"/>
<path style="fill:#466f4e; stroke:none;" d="M254 342L255 343L254 342M160 343L161 344L160 343M232 343L233 344L232 343z"/>
<path style="fill:#829acf; stroke:none;" d="M74 344L75 345L74 344M231 344L232 345L231 344M251 344L252 345L251 344M75 345L76 346L75 345z"/>
<path style="fill:#466f4e; stroke:none;" d="M160 345L161 346L160 345M229 345L230 346L229 345z"/>
<path style="fill:#829acf; stroke:none;" d="M250 345L251 346L250 345z"/>
<path style="fill:#466f4e; stroke:none;" d="M76 346L77 347L76 346z"/>
<path style="fill:#274d9f; stroke:none;" d="M227 346L228 347L227 346z"/>
<path style="fill:#466f4e; stroke:none;" d="M249 346L250 347L249 346z"/>
<path style="fill:#274d9f; stroke:none;" d="M225 347L226 348L225 347z"/>
<path style="fill:#829acf; stroke:none;" d="M226 347L227 348L226 347M79 348L80 349L79 348M224 348L225 349L224 348M246 348L247 349L246 348z"/>
<path style="fill:#466f4e; stroke:none;" d="M80 349L81 350L80 349M148 349L148 363L151 362L148 349z"/>
<path style="fill:#274d9f; stroke:none;" d="M221 349L222 350L221 349z"/>
<path style="fill:#829acf; stroke:none;" d="M222 349L223 350L222 349z"/>
<path style="fill:#466f4e; stroke:none;" d="M245 349L246 350L245 349z"/>
<path style="fill:#829acf; stroke:none;" d="M82 350L83 351L82 350z"/>
<path style="fill:#274d9f; stroke:none;" d="M219 350L220 351L219 350z"/>
<path style="fill:#829acf; stroke:none;" d="M220 350L221 351L220 350M243 350L244 351L243 350M83 351L84 352L83 351z"/>
<path style="fill:#060d18; stroke:none;" d="M216 351L217 352L216 351z"/>
<path style="fill:#829acf; stroke:none;" d="M218 351L219 352L218 351M242 351L243 352L242 351z"/>
<path style="fill:#274d9f; stroke:none;" d="M191 352L191 360C193.711 357.629 193.032 354.682 191 352z"/>
<path style="fill:#829acf; stroke:none;" d="M216 352L217 353L216 352M86 353L87 354L86 353z"/>
<path style="fill:#466f4e; stroke:none;" d="M213 353L214 354L213 353z"/>
<path style="fill:#829acf; stroke:none;" d="M239 353L240 354L239 353M88 354L89 355L88 354M163 354L164 355L163 354z"/>
<path style="fill:#274d9f; stroke:none;" d="M169 354L169 363L170 363L169 354z"/>
<path style="fill:#829acf; stroke:none;" d="M211 354L212 355L211 354M237 354L238 355L237 354M89 355L90 356L89 355z"/>
<path style="fill:#466f4e; stroke:none;" d="M208 355L209 356L208 355z"/>
<path style="fill:#829acf; stroke:none;" d="M236 355L237 356L236 355M91 356L92 357L91 356z"/>
<path style="fill:#466f4e; stroke:none;" d="M205 356L206 357L205 356z"/>
<path style="fill:#829acf; stroke:none;" d="M206 356L207 357L206 356M234 356L235 357L234 356M93 357L94 358L93 357z"/>
<path style="fill:#466f4e; stroke:none;" d="M202 357L203 358L202 357z"/>
<path style="fill:#829acf; stroke:none;" d="M203 357L204 358L203 357M232 357L233 358L232 357z"/>
<path style="fill:#466f4e; stroke:none;" d="M94 358L95 359L94 358z"/>
<path style="fill:#829acf; stroke:none;" d="M199.667 358.333L200.333 358.667L199.667 358.333z"/>
<path style="fill:#466f4e; stroke:none;" d="M231 358L232 359L231 358z"/>
<path style="fill:#829acf; stroke:none;" d="M96 359L97 360L96 359M196 359L197 360L196 359M229 359L230 360L229 359M98 360L99 361L98 360M192 360L193 361L192 360M227 360L228 361L227 360M100 361L101 362L100 361M186 361L186 362L189 362L186 361M225 361L226 362L225 361M102 362L103 363L102 362M180 362L180 363L183 363L180 362M223 362L224 363L223 362z"/>
<path style="fill:#466f4e; stroke:none;" d="M104 363L105 364L104 363z"/>
<path style="fill:#829acf; stroke:none;" d="M105 363L106 364L105 363M167.667 363.333L168.333 363.667L167.667 363.333M170 363L170 364L174 364L170 363M220 363L221 364L220 363z"/>
<path style="fill:#466f4e; stroke:none;" d="M221 363L222 364L221 363z"/>
<path style="fill:#829acf; stroke:none;" d="M107 364L108 365L107 364M218 364L219 365L218 364M109 365L110 366L109 365M216 365L217 366L216 365z"/>
<path style="fill:#466f4e; stroke:none;" d="M111 366L112 367L111 366z"/>
<path style="fill:#829acf; stroke:none;" d="M112 366L113 367L112 366M213 366L214 367L213 366z"/>
<path style="fill:#466f4e; stroke:none;" d="M214 366L215 367L214 366z"/>
<path style="fill:#829acf; stroke:none;" d="M114 367L115 368L114 367M211 367L212 368L211 367M117 368L118 369L117 368M208 368L209 369L208 368M120 369L121 370L120 369M205 369L206 370L205 369M123.667 370.333L124.333 370.667L123.667 370.333M201.667 370.333L202.333 370.667L201.667 370.333M127.667 371.333L128.333 371.667L127.667 371.333M197.667 371.333L198.333 371.667L197.667 371.333M131.667 372.333L132.333 372.667L131.667 372.333M193.667 372.333L194.333 372.667L193.667 372.333z"/>
<path style="fill:#466f4e; stroke:none;" d="M135 373L136 374L135 373z"/>
<path style="fill:#829acf; stroke:none;" d="M136.667 373.333L137.333 373.667L136.667 373.333M188.667 373.333L189.333 373.667L188.667 373.333z"/>
<path style="fill:#466f4e; stroke:none;" d="M190 373L191 374L190 373z"/>
<path style="fill:#829acf; stroke:none;" d="M141 374L141 375L144 375L141 374M182 374L182 375L185 375L182 374z"/>
<path style="fill:#466f4e; stroke:none;" d="M148 375L149 376L148 375z"/>
<path style="fill:#829acf; stroke:none;" d="M149 375L149 376L155 376L149 375M171 375L171 376L177 376L171 375z"/>
<path style="fill:#466f4e; stroke:none;" d="M177 375L178 376L177 375z"/>
</svg>
