<?xml version="1.0" standalone="no"?>
<!DOCTYPE svg PUBLIC "-//W3C//DTD SVG 20010904//EN"
 "http://www.w3.org/TR/2001/REC-SVG-20010904/DTD/svg10.dtd">
<svg version="1.0" xmlns="http://www.w3.org/2000/svg"
 width="326.000000pt" height="398.000000pt" viewBox="0 0 326.000000 398.000000"
 preserveAspectRatio="xMidYMid meet">

<g transform="translate(0.000000,398.000000) scale(0.100000,-0.100000)"
fill="#000000" stroke="none">
<path d="M1491 3591 l-144 -358 -106 -27 c-461 -113 -852 -427 -1061 -851
-106 -216 -154 -386 -168 -606 -27 -397 85 -782 318 -1090 430 -569 1164 -794
1834 -562 607 210 1042 777 1084 1414 15 214 -11 433 -74 628 -41 124 -156
347 -234 451 -229 306 -552 524 -910 614 l-95 24 -144 361 c-80 199 -148 361
-151 361 -3 0 -71 -161 -149 -359z m364 -566 c141 -22 259 -60 390 -124 294
-144 512 -362 656 -656 98 -201 139 -382 139 -615 0 -233 -41 -414 -139 -615
-144 -294 -362 -512 -656 -656 -201 -98 -382 -139 -615 -139 -233 0 -414 41
-615 139 -294 144 -515 365 -656 656 -98 203 -139 383 -139 615 0 233 41 414
139 615 75 152 159 271 275 385 210 208 477 346 761 394 109 19 349 19 460 1z"/>
<path d="M1500 2914 c-14 -2 -56 -9 -95 -15 -164 -26 -379 -116 -520 -217 -94
-68 -212 -178 -202 -188 9 -9 175 -10 452 -3 l150 4 49 33 c31 21 66 36 95 39
141 16 159 15 208 -7 26 -12 97 -32 156 -46 140 -32 320 -33 376 -3 20 10 49
19 65 19 28 0 29 0 11 -20 -18 -20 -17 -20 14 -20 24 0 34 5 38 20 7 27 11 26
84 -15 52 -30 71 -36 115 -34 29 1 63 8 76 15 23 13 22 14 -52 85 -177 169
-394 282 -640 335 -71 15 -327 27 -380 18z m987 -440 c-3 -3 -12 -4 -19 -1 -8
3 -5 6 6 6 11 1 17 -2 13 -5z"/>
<path d="M1410 2535 c-7 -9 -21 -13 -31 -10 -10 4 -24 3 -31 -1 -8 -5 -1 -11
22 -15 29 -6 38 -3 59 17 17 17 20 24 9 24 -9 0 -21 -7 -28 -15z"/>
<path d="M1468 2502 c-3 -13 -1 -34 6 -47 12 -22 13 -22 24 -5 9 14 8 19 -3
23 -7 3 -15 16 -17 29 l-3 23 -7 -23z"/>
<path d="M1558 2502 c-32 -19 -34 -27 -14 -48 18 -17 29 -18 21 -1 -4 6 0 4 8
-5 8 -10 20 -18 28 -18 8 -1 31 -7 51 -14 30 -11 38 -11 42 0 3 9 0 11 -11 7
-12 -5 -14 -3 -8 6 5 10 2 11 -11 7 -15 -5 -25 4 -44 39 -14 25 -27 45 -30 45
-3 0 -17 -8 -32 -18z m37 -12 c-3 -5 -10 -10 -16 -10 -5 0 -9 5 -9 10 0 6 7
10 16 10 8 0 12 -4 9 -10z"/>
<path d="M1278 2473 c6 -2 18 -2 25 0 6 3 1 5 -13 5 -14 0 -19 -2 -12 -5z"/>
<path d="M1788 2463 c7 -3 16 -2 19 1 4 3 -2 6 -13 5 -11 0 -14 -3 -6 -6z"/>
<path d="M1490 2412 c0 -5 7 -13 16 -16 10 -4 14 -1 12 6 -5 15 -28 23 -28 10z"/>
<path d="M980 2399 c-8 -5 -33 -9 -55 -9 -29 0 -44 -6 -52 -19 -11 -18 -7 -20
81 -26 113 -9 130 -6 134 21 5 32 -26 39 -55 13 l-23 -22 0 21 c0 26 -11 34
-30 21z"/>
<path d="M560 2340 c-23 -23 -26 -40 -7 -40 6 1 39 7 72 15 48 10 56 15 38 20
-13 4 -20 11 -17 16 11 19 -66 9 -86 -11z"/>
<path d="M1958 2352 c-16 -2 -28 -6 -28 -10 0 -4 -26 -7 -57 -8 -32 0 -103 -8
-158 -18 -55 -9 -127 -18 -160 -20 -33 -2 -61 -8 -63 -15 -5 -14 -39 -15 -47
-1 -3 6 -14 10 -23 10 -15 0 -15 -2 -2 -10 10 -7 -5 -9 -50 -9 -36 0 -86 -3
-112 -7 -52 -7 -70 11 -20 21 15 3 41 10 58 15 17 6 40 10 52 10 11 0 23 4 26
8 3 5 -15 6 -39 2 -24 -4 -51 -2 -61 3 -37 21 -108 19 -419 -14 -131 -13 -145
-17 -145 -34 0 -12 -19 -15 -104 -15 l-103 0 -32 -71 c-18 -39 -29 -74 -26
-77 3 -3 86 -1 183 5 98 7 195 8 214 4 20 -5 42 -5 49 0 19 12 31 11 24 -2 -5
-7 4 -8 27 -5 59 10 183 11 185 2 3 -18 31 -25 64 -15 19 5 52 6 74 3 44 -8
99 -7 129 2 11 4 16 2 12 -4 -3 -6 4 -5 19 1 l25 12 -27 12 -28 12 27 1 c15 0
30 -5 34 -11 3 -6 20 -9 38 -6 17 2 40 -1 51 -8 14 -9 35 -11 69 -5 52 8 86 4
86 -11 0 -5 9 -9 21 -9 12 0 17 4 13 11 -3 6 5 4 18 -5 14 -9 27 -13 31 -10 5
5 78 11 215 18 12 0 22 7 22 14 0 6 5 12 11 12 6 0 8 -11 5 -27 -6 -26 -4 -28
24 -28 17 0 30 5 30 13 0 6 5 12 10 12 6 0 10 -7 10 -15 0 -16 15 -18 73 -9
20 4 37 11 37 16 0 6 -7 8 -15 4 -8 -3 -15 -1 -15 4 0 9 30 15 53 11 4 0 7 2
7 7 0 4 16 7 35 8 33 0 34 0 18 -18 -16 -18 -16 -18 0 -12 10 3 17 1 17 -6 0
-6 5 -8 10 -5 6 4 17 1 25 -5 17 -14 146 -17 228 -6 41 6 57 6 57 -3 0 -6 -15
-11 -32 -12 -30 0 -28 -2 17 -15 77 -23 140 -30 130 -15 -4 7 -18 11 -30 9
-17 -4 -22 -1 -18 9 3 8 13 13 22 10 30 -9 36 -9 61 -8 47 2 53 13 35 59 -19
46 -34 51 -162 55 -44 1 -57 5 -45 11 9 6 33 9 52 8 32 -2 34 -1 16 12 -16 13
-13 14 38 9 31 -3 56 -3 56 1 0 21 -23 46 -43 47 -20 0 -20 1 -3 8 49 19 -117
46 -170 28 -15 -5 -27 -2 -38 8 -9 9 -16 12 -16 6 0 -6 -12 -11 -26 -11 -14 0
-23 4 -19 10 3 6 2 10 -4 10 -5 0 -11 -5 -13 -10 -2 -7 -25 -3 -60 9 -32 11
-66 20 -75 20 -60 0 -217 13 -227 18 -12 8 -82 10 -128 5z m224 -44 c43 -8 81
-17 85 -21 8 -8 -169 -3 -183 5 -5 4 -28 3 -51 -1 -34 -7 -40 -5 -36 7 3 7 0
18 -7 22 -19 12 103 4 192 -12z m-1319 -29 c-9 -9 -143 -24 -143 -15 0 10 64
24 108 24 24 0 40 -4 35 -9z m200 4 c-7 -2 -21 -2 -30 0 -10 3 -4 5 12 5 17 0
24 -2 18 -5z m632 -3 c-3 -5 -15 -10 -25 -10 -10 0 -22 5 -25 10 -4 6 7 10 25
10 18 0 29 -4 25 -10z m-105 -4 c0 -9 -30 -14 -35 -6 -4 6 3 10 14 10 12 0 21
-2 21 -4z m683 -13 c-7 -2 -19 -2 -25 0 -7 3 -2 5 12 5 14 0 19 -2 13 -5z
m341 -48 c50 -7 59 -15 18 -15 -18 0 -32 -4 -32 -10 0 -5 -24 -10 -52 -9 -29
0 -47 3 -40 6 27 11 -2 23 -56 24 -46 0 -52 2 -34 10 13 5 34 7 46 5 13 -2 29
-1 36 4 7 4 27 4 44 -1 17 -4 49 -10 70 -14z m-494 -25 c0 -5 -2 -10 -4 -10
-3 0 -8 5 -11 10 -3 6 -1 10 4 10 6 0 11 -4 11 -10z m250 -12 c0 -13 -43 -6
-47 8 -2 7 6 10 22 7 14 -3 25 -10 25 -15z"/>
<path d="M2631 2329 c19 -12 82 -11 74 0 -3 6 -24 9 -46 9 -27 0 -37 -3 -28
-9z"/>
<path d="M703 2313 c9 -2 25 -2 35 0 9 3 1 5 -18 5 -19 0 -27 -2 -17 -5z"/>
<path d="M2741 2176 c12 -10 60 -16 54 -6 -3 5 -18 10 -32 10 -15 0 -24 -2
-22 -4z"/>
<path d="M1095 2100 c3 -5 8 -10 11 -10 2 0 4 5 4 10 0 6 -5 10 -11 10 -5 0
-7 -4 -4 -10z"/>
<path d="M855 2070 c-16 -4 -78 -8 -137 -9 -65 -1 -108 -5 -108 -11 0 -5 26
-11 58 -12 77 -2 115 -5 127 -9 22 -7 246 32 240 42 -3 4 -18 4 -33 1 -30 -8
-66 -8 -97 0 -11 3 -33 2 -50 -2z"/>
<path d="M417 2055 c-5 -11 169 -12 180 -1 8 8 6 8 -94 10 -49 1 -84 -3 -86
-9z"/>
<path d="M1645 2059 c14 -22 292 -45 311 -26 4 4 -6 7 -22 7 -17 0 -34 4 -40
10 -6 6 -21 6 -41 1 -24 -7 -33 -6 -37 4 -4 10 -13 12 -35 5 -17 -4 -55 -5
-85 -1 -30 4 -53 4 -51 0z"/>
<path d="M2102 2038 c-4 -3 -18 -8 -32 -11 -14 -2 3 -5 38 -6 36 0 62 -5 62
-12 0 -5 5 -7 10 -4 6 4 8 11 5 16 -4 5 2 9 12 9 10 0 23 4 30 8 6 4 -17 7
-53 7 -36 0 -68 -3 -72 -7z"/>
<path d="M2253 2034 c-3 -8 -13 -14 -23 -14 -10 0 -21 -8 -25 -17 -5 -15 -4
-16 6 -5 15 14 33 16 24 2 -7 -12 95 -3 108 9 5 5 -6 11 -23 15 -17 3 -29 9
-26 14 2 4 -4 9 -15 9 -11 1 -23 -5 -26 -13z"/>
<path d="M2520 2040 l-25 -8 27 -1 c15 -1 30 4 33 9 7 11 0 11 -35 0z"/>
<path d="M1105 1995 c-26 -12 -28 -14 -11 -21 10 -4 21 -2 25 3 3 5 15 15 26
21 28 16 -2 14 -40 -3z"/>
<path d="M2618 1873 c7 -3 16 -2 19 1 4 3 -2 6 -13 5 -11 0 -14 -3 -6 -6z"/>
<path d="M2400 1681 c0 -5 9 -11 19 -14 14 -3 18 -1 14 9 -6 15 -33 19 -33 5z"/>
<path d="M2445 1680 c3 -5 14 -10 23 -10 15 0 15 2 2 10 -20 13 -33 13 -25 0z"/>
<path d="M2040 1610 c0 -5 -10 -10 -22 -10 -12 0 -19 -3 -15 -6 9 -9 57 5 57
16 0 6 -4 10 -10 10 -5 0 -10 -4 -10 -10z"/>
<path d="M2320 1559 c0 -4 6 -14 13 -21 7 -7 18 -22 25 -33 10 -17 11 -18 12
-2 0 9 5 17 10 17 6 0 10 5 10 11 0 5 -4 7 -10 4 -5 -3 -10 3 -10 14 0 16 -6
20 -25 19 -14 -1 -25 -6 -25 -9z"/>
<path d="M758 1523 c7 -3 16 -2 19 1 4 3 -2 6 -13 5 -11 0 -14 -3 -6 -6z"/>
<path d="M2463 1524 c3 -3 24 -10 47 -15 23 -5 49 -16 57 -24 8 -8 20 -15 26
-15 8 0 7 3 -2 9 -8 5 -10 14 -6 22 5 8 5 11 0 7 -4 -4 -23 -1 -42 7 -35 15
-92 21 -80 9z"/>
<path d="M2209 1496 c7 -9 23 -16 34 -16 26 0 12 15 -23 25 -22 7 -23 6 -11
-9z"/>
<path d="M2387 1489 c7 -7 15 -10 18 -7 3 3 -2 9 -12 12 -14 6 -15 5 -6 -5z"/>
<path d="M1000 1130 c-9 -6 -10 -10 -3 -10 6 0 15 5 18 10 8 12 4 12 -15 0z"/>
<path d="M918 793 c7 -3 16 -2 19 1 4 3 -2 6 -13 5 -11 0 -14 -3 -6 -6z"/>
</g>
</svg>
