<?xml version="1.0" standalone="yes"?>
<svg xmlns="http://www.w3.org/2000/svg" width="326" height="398">
<path style="fill:#506c4a; stroke:none;" d="M0 0L0 217L1 217C2.09711 163.846 42.8815 115.193 87 90.4252C96.328 85.1884 106.738 81.2404 117 78.2909C121.674 76.9474 129.683 76.5628 133.351 73.2616C138.282 68.824 140.375 58.0624 142.8 52C149.544 35.1404 158.813 17.6687 163 0L0 0z"/>
<path style="fill:#692516; stroke:none;" d="M163 0C157.046 17.5991 149.3 34.7491 142.4 52C139.964 58.0897 137.825 69.0224 132.606 73.2616C128.998 76.1929 122.394 76.4613 118 77.7099C108.364 80.4479 99.0515 84.018 90 88.3202C58.8003 103.15 32.2031 130.211 16.8086 161C-0.716629 196.051 -5.08264 238.049 4.62963 276C12.7052 307.555 30.2622 336.84 55 358.13C76.7228 376.826 102.743 390.06 131 395.389C218.138 411.822 306.699 355.496 323.389 267C336.338 198.34 305.178 127.518 244 92.7191C229.4 84.4145 211.071 75.7443 194 75C189.607 49.4883 173.305 24.5497 165 0L163 0z"/>
<path style="fill:#506c4a; stroke:none;" d="M165 0L194 75C210.414 76.3406 227.862 84.0852 242 92.1505C284.833 116.586 323.937 165.495 325 217L326 217L326 0L165 0z"/>
<path style="fill:#ac6747; stroke:none;" d="M148 94L148 95L152 95L148 94z"/>
<path style="fill:#f5e1b6; stroke:none;" d="M152 94L152 95L159 95L152 94z"/>
<path style="fill:#fefefd; stroke:none;" d="M159 94.4244C112.973 100.394 72.3645 116.048 45.6952 157C-5.60622 235.776 34.7971 351.398 130 371.789C146.118 375.242 162.623 376.673 179 374.715C249.006 366.342 303.921 305.965 303.921 235C303.921 170.298 256.86 110.449 193 97.6003C182.391 95.4657 169.787 93.0255 159 94.4244z"/>
<path style="fill:#f5e1b6; stroke:none;" d="M167 94L167 95L174 95L167 94z"/>
<path style="fill:#ac6747; stroke:none;" d="M174 94L174 95L178 95L174 94M140 95L140 96L143 96L140 95z"/>
<path style="fill:#f5e1b6; stroke:none;" d="M143 95L143 96L146 96L143 95M180 95L180 96L183 96L180 95z"/>
<path style="fill:#ac6747; stroke:none;" d="M183 95L183 96L186 96L183 95M135.667 96.3333L136.333 96.6667L135.667 96.3333z"/>
<path style="fill:#f5e1b6; stroke:none;" d="M137.667 96.3333L138.333 96.6667L137.667 96.3333M187.667 96.3333L188.333 96.6667L187.667 96.3333z"/>
<path style="fill:#ac6747; stroke:none;" d="M189.667 96.3333L190.333 96.6667L189.667 96.3333M130.667 97.3333L131.333 97.6667L130.667 97.3333z"/>
<path style="fill:#f5e1b6; stroke:none;" d="M132.667 97.3333L133.333 97.6667L132.667 97.3333M192.667 97.3333L193.333 97.6667L192.667 97.3333z"/>
<path style="fill:#ac6747; stroke:none;" d="M194.667 97.3333L195.333 97.6667L194.667 97.3333M126.667 98.3333L127.333 98.6667L126.667 98.3333z"/>
<path style="fill:#f5e1b6; stroke:none;" d="M128 98L129 99L128 98M197 98L198 99L197 98z"/>
<path style="fill:#ac6747; stroke:none;" d="M198.667 98.3333L199.333 98.6667L198.667 98.3333M123 99L124 100L123 99z"/>
<path style="fill:#f5e1b6; stroke:none;" d="M124 99L125 100L124 99M201 99L202 100L201 99z"/>
<path style="fill:#ac6747; stroke:none;" d="M202 99L203 100L202 99M120 100L121 101L120 100z"/>
<path style="fill:#f5e1b6; stroke:none;" d="M121 100L122 101L121 100M204 100L205 101L204 100z"/>
<path style="fill:#ac6747; stroke:none;" d="M205 100L206 101L205 100M117 101L118 102L117 101z"/>
<path style="fill:#f5e1b6; stroke:none;" d="M118 101L119 102L118 101M207 101L208 102L207 101z"/>
<path style="fill:#ac6747; stroke:none;" d="M208 101L209 102L208 101M114 102L115 103L114 102z"/>
<path style="fill:#f5e1b6; stroke:none;" d="M115 102L116 103L115 102M210 102L211 103L210 102z"/>
<path style="fill:#ac6747; stroke:none;" d="M211 102L212 103L211 102M111 103L112 104L111 103z"/>
<path style="fill:#f5e1b6; stroke:none;" d="M112 103L113 104L112 103M213 103L214 104L213 103z"/>
<path style="fill:#ac6747; stroke:none;" d="M214 103L215 104L214 103M109 104L110 105L109 104z"/>
<path style="fill:#f5e1b6; stroke:none;" d="M110 104L111 105L110 104M215 104L216 105L215 104z"/>
<path style="fill:#ac6747; stroke:none;" d="M216 104L217 105L216 104M106 105L107 106L106 105z"/>
<path style="fill:#f5e1b6; stroke:none;" d="M107 105L108 106L107 105M218 105L219 106L218 105z"/>
<path style="fill:#ac6747; stroke:none;" d="M219 105L220 106L219 105M104 106L105 107L104 106z"/>
<path style="fill:#f5e1b6; stroke:none;" d="M105 106L106 107L105 106M65 152C92.909 151.769 121.071 148.264 149 147.039C155.431 146.757 173.843 148.757 178 144L204 144.039L251 142C241.192 128.192 221.685 118.947 206 113.667C158.628 97.7215 95.4014 108.842 65 152M220 106L221 107L220 106z"/>
<path style="fill:#ac6747; stroke:none;" d="M221 106L222 107L221 106M102 107L103 108L102 107z"/>
<path style="fill:#f5e1b6; stroke:none;" d="M103 107L104 108L103 107M222 107L223 108L222 107z"/>
<path style="fill:#ac6747; stroke:none;" d="M223 107L224 108L223 107M100 108L101 109L100 108z"/>
<path style="fill:#f5e1b6; stroke:none;" d="M101 108L102 109L101 108M224 108L225 109L224 108z"/>
<path style="fill:#ac6747; stroke:none;" d="M225 108L226 109L225 108M98 109L99 110L98 109z"/>
<path style="fill:#f5e1b6; stroke:none;" d="M99 109L100 110L99 109M226 109L227 110L226 109z"/>
<path style="fill:#ac6747; stroke:none;" d="M227 109L228 110L227 109M96 110L97 111L96 110z"/>
<path style="fill:#f5e1b6; stroke:none;" d="M97 110L98 111L97 110M228 110L229 111L228 110z"/>
<path style="fill:#ac6747; stroke:none;" d="M229 110L230 111L229 110M94 111L95 112L94 111z"/>
<path style="fill:#f5e1b6; stroke:none;" d="M95 111L96 112L95 111M230 111L231 112L230 111z"/>
<path style="fill:#ac6747; stroke:none;" d="M231 111L232 112L231 111z"/>
<path style="fill:#f5e1b6; stroke:none;" d="M93 112L94 113L93 112M232 112L233 113L232 112z"/>
<path style="fill:#ac6747; stroke:none;" d="M91 113L92 114L91 113M234 113L235 114L234 113M89 114L90 115L89 114z"/>
<path style="fill:#f5e1b6; stroke:none;" d="M90 114L91 115L90 114M235 114L236 115L235 114z"/>
<path style="fill:#ac6747; stroke:none;" d="M236 114L237 115L236 114z"/>
<path style="fill:#f5e1b6; stroke:none;" d="M88 115L89 116L88 115M237 115L238 116L237 115z"/>
<path style="fill:#ac6747; stroke:none;" d="M86 116L87 117L86 116M239 116L240 117L239 116z"/>
<path style="fill:#f5e1b6; stroke:none;" d="M85 117L86 118L85 117M240 117L241 118L240 117z"/>
<path style="fill:#ac6747; stroke:none;" d="M83 118L84 119L83 118M242 118L243 119L242 118z"/>
<path style="fill:#f5e1b6; stroke:none;" d="M82 119L83 120L82 119M243 119L244 120L243 119z"/>
<path style="fill:#ac6747; stroke:none;" d="M80 120L81 121L80 120M245 120L246 121L245 120z"/>
<path style="fill:#f5e1b6; stroke:none;" d="M79 121L80 122L79 121M246 121L247 122L246 121M78 122L79 123L78 122M247 122L248 123L247 122z"/>
<path style="fill:#ac6747; stroke:none;" d="M76 123L77 124L76 123M249 123L250 124L249 123M75 124L76 125L75 124M250 124L251 125L250 124z"/>
<path style="fill:#f5e1b6; stroke:none;" d="M74 125L75 126L74 125M251 125L252 126L251 125M73 126L74 127L73 126M252 126L253 127L252 126z"/>
<path style="fill:#ac6747; stroke:none;" d="M71 127L72 128L71 127M254 127L255 128L254 127M70 128L71 129L70 128M255 128L256 129L255 128M69 129L70 130L69 129M256 129L257 130L256 129z"/>
<path style="fill:#f5e1b6; stroke:none;" d="M68 130L69 131L68 130M257 130L258 131L257 130M67 131L68 132L67 131M258 131L259 132L258 131M66 132L67 133L66 132M259 132L260 133L259 132M65 133L66 134L65 133M260 133L261 134L260 133M64 134L65 135L64 134M261 134L262 135L261 134M63 135L64 136L63 135M262 135L263 136L262 135M62 136L63 137L62 136M263 136L264 137L263 136M61 137L62 138L61 137M264 137L265 138L264 137M60 138L61 139L60 138M265 138L266 139L265 138M59 139L60 140L59 139M266 139L267 140L266 139M58 140L59 141L58 140M267 140L268 141L267 140z"/>
<path style="fill:#ac6747; stroke:none;" d="M57 141L58 142L57 141M268 141L269 142L268 141M56 142L57 143L56 142M244 143L244 144L252 143L259 149C255.013 143.407 250.762 141.007 244 143M269 142L270 143L269 142M55 143L56 144L55 143M216 144L216 145L219 148L224 147L232 144L216 144z"/>
<path style="fill:#692516; stroke:none;" d="M224 147L219 148C217.476 142.79 212.277 143.949 209 147L202 145L202 146L204 146L204 147L183 146L183 153L179 152L179 156L176 156L180 150C176.538 146.867 172.219 147.875 173 153L164 152L164 153L171 154L161 154L163 151L153 148L133 151L139 156L140 156L157 156L147 160L148 157L144 162L143 160L142 160L139 164L140 159L136 164L134 164L132 158L136 158L136 157L134 156L132 158L127 156L131 161L125 160L128 164L128 165C119.851 166.78 125.328 171.816 130 174L123 177L123 176L127 174L122 173C120.562 175.586 119.673 176.527 117 175L116 175L116 178L115 178L109 178L110 175C106.474 173.825 104.489 174.556 104 177L94 175C95.917 179.69 97.971 181.896 103 183L103 184L99 184L100 187L104 185L95 191C98.5219 189.966 101.57 190.102 104 193C100.606 191.759 95.9275 190.672 95 195L101 196L105 195L103 198L112 200L112 201L103 201L102 198L98 198L94 201C93.231 197.411 91.1374 198.166 88 199L90 204L116 210L122 209L118 211L120 227L112 227L114 217L106 217L106 215L115 214L115 213L99 213L99 214L105 214L105 215L86 210L87 214L80 208L75 211L78 205L81 207L77 202L81 202L81 201L76 200L76 208L73 206L64 204L69 199C64.2398 196.046 61.056 195.148 56 198L57 202L51 206L57 210L57 205L65 208L64 213L54 212C52.3828 209.74 51.0272 208.699 49 211L48 211L43 206L43 199C36.7262 202.517 36.5354 210.378 35.6404 216.961C33.2303 234.688 35.4245 252.667 39 270L47 270L50 275L42 274L42 275L46 277L42 276C42.43 280.894 43.5436 285.464 48 288C47.512 300.481 63.7051 296.815 72 297L72 298L67 299L66 305C73.1997 309.33 80.8161 304.456 78 296L93 302L92 306L97 311L91 307C85.8251 311.672 77.8552 314.571 71 313L72 309L71 309L63 316L63 317C73.1066 327.107 82.7925 336.975 95 344.575C137.611 371.103 183.198 365.87 227 347L216.924 337.585L213.262 329.028L200 325L199 325L188 326L185 331L188 332L188 333L183 334L186 335L186 336L182 336L181 348L173 349L170 356L169 347L172 346C170.428 337.467 177.381 324.709 181 317L177 317L177 316L180 316L180 315L177 313C180.333 313.356 182.033 313.404 183 310L188 310L188 305C184.963 302.186 184.517 294.587 190.028 293.722C193.544 293.17 196.739 296.048 200 296.667C203.098 297.255 207.367 294.68 208 299L211 298L200 306C200.879 312.652 211.538 318.185 215.806 310.772C218.056 306.862 215.003 298.592 215 294C198.138 294.426 210.735 275.33 222 289L226 288C224.844 284.016 224.186 280.435 220 279L225 273C222.846 268.367 218.465 267.823 215.931 263.946C213.407 260.083 218.723 257.219 221.997 257.641C229.749 258.64 231.262 267.251 237.172 269.386C246.744 272.843 263.054 269.589 271 276L278 275C280.341 265.146 287.552 257.542 290.367 248C294.181 235.066 290.647 220.024 289 207L287 209L281 208L285 205L285 207L288 206C286.75 196.723 281.979 174.954 272 172L274 175L263 176L267 175L268 172C264.122 171.875 261.928 171.498 260 168L268 171L269 171L273 170C270.007 159.83 260.525 149.006 252 143L236 145C233.045 141.749 226.2 143.604 224 147z"/>
<path style="fill:#ac6747; stroke:none;" d="M236 145L243 144L236 145M270 143L271 144L270 143z"/>
<path style="fill:#fefefd; stroke:none;" d="M178 144L179 145L178 144z"/>
<path style="fill:#ac6747; stroke:none;" d="M199 144L199 145L204 147L204 146L202 146L202 145L209 147L212 145L199 144z"/>
<path style="fill:#f5e1b6; stroke:none;" d="M54 145L55 146L54 145z"/>
<path style="fill:#ac6747; stroke:none;" d="M43 188L46 187L47 191C40.4939 191.505 39.788 196.505 38 202L43 199L43 206L48 211L49 211L54 212L64 213L65 208L57 205L57 210L51 206L57 202L56 198C61.4866 195.708 63.7546 196.708 69 199L64 204L73 206L76 208L76 200L81 201L81 202L77 202L81 207L78 205L75 211L80 208L87 214L86 210L105 215L105 214L99 214L99 213L115 213L115 214L106 215L106 217L114 217L112 227L120 227L118 211L122 209L116 210L90 204L88 199L94 201L98 198L102 198L103 201L112 201L112 200L103 198L105 195L101 196L95 195C97.2719 191.499 100.226 192.114 104 193L103 190L95 191L104 185L99 184L103 184L103 183L94 175L104 177L110 175L109 178L115 178L116 178L116 175L117 175C119.372 177.617 121.065 175.842 122 173L127 174L123 176L123 177L130 174C125.733 171.336 120.846 167.655 128 165L128 164L125 160L131 161L127 156L134 156L136 157L136 158L132 158L134 164L136 164L140 159L139 164L142 160L143 160L144 162L148 157L147 160C151.356 159.303 155.111 160.684 157 156L140 156L139 156L133 151C140.878 151.863 145.92 151.51 153 148C155.581 151.869 158.707 151.146 163 151L161 154L171 154L164 153L164 152L173 153C173.205 148.473 175.979 147.589 180 149L180 150L176 156L179 156L179 152L183 153L183 146L198 146C189.141 142.282 176.405 145.984 167 146C141.419 146.043 113.289 146.95 88 150.572C80.7524 151.61 70.7839 149.29 64.1736 153.027C54.5824 158.45 45.9372 177.804 43 188z"/>
<path style="fill:#f5e1b6; stroke:none;" d="M271 145L272 146L271 145M53 146L54 147L53 146z"/>
<path style="fill:#ac6747; stroke:none;" d="M213 146L213 147L216 147L213 146M227 146L228 147L227 146M229 146L230 147L229 146M240 146L241 147L240 146M249 146L250 147L249 146z"/>
<path style="fill:#f5e1b6; stroke:none;" d="M272 146L273 147L272 146z"/>
<path style="fill:#ac6747; stroke:none;" d="M52 147L53 148L52 147z"/>
<path style="fill:#692516; stroke:none;" d="M155 148L155 149L164 149L155 148M165 147L165 148L168 148L168 149L165 149L165 150L171 150L165 147z"/>
<path style="fill:#ac6747; stroke:none;" d="M199 147L200 148L199 147M273 147L274 148L273 147M51 148L52 149L51 148M184 148L184 152L189 151L184 148M194 148L194 149L197 150L194 148M204 148L206 152L207 152L207 148L204 148z"/>
<path style="fill:#506c4a; stroke:none;" d="M256 148L257 149L256 148z"/>
<path style="fill:#ac6747; stroke:none;" d="M274 148L275 149L274 148M210.667 149.333L211.333 149.667L210.667 149.333M213 149L214 150L213 149z"/>
<path style="fill:#f5e1b6; stroke:none;" d="M259 149L260 150L259 149M50 150L51 151L50 150z"/>
<path style="fill:#692516; stroke:none;" d="M131 150L130 154L131 154L131 150z"/>
<path style="fill:#ac6747; stroke:none;" d="M148 152L148 153L154 151L148 152M191 150L192 151L191 150M194 150L193 152L195 152L194 150z"/>
<path style="fill:#f5e1b6; stroke:none;" d="M260 150L261 151L260 150M275 150L276 151L275 150M49 151L50 152L49 151z"/>
<path style="fill:#692516; stroke:none;" d="M126 151L128 153L126 151z"/>
<path style="fill:#ac6747; stroke:none;" d="M174 151L175 152L174 151z"/>
<path style="fill:#506c4a; stroke:none;" d="M177 151L178 152L177 151z"/>
<path style="fill:#ac6747; stroke:none;" d="M201.333 151.667L201.667 152.333L201.333 151.667M224 151L226 153L224 151z"/>
<path style="fill:#506c4a; stroke:none;" d="M225 151L226 152L225 151M229 151L231 153L229 151z"/>
<path style="fill:#f5e1b6; stroke:none;" d="M261 151L262 152L261 151M276 151L277 152L276 151z"/>
<path style="fill:#ac6747; stroke:none;" d="M48 152L49 153L48 152z"/>
<path style="fill:#f5e1b6; stroke:none;" d="M63 152L64 153L63 152z"/>
<path style="fill:#ac6747; stroke:none;" d="M137 152L137 154L139 152L137 152M155 152L156 153L155 152M189 152L190 153L189 152M197 154L200 152L197 154z"/>
<path style="fill:#506c4a; stroke:none;" d="M211.667 152.333L212.333 152.667L211.667 152.333z"/>
<path style="fill:#ac6747; stroke:none;" d="M229 152L230 153L229 152z"/>
<path style="fill:#506c4a; stroke:none;" d="M233.667 152.333L234.333 152.667L233.667 152.333z"/>
<path style="fill:#f5e1b6; stroke:none;" d="M262 152L263 153L262 152z"/>
<path style="fill:#ac6747; stroke:none;" d="M277 152L278 153L277 152M157.667 153.333L158.333 153.667L157.667 153.333M205 153L206 154L205 153z"/>
<path style="fill:#506c4a; stroke:none;" d="M215 153L216 154L215 153z"/>
<path style="fill:#ac6747; stroke:none;" d="M262 153L263 154L262 153z"/>
<path style="fill:#f5e1b6; stroke:none;" d="M47 154L48 155L47 154z"/>
<path style="fill:#692516; stroke:none;" d="M100 154L101 155L100 154M111 156L111 157L123 154L111 156z"/>
<path style="fill:#ac6747; stroke:none;" d="M172 156L175 154L172 156M182 154L183 155L182 154M213.333 154.667L213.667 155.333L213.333 154.667M263 154L264 155L263 154z"/>
<path style="fill:#f5e1b6; stroke:none;" d="M278 154L279 155L278 154z"/>
<path style="fill:#ac6747; stroke:none;" d="M46 155L47 156L46 155z"/>
<path style="fill:#f5e1b6; stroke:none;" d="M61 155L62 156L61 155z"/>
<path style="fill:#692516; stroke:none;" d="M106 155L102 162L109 159L108 155L106 155z"/>
<path style="fill:#506c4a; stroke:none;" d="M188 155L189 156L188 155z"/>
<path style="fill:#ac6747; stroke:none;" d="M201 155L201 156L204 156L201 155M264 155L265 156L264 155M279 155L280 156L279 155z"/>
<path style="fill:#f5e1b6; stroke:none;" d="M60 156L61 157L60 156z"/>
<path style="fill:#692516; stroke:none;" d="M101.667 156.333L102.333 156.667L101.667 156.333M109 156L110 157L109 156M137.333 156.667L137.667 157.333L137.333 156.667z"/>
<path style="fill:#f5e1b6; stroke:none;" d="M265 156L267 158L265 156M45 157L46 158L45 157M77 157L78 158L77 157M84.6667 157.333L85.3333 157.667L84.6667 157.333z"/>
<path style="fill:#ac6747; stroke:none;" d="M158.667 157.333L159.333 157.667L158.667 157.333M161 160L166 158L161 160z"/>
<path style="fill:#506c4a; stroke:none;" d="M170.667 157.333L171.333 157.667L170.667 157.333z"/>
<path style="fill:#ac6747; stroke:none;" d="M185 157L186 158L185 157z"/>
<path style="fill:#506c4a; stroke:none;" d="M200 157L201 158L200 157z"/>
<path style="fill:#ac6747; stroke:none;" d="M265 157L266 158L265 157z"/>
<path style="fill:#f5e1b6; stroke:none;" d="M280 157L281 158L280 157z"/>
<path style="fill:#ac6747; stroke:none;" d="M44 158L45 159L44 158z"/>
<path style="fill:#692516; stroke:none;" d="M118.667 158.333L119.333 158.667L118.667 158.333M121.667 158.333L122.333 158.667L121.667 158.333z"/>
<path style="fill:#506c4a; stroke:none;" d="M158 158L159 159L158 158z"/>
<path style="fill:#ac6747; stroke:none;" d="M167 158L167 165L181 166L179 163L191 163L194 168L192 170C195.787 171.694 200.201 172.631 203 169L192 165L196 164L191 162L191 160L194 159L200 162C195.423 155.566 190.874 160.347 185 160.567C181.556 160.696 178.627 158.725 175 159L176 164L175 164L173 160L169 161L167 158z"/>
<path style="fill:#506c4a; stroke:none;" d="M174.667 158.333L175.333 158.667L174.667 158.333z"/>
<path style="fill:#ac6747; stroke:none;" d="M254.667 158.333L255.333 158.667L254.667 158.333z"/>
<path style="fill:#506c4a; stroke:none;" d="M254 159L254 160L257 161L257 158L254 159z"/>
<path style="fill:#ac6747; stroke:none;" d="M281 158L282 159L281 158z"/>
<path style="fill:#f5e1b6; stroke:none;" d="M58 159L59 160L58 159z"/>
<path style="fill:#692516; stroke:none;" d="M94.3333 159.667L94.6667 160.333L94.3333 159.667M100 159L101 160L100 159M114 159L115 163L118 162L118 165L119 165L121 163L122 163L122 165L124 165C122.404 161.386 120.939 160.251 117 161L114 159z"/>
<path style="fill:#506c4a; stroke:none;" d="M170 159L170 160L173 160L170 159z"/>
<path style="fill:#ac6747; stroke:none;" d="M235 159L238 161L235 159M267 159L268 160L267 159z"/>
<path style="fill:#f5e1b6; stroke:none;" d="M43 160L44 161L43 160M57 160L58 161L57 160z"/>
<path style="fill:#692516; stroke:none;" d="M67 161L67 162L69 164L70 164L72 162L71 165L74 164C74.4851 166.928 77.5531 165.983 79 164L76 165L74 160L67 161z"/>
<path style="fill:#506c4a; stroke:none;" d="M161 160L162 161L161 160z"/>
<path style="fill:#692516; stroke:none;" d="M169.667 160.333L170.333 160.667L169.667 160.333z"/>
<path style="fill:#ac6747; stroke:none;" d="M202 160L201 164L203 164L200 167L200 168L206 165L205 171L212 174L214 166C217.626 168.332 221.446 167.171 225 165L222 164L222 163L226 163L226 162L220 160L221 163L215 166L216 162L211 160L211 161L212 165L208 164L211 168L207 168L210 161L210 160L207 163L202 160M230 161L230 162L233 163L233 160L230 161M257 160L258 161L257 160z"/>
<path style="fill:#f5e1b6; stroke:none;" d="M268 160L269 161L268 160M282 160L283 161L282 160z"/>
<path style="fill:#ac6747; stroke:none;" d="M42 161L43 162L42 161z"/>
<path style="fill:#692516; stroke:none;" d="M65 161L63 169L64 171L70 170L65 166L65 161M110 161L110 162L113 162L110 161z"/>
<path style="fill:#ac6747; stroke:none;" d="M146 164L152 164C150.053 161.418 147.993 161.465 146 164z"/>
<path style="fill:#506c4a; stroke:none;" d="M216 161L218 163L218 161L216 161M252 161L253 162L252 161z"/>
<path style="fill:#ac6747; stroke:none;" d="M283 161L284 162L283 161z"/>
<path style="fill:#f5e1b6; stroke:none;" d="M42 162L43 163L42 162z"/>
<path style="fill:#692516; stroke:none;" d="M88 162L87 166L84 165L85 170L86 171L94 171L102 168L114 171L113 168L122 172C119.748 166.797 106.901 161.533 103 167C99.6303 162.336 93.4234 162.495 88 162z"/>
<path style="fill:#ac6747; stroke:none;" d="M153 162L154 163L153 162z"/>
<path style="fill:#692516; stroke:none;" d="M216 162L215 166L216 162z"/>
<path style="fill:#506c4a; stroke:none;" d="M230.667 162.333L231.333 162.667L230.667 162.333z"/>
<path style="fill:#ac6747; stroke:none;" d="M258 162L259 163L258 162M269 162L270 163L269 162z"/>
<path style="fill:#f5e1b6; stroke:none;" d="M283 162L284 163L283 162z"/>
<path style="fill:#ac6747; stroke:none;" d="M41 163L42 164L41 163z"/>
<path style="fill:#f5e1b6; stroke:none;" d="M55 163L56 164L55 163z"/>
<path style="fill:#692516; stroke:none;" d="M203.667 163.333L204.333 163.667L203.667 163.333z"/>
<path style="fill:#ac6747; stroke:none;" d="M235 163L242 168L235 163z"/>
<path style="fill:#f5e1b6; stroke:none;" d="M270 163L271 164L270 163z"/>
<path style="fill:#ac6747; stroke:none;" d="M284 163L285 164L284 163z"/>
<path style="fill:#692516; stroke:none;" d="M81 164L82 167L80 167L81 170L82 170L83 164L81 164z"/>
<path style="fill:#ac6747; stroke:none;" d="M89 167L93 164L89 167M129 164L130 167L127 166L127 170L127 171L135 166L132 167L129 164M141 164L142 165L141 164z"/>
<path style="fill:#692516; stroke:none;" d="M219 164L220 165L219 164z"/>
<path style="fill:#f5e1b6; stroke:none;" d="M40 165L41 166L40 165z"/>
<path style="fill:#ac6747; stroke:none;" d="M95 166L98 168L97 165L95 166M226 165L227 166L226 165M271 165L272 166L271 165z"/>
<path style="fill:#f5e1b6; stroke:none;" d="M285 165L286 166L285 165z"/>
<path style="fill:#ac6747; stroke:none;" d="M39 166L40 167L39 166z"/>
<path style="fill:#f5e1b6; stroke:none;" d="M53 166L54 167L53 166z"/>
<path style="fill:#692516; stroke:none;" d="M55 166L56 167L55 166z"/>
<path style="fill:#ac6747; stroke:none;" d="M152 167L152 173L155 170L167 169C169.656 174.216 172.983 172.832 178 172L173 167L167 169L168 166L152 167M197 166L198 167L197 166M229 166L229 170L227 168L226 168L233 175L229 170L237 171L237 170L229 166z"/>
<path style="fill:#f5e1b6; stroke:none;" d="M272 166L273 167L272 166z"/>
<path style="fill:#ac6747; stroke:none;" d="M286 166L287 167L286 166z"/>
<path style="fill:#f5e1b6; stroke:none;" d="M39 167L40 168L39 167z"/>
<path style="fill:#ac6747; stroke:none;" d="M66 167L67 168L66 167z"/>
<path style="fill:#692516; stroke:none;" d="M77 167L76 170L79 171L77 167z"/>
<path style="fill:#ac6747; stroke:none;" d="M105.333 167.667L105.667 168.333L105.333 167.667M137 170L135 168L136 172L130 172L131 177L133 176L134 179L133 175L145 171L145 167L137 170M146 170L151 170C149.18 167.673 147.731 167.603 146 170M245 167L246 168L245 167M272 167L273 168L272 167z"/>
<path style="fill:#f5e1b6; stroke:none;" d="M286 167L287 168L286 167z"/>
<path style="fill:#ac6747; stroke:none;" d="M38 168L39 169L38 168z"/>
<path style="fill:#f5e1b6; stroke:none;" d="M52 168L53 169L52 168z"/>
<path style="fill:#692516; stroke:none;" d="M73 168L75 170L73 168z"/>
<path style="fill:#ac6747; stroke:none;" d="M87 168L88 169L87 168M116 168L119 171L116 168z"/>
<path style="fill:#506c4a; stroke:none;" d="M215 168L216 169L215 168z"/>
<path style="fill:#ac6747; stroke:none;" d="M258 168L259 169L258 168M260 168C261.343 172.046 264.065 171.953 268 172L267 175C264.816 173.702 264.307 173.789 263 176L274 175L272 172L276 173L274 168L269 171L260 168M287 168L288 169L287 168z"/>
<path style="fill:#f5e1b6; stroke:none;" d="M38 169L39 170L38 169M51 169L52 170L51 169z"/>
<path style="fill:#692516; stroke:none;" d="M56.6667 169.333L57.3333 169.667L56.6667 169.333z"/>
<path style="fill:#ac6747; stroke:none;" d="M107 169L108 170L107 169M124 169L125 170L124 169z"/>
<path style="fill:#f5e1b6; stroke:none;" d="M158 169L159 170L158 169z"/>
<path style="fill:#ac6747; stroke:none;" d="M180 169L180 176L188 179L185 176L187 174L187 173L186 169L180 169M247 169L247 175L251 176L254 174L254 170L247 169z"/>
<path style="fill:#f5e1b6; stroke:none;" d="M274 169L275 170L274 169M287 169L288 170L287 169z"/>
<path style="fill:#ac6747; stroke:none;" d="M37 170L38 171L37 170M187 170L187 171L192 172L187 170z"/>
<path style="fill:#506c4a; stroke:none;" d="M213 170L214 171L213 170z"/>
<path style="fill:#ac6747; stroke:none;" d="M288 170L289 171L288 170z"/>
<path style="fill:#f5e1b6; stroke:none;" d="M37 171L38 172L37 171M50 171L51 172L50 171z"/>
<path style="fill:#506c4a; stroke:none;" d="M205 171L205 172L208 172L205 171z"/>
<path style="fill:#ac6747; stroke:none;" d="M222 171L223 172L222 171z"/>
<path style="fill:#506c4a; stroke:none;" d="M223 171L224 172L223 171M227 171L228 172L227 171z"/>
<path style="fill:#ac6747; stroke:none;" d="M232 171L233 172L232 171M242 171L245 175L242 171z"/>
<path style="fill:#f5e1b6; stroke:none;" d="M275 171L276 172L275 171M288 171L289 172L288 171z"/>
<path style="fill:#ac6747; stroke:none;" d="M36 172L37 173L36 172z"/>
<path style="fill:#f5e1b6; stroke:none;" d="M67 172L68 173L67 172M70 172L71 173L70 172M92 172L93 173L92 172z"/>
<path style="fill:#506c4a; stroke:none;" d="M181 172L182 173L181 172z"/>
<path style="fill:#ac6747; stroke:none;" d="M206 172L206 174L208 174L208 172L206 172z"/>
<path style="fill:#506c4a; stroke:none;" d="M214.667 172.333L215.333 172.667L214.667 172.333z"/>
<path style="fill:#ac6747; stroke:none;" d="M235 172L238 177L211 179L212 182L206 180L206 179L209 178L209 177L201 177L203 184L216 187L216 183L219 184L230 180L230 181L228 182L241 178L241 174L235 172M255 172L257 174L257 172L255 172M289 172L290 173L289 172z"/>
<path style="fill:#f5e1b6; stroke:none;" d="M36 173L37 174L36 173M49 173L50 174L49 173z"/>
<path style="fill:#692516; stroke:none;" d="M59 173L60 174L59 173M61 173L66 177L67 176L61 173z"/>
<path style="fill:#f5e1b6; stroke:none;" d="M77.6667 173.333L78.3333 173.667L77.6667 173.333z"/>
<path style="fill:#ac6747; stroke:none;" d="M201 175L204 173L201 175M259 173L258 176L262 176L259 173z"/>
<path style="fill:#f5e1b6; stroke:none;" d="M276 173L277 174L276 173M289 173L290 174L289 173z"/>
<path style="fill:#ac6747; stroke:none;" d="M35 174L36 175L35 174M290 174L291 175L290 174z"/>
<path style="fill:#f5e1b6; stroke:none;" d="M35 175L36 176L35 175M48 175L49 176L48 175M74 175L75 176L74 175z"/>
<path style="fill:#ac6747; stroke:none;" d="M222 177L225 177L223 175L222 177M248 176L242 178L242 179L245 182L235 182L235 183L239 182C241.341 186.433 252.876 184.687 255 181L246 179L253 180L257 176L248 176z"/>
<path style="fill:#f5e1b6; stroke:none;" d="M277 175L278 176L277 175M290 175L291 176L290 175z"/>
<path style="fill:#ac6747; stroke:none;" d="M34 176L35 177L34 176M107.333 176.667L107.667 177.333L107.333 176.667M173 176L176 178L173 176M291 176L292 177L291 176z"/>
<path style="fill:#f5e1b6; stroke:none;" d="M34 177L35 178L34 177M47 177L48 178L47 177z"/>
<path style="fill:#ac6747; stroke:none;" d="M157 177C156.899 183.544 163.031 183.074 164 177L157 177M216 177L217 178L216 177M256 177L256 179L258 177L256 177M259 178L259 179L262 180L262 177L259 178M265 183L266 183L269 181L269 178C265.335 178.166 264.468 179.414 265 183z"/>
<path style="fill:#f5e1b6; stroke:none;" d="M278 177L279 178L278 177M291 177L292 178L291 177z"/>
<path style="fill:#ac6747; stroke:none;" d="M33 178L34 179L33 178z"/>
<path style="fill:#692516; stroke:none;" d="M90 178L93 180L91 183L98 183L90 178z"/>
<path style="fill:#ac6747; stroke:none;" d="M109 184C110.784 188.437 114.295 188.594 118 186L121 188L121 189L115 189C118.541 193.986 122.707 189.195 127.486 190.142C134.806 191.592 138.606 196 147 196C146.931 199.292 147.859 200.054 151 201L148 196L148 195L155 198L163 195L168 198L168 199L162 199L180 210L181 208L181 207L176 205L184 207L176 200L183 196L183 199L186 196L188 196L189 203L184 203L184 204C188.141 203.963 191.929 202.836 194 207L200 207L200 206L188 196L190 193L190 192L185 192L182 195L180 190L178 192L177 192L175 190C175 194.888 168.634 190.716 167 189L167 192L147 191L147 190L149 187L145 186L145 187L145 188L148 188L142 188L146 191L146 195L143 194L144 192L141 187L138 189C137.446 185.458 136.707 184.088 133 184L133 185L136 185L136 186L134 189L132 183L132 182L127 183L127 186L126 186L126 182L125 182L124 182L121 184L121 179L109 184M166 178L166 180L168 178L166 178M177 178L177 182C181.718 182.306 187.034 185.931 189 180L178 180L178 179L180 179L177 178M197.667 178.333L198.333 178.667L197.667 178.333M272 178L276 181L275 178L272 178M292 178L293 179L292 178z"/>
<path style="fill:#f5e1b6; stroke:none;" d="M33 179L34 180L33 179M46 179L47 180L46 179z"/>
<path style="fill:#692516; stroke:none;" d="M58.3333 179.667L58.6667 180.333L58.3333 179.667M60 179L60 181L62 179L60 179M86.6667 179.333L87.3333 179.667L86.6667 179.333z"/>
<path style="fill:#ac6747; stroke:none;" d="M135.333 179.667L135.667 180.333L135.333 179.667M191 179L192 180L191 179M279.333 179.667L279.667 180.333L279.333 179.667z"/>
<path style="fill:#f5e1b6; stroke:none;" d="M292 179L293 180L292 179z"/>
<path style="fill:#692516; stroke:none;" d="M51 180L52 181L51 180M76 180L76 181L80 181L76 180z"/>
<path style="fill:#ac6747; stroke:none;" d="M109 180L112 183L109 180z"/>
<path style="fill:#f5e1b6; stroke:none;" d="M160 180L161 181L160 180z"/>
<path style="fill:#ac6747; stroke:none;" d="M201 180L202 181L201 180M32 181L33 182L32 181z"/>
<path style="fill:#f5e1b6; stroke:none;" d="M45 181L46 182L45 181z"/>
<path style="fill:#ac6747; stroke:none;" d="M153 181L156 184L157 183L153 181M165 181L166 182L165 181z"/>
<path style="fill:#692516; stroke:none;" d="M184 181L185 182L184 181z"/>
<path style="fill:#ac6747; stroke:none;" d="M193 181L195 185L199 184L199 183L193 181z"/>
<path style="fill:#692516; stroke:none;" d="M213 181L214 182L213 181z"/>
<path style="fill:#f5e1b6; stroke:none;" d="M280 181L281 182L280 181z"/>
<path style="fill:#ac6747; stroke:none;" d="M293 181L294 182L293 181z"/>
<path style="fill:#f5e1b6; stroke:none;" d="M32 182L33 183L32 182z"/>
<path style="fill:#692516; stroke:none;" d="M47 182L47 183L52 184L52 183L47 182M54 184L57 184L56 182L54 184M79 183L79 184L82 185L82 187L79 188L78 185L74 185L74 186L77 187L75 190L85 189L83 182L79 183M87.6667 182.333L88.3333 182.667L87.6667 182.333z"/>
<path style="fill:#ac6747; stroke:none;" d="M105 182L106 183L105 182M138.333 182.667L138.667 183.333L138.333 182.667M175 182L176 183L175 182z"/>
<path style="fill:#f5e1b6; stroke:none;" d="M293 182L294 183L293 182z"/>
<path style="fill:#ac6747; stroke:none;" d="M31 183L32 184L31 183z"/>
<path style="fill:#f5e1b6; stroke:none;" d="M44 183L45 184L44 183z"/>
<path style="fill:#692516; stroke:none;" d="M62 183L61 187C64.4789 188.317 67.1692 188.881 66 193L74 189L74 188L62 183M74.6667 183.333L75.3333 183.667L74.6667 183.333z"/>
<path style="fill:#ac6747; stroke:none;" d="M107 183L108 184L107 183M262.333 183.667L262.667 184.333L262.333 183.667z"/>
<path style="fill:#f5e1b6; stroke:none;" d="M281 183L282 184L281 183z"/>
<path style="fill:#ac6747; stroke:none;" d="M294 183L295 184L294 183z"/>
<path style="fill:#f5e1b6; stroke:none;" d="M31 184L32 185L31 184z"/>
<path style="fill:#692516; stroke:none;" d="M89 184L87 187L89 184z"/>
<path style="fill:#ac6747; stroke:none;" d="M200 184L200 189L193 189C195.505 191.871 198.917 190.478 202 189L203 185L200 184M230 184L232 186L232 184L230 184M271 184L272 185L271 184z"/>
<path style="fill:#506c4a; stroke:none;" d="M281 184L282 185L281 184z"/>
<path style="fill:#f5e1b6; stroke:none;" d="M294 184L295 185L294 184M43 185L44 186L43 185z"/>
<path style="fill:#692516; stroke:none;" d="M54 185L54 186L56 186L56 187L49 187L49 188L70 195L70 194L62 191L66 191L66 190L52 189L52 188L59 186L59 185L54 185M95 185L96 186L95 185z"/>
<path style="fill:#506c4a; stroke:none;" d="M220 185L221 186L220 185z"/>
<path style="fill:#ac6747; stroke:none;" d="M224 185L231 188L231 187L224 185M265 185L265 186L268 186L265 185z"/>
<path style="fill:#f5e1b6; stroke:none;" d="M282 185L283 186L282 185z"/>
<path style="fill:#ac6747; stroke:none;" d="M30 186L31 187L30 186z"/>
<path style="fill:#692516; stroke:none;" d="M71 186L72 187L71 186M127 186L128 187L127 186z"/>
<path style="fill:#ac6747; stroke:none;" d="M161 186L162 187L161 186M169 186L170 187L169 186M193 186L194 187L193 186M195 186L198 188L198 187L195 186M204 190L210 189L210 187L204 190M282 186L283 187L282 186M295 186L296 187L295 186z"/>
<path style="fill:#f5e1b6; stroke:none;" d="M30 187L31 188L30 187z"/>
<path style="fill:#692516; stroke:none;" d="M44 187L42 191L47 191L46 187L44 187M59 187L60 188L59 187z"/>
<path style="fill:#f5e1b6; stroke:none;" d="M125 187L126 188L125 187z"/>
<path style="fill:#692516; stroke:none;" d="M129.667 187.333L130.333 187.667L129.667 187.333z"/>
<path style="fill:#ac6747; stroke:none;" d="M151 187L151 188L154 188L151 187M243 187L242 190L245 190L243 187M250.333 187.667L250.667 188.333L250.333 187.667z"/>
<path style="fill:#f5e1b6; stroke:none;" d="M295 187L296 188L295 187M42 188L43 189L42 188z"/>
<path style="fill:#692516; stroke:none;" d="M122 188L123 189L122 188z"/>
<path style="fill:#ac6747; stroke:none;" d="M157.333 188.667L157.667 189.333L157.333 188.667M189 188L190 189L189 188M212 188L213 189L212 188M217 188L217 189L221 190L221 189L217 188M239.667 188.333L240.333 188.667L239.667 188.333z"/>
<path style="fill:#f5e1b6; stroke:none;" d="M283 188L284 189L283 188z"/>
<path style="fill:#ac6747; stroke:none;" d="M29 189L30 190L29 189M42 189L43 190L42 189z"/>
<path style="fill:#692516; stroke:none;" d="M88.6667 189.333L89.3333 189.667L88.6667 189.333M135 189L135 190L140 192L135 189z"/>
<path style="fill:#ac6747; stroke:none;" d="M185 189L184 191L186 191L185 189M223 189L225 191L225 189L223 189M283 189L284 190L283 189M296 189L297 190L296 189z"/>
<path style="fill:#f5e1b6; stroke:none;" d="M29 190L30 191L29 190M41.3333 190.667L41.6667 191.333L41.3333 190.667z"/>
<path style="fill:#ac6747; stroke:none;" d="M105 190L105 191L108 191L105 190M229 190L229 191L232 191L229 190M233 193L237 191L233 193z"/>
<path style="fill:#f5e1b6; stroke:none;" d="M284.333 190.667L284.667 191.333L284.333 190.667M296 190L297 191L296 190z"/>
<path style="fill:#692516; stroke:none;" d="M81.6667 191.333L82.3333 191.667L81.6667 191.333M88 191L89 192L88 191z"/>
<path style="fill:#ac6747; stroke:none;" d="M190 194L190 195L193 194C193.377 195.986 196.025 199.696 196 196L206 200L210 202L209 199L201 196L204 196L205 191L190 194M205 193L205 194L221 198L216 195L217 192L212 191L215 194L210 194L211 191L205 193M248 191L249 192L248 191M256.667 191.333L257.333 191.667L256.667 191.333M263.667 191.333L264.333 191.667L263.667 191.333M28 192L29 193L28 192z"/>
<path style="fill:#692516; stroke:none;" d="M53 192L56 194L53 192M92 192L94 194L94 192L92 192z"/>
<path style="fill:#ac6747; stroke:none;" d="M127.667 192.333L128.333 192.667L127.667 192.333z"/>
<path style="fill:#692516; stroke:none;" d="M149 192L150 193L149 192M153 192L154 193L153 192M179 192L180 193L179 192z"/>
<path style="fill:#ac6747; stroke:none;" d="M218 192C219.947 194.582 222.007 194.535 224 192L221 194L220 194L218 192M225 192L225 193L232 193L225 192M239 192L243 198L241 193L249 198L250 198L251 195L239 192M266 192L270 197L270 193L266 192M284 192L285 193L284 192M297 192L298 193L297 192z"/>
<path style="fill:#f5e1b6; stroke:none;" d="M28 193L29 194L28 193M40.3333 193.667L40.6667 194.333L40.3333 193.667z"/>
<path style="fill:#692516; stroke:none;" d="M57 193L58 194L57 193M88 195L91 195L90 193L88 195z"/>
<path style="fill:#ac6747; stroke:none;" d="M106 193C108.274 196.302 113.067 198.7 117 198L118 199L117 202L119 199L123 200L123 201L120 203L126 203L124 200L129 202L126 199L126 198L128 196L135 198C128.902 191.523 114.262 193.355 106 193z"/>
<path style="fill:#692516; stroke:none;" d="M166 193L167 194L166 193M176.667 193.333L177.333 193.667L176.667 193.333M208 193L209 194L208 193z"/>
<path style="fill:#ac6747; stroke:none;" d="M254.667 193.333L255.333 193.667L254.667 193.333M273 193L274 194L273 193z"/>
<path style="fill:#f5e1b6; stroke:none;" d="M285.333 193.667L285.667 194.333L285.333 193.667M297 193L298 194L297 193z"/>
<path style="fill:#692516; stroke:none;" d="M159.667 194.333L160.333 194.667L159.667 194.333z"/>
<path style="fill:#f5e1b6; stroke:none;" d="M173 194L174 195L173 194z"/>
<path style="fill:#692516; stroke:none;" d="M186 194L187 195L186 194M198 194L199 195L198 194z"/>
<path style="fill:#ac6747; stroke:none;" d="M259 194L259 195L263 195L259 194M282 194L283 198L284 198L282 194M27 195L28 196L27 195z"/>
<path style="fill:#692516; stroke:none;" d="M48.6667 195.333L49.3333 195.667L48.6667 195.333z"/>
<path style="fill:#f5e1b6; stroke:none;" d="M52 195L53 196L52 195z"/>
<path style="fill:#692516; stroke:none;" d="M72 195L68 196L68 197L73 196L72 195z"/>
<path style="fill:#f5e1b6; stroke:none;" d="M75 195L77 198L75 195z"/>
<path style="fill:#692516; stroke:none;" d="M113 197L116 195L113 197M195 195L196 196L195 195z"/>
<path style="fill:#ac6747; stroke:none;" d="M275.667 195.333L276.333 195.667L275.667 195.333M285 195L286 196L285 195M298 195L299 196L298 195z"/>
<path style="fill:#f5e1b6; stroke:none;" d="M27 196L28 197L27 196M39.3333 196.667L39.6667 197.333L39.3333 196.667z"/>
<path style="fill:#692516; stroke:none;" d="M79 196L79 198L81 198L79 196M82 197L86 199L82 197z"/>
<path style="fill:#f5e1b6; stroke:none;" d="M88.3333 196.667L88.6667 197.333L88.3333 196.667z"/>
<path style="fill:#692516; stroke:none;" d="M118 196L118 198L120 198L118 196M184 196L185 197L184 196z"/>
<path style="fill:#ac6747; stroke:none;" d="M271 196L269 199L272 200L271 196z"/>
<path style="fill:#f5e1b6; stroke:none;" d="M286 196L287 197L286 196M298 196L299 197L298 196M46 197L46 206L50 197L46 197z"/>
<path style="fill:#ac6747; stroke:none;" d="M206.667 197.333L207.333 197.667L206.667 197.333M286 197L287 198L286 197M26.3333 198.667L26.6667 199.333L26.3333 198.667M59 198L59 199L63 199L59 198z"/>
<path style="fill:#f5e1b6; stroke:none;" d="M73 198L71 200L70 200C70.7389 203.378 72.3408 202.449 75 201L73 198z"/>
<path style="fill:#ac6747; stroke:none;" d="M159 198L160 199L159 198M179.667 198.333L180.333 198.667L179.667 198.333z"/>
<path style="fill:#f5e1b6; stroke:none;" d="M190 198L190 200L192 200L190 198z"/>
<path style="fill:#ac6747; stroke:none;" d="M232 198L232 200L234 200L232 198z"/>
<path style="fill:#506c4a; stroke:none;" d="M286 198L287 199L286 198z"/>
<path style="fill:#ac6747; stroke:none;" d="M299.333 198.667L299.667 199.333L299.333 198.667z"/>
<path style="fill:#f5e1b6; stroke:none;" d="M51.6667 199.333L52.3333 199.667L51.6667 199.333z"/>
<path style="fill:#ac6747; stroke:none;" d="M198 199L199 200L198 199M211.667 199.333L212.333 199.667L211.667 199.333M214 199C215.231 203.301 216.482 209.949 222 206L219 206L218 199L214 199z"/>
<path style="fill:#f5e1b6; stroke:none;" d="M26 200L27 201L26 200M38 200L39 201L38 200z"/>
<path style="fill:#ac6747; stroke:none;" d="M42 200L40 205L41 205L42 200M131.667 200.333L132.333 200.667L131.667 200.333M135 201L138 202L138 203L135 203L135 204L138 205L138 206L134 203L131 202L130 202L128 203L128 204L131 205L130 208L134 209L134 212L140 209L136 208L136 207L143 207L139 211L139 212L147 212L144 208L155 205L157 216L158 217L170 221L145 215L141 218C142.029 222.275 143.136 226.077 148 226L146 222L153 224C156.419 221.158 158.492 222.79 161 226L154 224L149 228L153 227L152 235C155.47 234.752 157.961 234.551 159 231L164 233L163 227L164 227L165 231L169 226L164 222L170 222L178 231C175.662 225.732 175.069 222.415 182 224L181 221L185 222L175 218L176 216L173 215L171 218C170.561 214.878 165.959 211.563 163 213L161 208L164 210L164 207L157 205L157 204L160 202L135 201M222 200L227 203L230 206L237 203L238 206L239 206L239 202L222 200M277 200L278 201L277 200M280 200L281 201L280 200z"/>
<path style="fill:#f5e1b6; stroke:none;" d="M287 200L288 201L287 200M299 200L300 201L299 200z"/>
<path style="fill:#ac6747; stroke:none;" d="M59 201L58 204C60.1579 203.022 60.5007 202.812 59 201z"/>
<path style="fill:#f5e1b6; stroke:none;" d="M86 201L87 202L86 201z"/>
<path style="fill:#ac6747; stroke:none;" d="M97.6667 201.333L98.3333 201.667L97.6667 201.333M180 201L181 202L180 201M244 201L244 203L246 203L244 201M287.333 201.667L287.667 202.333L287.333 201.667M25.3333 202.667L25.6667 203.333L25.3333 202.667z"/>
<path style="fill:#692516; stroke:none;" d="M83 202L86 205L83 202M174.667 202.333L175.333 202.667L174.667 202.333M191 202L192 203L191 202z"/>
<path style="fill:#ac6747; stroke:none;" d="M211 202L212 203L211 202M247 202L248 203L247 202M261 202L261 204L263 204L263 202L261 202M266 202L267 203L266 202M268 202L268 206L271 202L268 202M300.333 202.667L300.667 203.333L300.333 202.667z"/>
<path style="fill:#f5e1b6; stroke:none;" d="M37.3333 203.667L37.6667 204.333L37.3333 203.667M80 203L81 204L80 203z"/>
<path style="fill:#ac6747; stroke:none;" d="M104 203L105 204L104 203z"/>
<path style="fill:#f5e1b6; stroke:none;" d="M173 203L174 204L173 203z"/>
<path style="fill:#ac6747; stroke:none;" d="M202 203L207 210L206 214L211 217L209 214L214 215L209 210C211.86 211.061 214.221 212.629 215 209L218 210L218 209L214 210L208 209L208 208L210 207L202 203M222.333 203.667L222.667 204.333L222.333 203.667M241 203L242 204L241 203M252 203L254 206L254 203L252 203z"/>
<path style="fill:#f5e1b6; stroke:none;" d="M288.333 203.667L288.667 204.333L288.333 203.667M25.3333 204.667L25.6667 205.333L25.3333 204.667z"/>
<path style="fill:#ac6747; stroke:none;" d="M96 204L96 205L99 206L96 204M122 204L127 207L122 204z"/>
<path style="fill:#692516; stroke:none;" d="M132 204L133 205L132 204z"/>
<path style="fill:#ac6747; stroke:none;" d="M244 204L244 205L248 205L244 204M275.667 204.333L276.333 204.667L275.667 204.333z"/>
<path style="fill:#f5e1b6; stroke:none;" d="M300.333 204.667L300.667 205.333L300.333 204.667z"/>
<path style="fill:#ac6747; stroke:none;" d="M37 205L38 206L37 205M242 205L243 206L242 205M257 205L258 206L257 205M264 205L265 206L264 205M281 208L287 209L289 205L285 207L285 205L281 208z"/>
<path style="fill:#506c4a; stroke:none;" d="M37 206L38 207L37 206z"/>
<path style="fill:#692516; stroke:none;" d="M90.3333 206.667L90.6667 207.333L90.3333 206.667z"/>
<path style="fill:#ac6747; stroke:none;" d="M114 206L115 207L114 206z"/>
<path style="fill:#692516; stroke:none;" d="M143 206L144 207L143 206z"/>
<path style="fill:#ac6747; stroke:none;" d="M244 206L245 207L244 206z"/>
<path style="fill:#506c4a; stroke:none;" d="M264 206L265 207L264 206z"/>
<path style="fill:#ac6747; stroke:none;" d="M275 206L276 207L275 206M24.3333 207.667L24.6667 208.333L24.3333 207.667z"/>
<path style="fill:#f5e1b6; stroke:none;" d="M159 207L160 208L159 207z"/>
<path style="fill:#ac6747; stroke:none;" d="M221 211L227 209L229 215L235 213L235 212L230 213L228 210L228 209L230 207C225.839 207.049 223.112 207.17 221 211M240 207L241 208L240 207M301.333 207.667L301.667 208.333L301.333 207.667z"/>
<path style="fill:#f5e1b6; stroke:none;" d="M36 208L37 209L36 208z"/>
<path style="fill:#692516; stroke:none;" d="M99.3333 208.667L99.6667 209.333L99.3333 208.667z"/>
<path style="fill:#f5e1b6; stroke:none;" d="M161 208L163 213L164 213L161 208z"/>
<path style="fill:#ac6747; stroke:none;" d="M165 210L169 209L165 210M184 208L186 213L187 213L184 208z"/>
<path style="fill:#692516; stroke:none;" d="M227 208L228 209L227 208z"/>
<path style="fill:#f5e1b6; stroke:none;" d="M289 208L290 209L289 208M24.3333 209.667L24.6667 210.333L24.3333 209.667z"/>
<path style="fill:#ac6747; stroke:none;" d="M36 209L36 212L37 212L36 209z"/>
<path style="fill:#f5e1b6; stroke:none;" d="M54 209L55 210L54 209z"/>
<path style="fill:#ac6747; stroke:none;" d="M68 209L69 210L68 209M123 209L123 210L128 210L123 209z"/>
<path style="fill:#f5e1b6; stroke:none;" d="M133 209L134 210L133 209z"/>
<path style="fill:#ac6747; stroke:none;" d="M234 209L235 210L234 209M241.667 209.333L242.333 209.667L241.667 209.333M256 209L257 210L256 209M289 209L290 210L289 209z"/>
<path style="fill:#f5e1b6; stroke:none;" d="M301.333 209.667L301.667 210.333L301.333 209.667z"/>
<path style="fill:#692516; stroke:none;" d="M103 211L103 212L111 213L110 210L103 211z"/>
<path style="fill:#f5e1b6; stroke:none;" d="M134 210L135 211L134 210z"/>
<path style="fill:#ac6747; stroke:none;" d="M198.667 210.333L199.333 210.667L198.667 210.333z"/>
<path style="fill:#506c4a; stroke:none;" d="M289 210L290 211L289 210z"/>
<path style="fill:#ac6747; stroke:none;" d="M78 211L78 214L81 211L78 211M122 211L122 213L124 213L122 211M170 211L170 215L176 214L170 211M195 211L198 213L195 211M216 211L219 215L216 211M236 211L236 213L238 213L236 211M239 211C242.464 214.15 250.396 214.803 255 214L256 217L257 214L261 214L239 211M255 211L256 212L255 211M23 212L23 215L24 215L23 212M201.667 212.333L202.333 212.667L201.667 212.333M302 212L302 215L303 215L302 212z"/>
<path style="fill:#f5e1b6; stroke:none;" d="M35.3333 213.667L35.6667 214.333L35.3333 213.667z"/>
<path style="fill:#ac6747; stroke:none;" d="M51 214L56 218L46 217L57 221L60 215L51 214M130 213L131 215L132 215L133 213L130 213z"/>
<path style="fill:#692516; stroke:none;" d="M164 213L169 218L169 217L164 213z"/>
<path style="fill:#ac6747; stroke:none;" d="M177 215L183 218C181.791 215.764 179.832 214.422 183 214L177 215M266 213L268 216L266 213z"/>
<path style="fill:#f5e1b6; stroke:none;" d="M290.333 213.667L290.667 214.333L290.333 213.667z"/>
<path style="fill:#ac6747; stroke:none;" d="M87 214L86 217L87 214M92 214C92.8121 217.932 94.2142 219.639 98 221L100 217L92 214M118 214L119 215L118 214M126 214L126 215L129 215L126 214M184 214L184 215L191 217L184 214z"/>
<path style="fill:#506c4a; stroke:none;" d="M219 214L220 215L219 214z"/>
<path style="fill:#ac6747; stroke:none;" d="M284 214L287 217L284 214z"/>
<path style="fill:#f5e1b6; stroke:none;" d="M23 215L23 218L24 218L23 215z"/>
<path style="fill:#ac6747; stroke:none;" d="M35 215L35 218L36 218L35 215M39 215C40.7722 217.682 42.2278 217.682 44 215L39 215M64 215L65 216L64 215M78 215L79 216L78 215z"/>
<path style="fill:#f5e1b6; stroke:none;" d="M93 215L95 217L93 215z"/>
<path style="fill:#ac6747; stroke:none;" d="M192 215L193 216L192 215M233 215L233 216L237 218L233 215M243 215L246 217L243 215M290.333 215.667L290.667 216.333L290.333 215.667z"/>
<path style="fill:#f5e1b6; stroke:none;" d="M302 215L302 218L303 218L302 215z"/>
<path style="fill:#ac6747; stroke:none;" d="M68 216L73 218L68 216M75 216L78 219L77 216L75 216M121 216L128 220L121 216M249 216L250 217L249 216M264 216L265 217L264 216M60 219L63 217L60 219M102 217L102 219L104 219L102 217M197 217L198 218L197 217M212 217L213 218L212 217M258 217L259 218L258 217z"/>
<path style="fill:#506c4a; stroke:none;" d="M290 217L291 218L290 217z"/>
<path style="fill:#ac6747; stroke:none;" d="M108.667 218.333L109.333 218.667L108.667 218.333z"/>
<path style="fill:#f5e1b6; stroke:none;" d="M115 218L118 221L115 218z"/>
<path style="fill:#ac6747; stroke:none;" d="M130 218L131 219L130 218M132 218L132 220L134 220L134 218L132 218M186 219L186 224L188 220L192 219L198 221C194.319 217.578 190.673 218.683 186 219M224 218L225 219L224 218M251 218L252 219L251 218M202 219L200 220L200 221L200 222L204 219L202 219M206 219L206 220L211 222L209 225L213 221L206 219M239 219L240 220L239 219M22 220L22 224L23 224L22 220M35 220L36 221L35 220M42 220L42 223L38 229L49 232L46 229L46 228L48 226L43 224L48 225L48 223L43 223L44 220L42 220M67 220L68 221L67 220M78 220L79 221L78 220M130 220L131 221L130 220M136 220L138 223L139 222L138 220L136 220z"/>
<path style="fill:#692516; stroke:none;" d="M158 220L159 221L158 220M172 220L175 223L177 222L172 220z"/>
<path style="fill:#ac6747; stroke:none;" d="M224.333 220.667L224.667 221.333L224.333 220.667M262 220L263 221L262 220z"/>
<path style="fill:#f5e1b6; stroke:none;" d="M291 220L291 223L292 223L291 220z"/>
<path style="fill:#ac6747; stroke:none;" d="M303 220L303 224L304 224L303 220z"/>
<path style="fill:#f5e1b6; stroke:none;" d="M34 221L34 232L35 232L34 221z"/>
<path style="fill:#ac6747; stroke:none;" d="M59 221L60 222L59 221M70 221L71 222L70 221M125 221L127 223L127 221L125 221z"/>
<path style="fill:#692516; stroke:none;" d="M163 221L164 222L163 221z"/>
<path style="fill:#ac6747; stroke:none;" d="M232.333 221.667L232.667 222.333L232.333 221.667M269 221L272 223L269 221M86 222L87 225L90 224L90 223L86 222M129 222L129 223L133 224L133 223L129 222z"/>
<path style="fill:#f5e1b6; stroke:none;" d="M143 222L147 226L143 222z"/>
<path style="fill:#ac6747; stroke:none;" d="M204 222L204 226L205 226L206 222L204 222M257 222L257 224L259 224L259 222L257 222M264 222L266 224L264 222M63 223L70 236L72 236C75.0706 228.316 69.8777 225.099 63 223z"/>
<path style="fill:#f5e1b6; stroke:none;" d="M117 223L118 224L117 223M162 223L163 224L162 223z"/>
<path style="fill:#ac6747; stroke:none;" d="M191 223L200 232L191 223M216 223L219 225L216 223M291 223L291 230L292 230L291 223z"/>
<path style="fill:#f5e1b6; stroke:none;" d="M22 224L22 231L23 231L22 224z"/>
<path style="fill:#ac6747; stroke:none;" d="M35 224L36 225L35 224M238 224L239 225L238 224M240 224L246 227L240 224M276 224L275 227L276 224M278 224L279 225L278 224z"/>
<path style="fill:#f5e1b6; stroke:none;" d="M303 224L303 231L304 231L303 224M65 225L72 230L65 225z"/>
<path style="fill:#ac6747; stroke:none;" d="M180 225L180 229L184 229L180 225M220.667 225.333L221.333 225.667L220.667 225.333M232 225L233 226L232 225M265 225L265 228L266 228L265 225M58.6667 226.333L59.3333 226.667L58.6667 226.333M102 227L110 231C108.654 226.858 106.068 226.613 102 227z"/>
<path style="fill:#f5e1b6; stroke:none;" d="M164 226L167 229L164 226z"/>
<path style="fill:#ac6747; stroke:none;" d="M258 226L261 230L254 227L269 241C272.322 239.758 273.658 238.552 274 235L285 235L285 234L276 232L276 233L278 232L278 233L260 233L261 230L265 231L265 230L258 226M79 227L79 229L81 227L79 227M100 227L101 228L100 227z"/>
<path style="fill:#f5e1b6; stroke:none;" d="M154.333 227.667L154.667 228.333L154.333 227.667M159 227L161 231L162 231L162 227L159 227z"/>
<path style="fill:#ac6747; stroke:none;" d="M201 227L205 231L201 227M211.333 227.667L211.667 228.333L211.333 227.667M225 228L225 229L230 229L225 228M232.667 227.333L233.333 227.667L232.667 227.333M249 227L250 228L249 227M283.667 227.333L284.333 227.667L283.667 227.333M85 228L91 232L91 228L85 228M136 228L136 230L138 228L136 228M235 228L235 229L241 232L235 228M82 230L82 232L84 232L82 230M212 230L213 233L215 233L216 230L212 230M222.333 230.667L222.667 231.333L222.333 230.667z"/>
<path style="fill:#506c4a; stroke:none;" d="M291 230L292 231L291 230z"/>
<path style="fill:#ac6747; stroke:none;" d="M37.3333 231.667L37.6667 232.333L37.3333 231.667M52 231L52 232L55 233L52 231M226 231L227 232L226 231M267 231L267 232L273 232L267 231M34 232L34 236L35 236L34 232M105 232L108 235L105 232M219 232L219 233L222 234L221 237L224 236L219 232M231 232L234 234L234 233L231 232M116 233L117 234L116 233M165 233L163 237L167 241L168 241L169 237L170 237L175 243L177 235L174 237L165 233M194 233L195 234L194 233M256 233L257 234L256 233M121.333 234.667L121.667 235.333L121.333 234.667M123 234L124 235L123 234M191.667 234.333L192.333 234.667L191.667 234.333M196.667 234.333L197.333 234.667L196.667 234.333M211 234L211 236L213 236L211 234z"/>
<path style="fill:#f5e1b6; stroke:none;" d="M221 234L222 235L221 234z"/>
<path style="fill:#ac6747; stroke:none;" d="M245.333 234.667L245.667 235.333L245.333 234.667M253 234L254 237L255 237L253 234z"/>
<path style="fill:#f5e1b6; stroke:none;" d="M167 235L168 236L167 235z"/>
<path style="fill:#692516; stroke:none;" d="M170.667 235.333L171.333 235.667L170.667 235.333z"/>
<path style="fill:#ac6747; stroke:none;" d="M235 235L236 236L235 235M242 235L243 236L242 235z"/>
<path style="fill:#f5e1b6; stroke:none;" d="M34 236L35 237L34 236z"/>
<path style="fill:#ac6747; stroke:none;" d="M86 236L83 238L89 245L90 240L87 241L86 236M178 236L179 237L178 236M34 237L35 238L34 237M89 237L91 239L89 237M137 237L140 240L137 237z"/>
<path style="fill:#f5e1b6; stroke:none;" d="M171 237L173 239L171 237z"/>
<path style="fill:#692516; stroke:none;" d="M173 237L174 238L173 237z"/>
<path style="fill:#ac6747; stroke:none;" d="M191 237L192 238L191 237z"/>
<path style="fill:#f5e1b6; stroke:none;" d="M34 238L34 249L35 249L34 238z"/>
<path style="fill:#ac6747; stroke:none;" d="M76 238L77 240L78 240L79 238L76 238M128 238L131 241L128 238M151 238L150 239L150 241L153 242L152 247L146 247L147 251L151 250L150 248L155 247C155.144 242.725 155.012 240.165 151 238M177 238L179 240L179 238L177 238M193 238L194 239L193 238z"/>
<path style="fill:#506c4a; stroke:none;" d="M216 238L217 239L216 238z"/>
<path style="fill:#f5e1b6; stroke:none;" d="M22 239L22 246L23 246L22 239z"/>
<path style="fill:#ac6747; stroke:none;" d="M95.6667 239.333L96.3333 239.667L95.6667 239.333M215 239L219 243L219 240L215 239z"/>
<path style="fill:#506c4a; stroke:none;" d="M218 239L219 240L218 239z"/>
<path style="fill:#ac6747; stroke:none;" d="M239 239L240 240L239 239M246 239L246 240L249 240L246 239z"/>
<path style="fill:#506c4a; stroke:none;" d="M291 239L292 240L291 239z"/>
<path style="fill:#f5e1b6; stroke:none;" d="M303 239L303 246L304 246L303 239z"/>
<path style="fill:#ac6747; stroke:none;" d="M229 240L230 241L229 240M70 242L72 245L69 246L69 247L72 248L73 245C77.2916 247.795 79.1412 246.567 81 242L70 242M93 242L93 243L97 242L93 242M107 241L110 247L111 247L109 243L109 242L117 245C114.682 241.032 111.318 241.039 107 241M205 241L205 242L210 247L212 247C211.798 242.417 209.327 241.328 205 241z"/>
<path style="fill:#506c4a; stroke:none;" d="M218 241L219 242L218 241M224 241L225 242L224 241M291 241L292 242L291 241z"/>
<path style="fill:#ac6747; stroke:none;" d="M61 242L62 243L61 242z"/>
<path style="fill:#f5e1b6; stroke:none;" d="M77 242L77 244L79 244L79 242L77 242z"/>
<path style="fill:#ac6747; stroke:none;" d="M158.333 242.667L158.667 243.333L158.333 242.667z"/>
<path style="fill:#f5e1b6; stroke:none;" d="M209 242L209 244L211 244L209 242z"/>
<path style="fill:#506c4a; stroke:none;" d="M215 242L217 244L217 242L215 242z"/>
<path style="fill:#ac6747; stroke:none;" d="M291 242L291 246L292 246L291 242M45 243L46 244L45 243M161 243C159.06 246.39 157.223 249.48 161 252L159 248C161.981 247.126 162.756 245.608 161 243M167 243L168 244L167 243M170 243L170 247L171 247L170 243M184 243L185 244L184 243M47 244L47 246L49 246L49 244L47 244M125 244L127 247L125 244M177 244L178 245L177 244z"/>
<path style="fill:#506c4a; stroke:none;" d="M214 244L214 245L217 246L217 247L214 247L214 248L218 247L218 245L214 244z"/>
<path style="fill:#ac6747; stroke:none;" d="M41 245L42 246L41 245M93 245L96 249L93 250C95.1831 252.834 99.0298 254.528 100 250L103 253L108 248L98 246L98 249L93 245M213 245L213 246L217 247L217 246L213 245M267 245L267 246L270 246L267 245M22 246L22 250L23 250L22 246M81.3333 246.667L81.6667 247.333L81.3333 246.667M131 246L132 247L131 246M180 246L181 247L180 246M230 246L230 247L233 247L230 246M234 246L237 249L234 246z"/>
<path style="fill:#f5e1b6; stroke:none;" d="M291 246L291 250L292 250L291 246z"/>
<path style="fill:#ac6747; stroke:none;" d="M303 246L303 250L304 250L303 246M165 247L166 248L165 247M168 247L168 251L163 249L165 253L169 253L170 253L168 247M245 247L246 248L245 247M290.333 248.667L290.667 249.333L290.333 248.667M55 251L55 252L64 254L64 256L59 256L60 258C49.3952 258.353 57.9396 266.083 66 258L67 258L73 259L64 262L65 266L81 264C78.7023 268.851 81.3218 269.846 86 270L86 271L83 273L98 273C102.431 265.992 107.389 272.858 109 278L101 280L100 280C96.6246 277.065 93.1215 277.521 89 276.367C81.9524 274.393 66.1479 265.717 61 274L60 274L60 270L47 268L54 273L54 274L51 275L51 276L54 274L55 274L70.8704 275.306L80 289L79 293L85 289L85 293L94.5 297L98 304L104 293L105 286L107 290L108 285L104 284L104 283L108 282L111 287L111 284L117 285L117 284L113 282L113 281L116 282L117 279L123 280L122 283L129 284L130 291L136 288L129 284L130 281L135 282L135 276L122 273L122 272L125 273L123 269L138 275L140 283L135 283L142 287L142 286L140 283L145 282L146 285L147 285L148 282L141 279C146.217 277.567 151.173 276.635 155 281L151 286L165 283L164 288L171 288L170 295L182 296L182 295L175 288L183 291L188 288L188 291L189 291L192 281L186 280L186 279L188 279L188 278L181 278L190 282L190 283L176 282L178 279L172 275L166 275L167 277L166 277L165 273C158.366 271.712 150.216 267.288 146 262L138 264L137 261L125 261L127 264L123 264L124 261L110 259L111 262L106 261L107 259L87 254L90 262L87 259L77 257L80 258L80 257L73 251L55 251M79 249L79 250L83 251L79 249z"/>
<path style="fill:#692516; stroke:none;" d="M106 249L107 250L106 249z"/>
<path style="fill:#ac6747; stroke:none;" d="M110 249L119 257C118.112 254.482 116.251 248.561 113 251L110 249M127 250L126 251L128 255L129 255L132 253L136 259L139 253L136 256L127 250M132 250L132 251L136 252L136 251L132 250M153 250L157 254L153 250M172 250L173 251L172 250M203 250L204 251L203 250z"/>
<path style="fill:#506c4a; stroke:none;" d="M289 250L280 276L285 277L286 274L286 273L285 267L286 267L286 271L287 271L287 263L291 250L289 250z"/>
<path style="fill:#ac6747; stroke:none;" d="M35 251L36 256L37 256L35 251z"/>
<path style="fill:#f5e1b6; stroke:none;" d="M95 251L95 252L98 252L95 251z"/>
<path style="fill:#ac6747; stroke:none;" d="M213 251L213 252L216 252L213 251M246 251L248 253L248 251L246 251M290 251L289 255L290 255L290 251z"/>
<path style="fill:#f5e1b6; stroke:none;" d="M23 252L23 255L24 255L23 252M60 252L61 253L60 252z"/>
<path style="fill:#692516; stroke:none;" d="M65 252L65 253L69 257C70.6868 253.535 68.2656 252.523 65 252z"/>
<path style="fill:#ac6747; stroke:none;" d="M143 252L142 254L144 254L143 252M146 252L148 255L146 252z"/>
<path style="fill:#506c4a; stroke:none;" d="M214 252L215 253L214 252M268 252L269 253L268 252z"/>
<path style="fill:#ac6747; stroke:none;" d="M269 252L270 253L269 252z"/>
<path style="fill:#f5e1b6; stroke:none;" d="M302 252L302 255L303 255L302 252z"/>
<path style="fill:#506c4a; stroke:none;" d="M0 253L0 398L145 398L145 397C91.6078 395.898 39.7777 353.938 16.8086 308C11.0987 296.58 6.82986 284.411 3.88426 272C2.43684 265.901 2.4595 258.702 0 253z"/>
<path style="fill:#ac6747; stroke:none;" d="M237 253L238 254L237 253z"/>
<path style="fill:#506c4a; stroke:none;" d="M325 253C323.548 323.32 251.32 395.549 181 397L181 398L326 398L326 297C326 284.532 329.807 264.456 325 253z"/>
<path style="fill:#ac6747; stroke:none;" d="M54.6667 254.333L55.3333 254.667L54.6667 254.333z"/>
<path style="fill:#f5e1b6; stroke:none;" d="M133 254L134 255L133 254z"/>
<path style="fill:#ac6747; stroke:none;" d="M160 254L161 255L160 254z"/>
<path style="fill:#506c4a; stroke:none;" d="M226 254L227 255L226 254z"/>
<path style="fill:#f5e1b6; stroke:none;" d="M290 254L290 257L291 257L290 254z"/>
<path style="fill:#ac6747; stroke:none;" d="M23 255L23 258L24 258L23 255z"/>
<path style="fill:#f5e1b6; stroke:none;" d="M35.3333 255.667L35.6667 256.333L35.3333 255.667z"/>
<path style="fill:#ac6747; stroke:none;" d="M83.6667 255.333L84.3333 255.667L83.6667 255.333M111 258L114 255L111 258M141 255L143 257L141 255M156 255L155 258L156 255M163 255L166 258L163 255z"/>
<path style="fill:#506c4a; stroke:none;" d="M212 255L213 256L212 255z"/>
<path style="fill:#ac6747; stroke:none;" d="M302 255L302 258L303 258L302 255M144 256L144 257L148 259L144 256M212.667 256.333L213.333 256.667L212.667 256.333z"/>
<path style="fill:#692516; stroke:none;" d="M74.6667 257.333L75.3333 257.667L74.6667 257.333M91 257L92 261L99 263C97.2815 259.096 95.0681 257.989 91 257z"/>
<path style="fill:#ac6747; stroke:none;" d="M140 257L144 261L140 257M167 257L168 258L167 257M230 269L229 266C236.82 272.773 225.796 273.664 221 275L221 277L233 286L229 285C227.583 286.479 226.246 288.068 223.996 288.177C219.653 288.386 216.047 284.265 211.019 284.448C200.098 284.843 213.337 290.318 217 291C216.186 295.456 215.433 300.781 220.214 303.302C223.032 304.788 232.634 306.616 233.37 310.209C233.806 312.34 229.702 315.742 229 318L264 316L266 311C258.166 314.022 249.884 318.876 242.058 313.672C238.697 311.437 237.847 306.586 233.892 305.495C229.636 304.32 214.983 299.427 221.248 293.569C231.637 283.854 253.814 281.075 267.285 278.574C272.086 277.683 282.339 280.239 285 277L280 276L280 270L279 270L278 275C274.076 275.061 264.568 271.549 264 276L261 275L262 278L241 273L241 272L244 272L244 271L240 272L242 270C234.915 267.974 225.955 252.726 217.283 258.183C209.232 263.25 225.341 270.539 230 269M245 257L247 259L245 257M286 257L287 258L286 257M36.3333 258.667L36.6667 259.333L36.3333 258.667M42 258L42 259L47 260L42 258M161 258L161 259L167 263L161 258M289.333 258.667L289.667 259.333L289.333 258.667z"/>
<path style="fill:#f5e1b6; stroke:none;" d="M24.3333 259.667L24.6667 260.333L24.3333 259.667z"/>
<path style="fill:#ac6747; stroke:none;" d="M131 259L132 260L131 259M152 259L153 260L152 259M285 259L284 262L284 263C286.923 262.361 286.856 261.134 285 259z"/>
<path style="fill:#f5e1b6; stroke:none;" d="M301.333 259.667L301.667 260.333L301.333 259.667M36.3333 260.667L36.6667 261.333L36.3333 260.667M56 260L56 261L60 261L56 260z"/>
<path style="fill:#ac6747; stroke:none;" d="M148 260L149 261L148 260z"/>
<path style="fill:#506c4a; stroke:none;" d="M211 260L210 262L211 260z"/>
<path style="fill:#ac6747; stroke:none;" d="M212 260L211 262L213 262L212 260z"/>
<path style="fill:#f5e1b6; stroke:none;" d="M218 261L227 266C226.147 260.775 222.85 259.682 218 261M289.333 260.667L289.667 261.333L289.333 260.667z"/>
<path style="fill:#ac6747; stroke:none;" d="M24.3333 261.667L24.6667 262.333L24.3333 261.667M219 261L220 262L219 261M283 261L284 262L283 261M301.333 261.667L301.667 262.333L301.333 261.667M50 262L50 264L52 264L52 262L50 262M151 262L150 265L154 265L151 262M168 262L169 263L168 262M37.3333 263.667L37.6667 264.333L37.3333 263.667z"/>
<path style="fill:#692516; stroke:none;" d="M86 263L89 270L90 270L90 267L98 269C96.0383 265.672 92.6921 262.953 89 265L88 265L86 263M133 263L134 264L133 263M140.333 263.667L140.667 264.333L140.333 263.667z"/>
<path style="fill:#ac6747; stroke:none;" d="M274 263L275 264L274 263M287.667 263.333L288.333 263.667L287.667 263.333z"/>
<path style="fill:#f5e1b6; stroke:none;" d="M25.3333 264.667L25.6667 265.333L25.3333 264.667z"/>
<path style="fill:#692516; stroke:none;" d="M100 264L101 265L100 264M102 264L102 265L105 265L102 264M116 266L119 266L118 264L116 266M135 264L139 267L135 264M144 264L144 265L148 266L148 265L144 264z"/>
<path style="fill:#ac6747; stroke:none;" d="M155 264L155 265L158 266L155 264z"/>
<path style="fill:#506c4a; stroke:none;" d="M210.667 264.333L211.333 264.667L210.667 264.333M215 264L216 265L215 264z"/>
<path style="fill:#ac6747; stroke:none;" d="M258 264L258 265L263 267L264 264L258 264M283 265L283 266L287 265L283 265z"/>
<path style="fill:#f5e1b6; stroke:none;" d="M288.333 264.667L288.667 265.333L288.333 264.667M300.333 264.667L300.667 265.333L300.333 264.667M37.3333 265.667L37.6667 266.333L37.3333 265.667z"/>
<path style="fill:#692516; stroke:none;" d="M82.6667 265.333L83.3333 265.667L82.6667 265.333M124 265L125 266L124 265M127 265L126 267L127 265z"/>
<path style="fill:#ac6747; stroke:none;" d="M162 265L165 267L162 265M170 265L171 266L170 265z"/>
<path style="fill:#506c4a; stroke:none;" d="M216 265L217 266L216 265z"/>
<path style="fill:#ac6747; stroke:none;" d="M287 265L288 268L287 265M25.3333 266.667L25.6667 267.333L25.3333 266.667z"/>
<path style="fill:#f5e1b6; stroke:none;" d="M85 266L84 269L85 269L85 266z"/>
<path style="fill:#ac6747; stroke:none;" d="M89 266L90 267L89 266z"/>
<path style="fill:#692516; stroke:none;" d="M114 266L115 267L114 266M131 266L131 267L137 269L137 268L131 266z"/>
<path style="fill:#506c4a; stroke:none;" d="M218.667 266.333L219.333 266.667L218.667 266.333z"/>
<path style="fill:#692516; stroke:none;" d="M229 266L226 273C231.741 273.794 234.686 269.144 229 266z"/>
<path style="fill:#ac6747; stroke:none;" d="M300.333 266.667L300.667 267.333L300.333 266.667M38.3333 267.667L38.6667 268.333L38.3333 267.667z"/>
<path style="fill:#692516; stroke:none;" d="M116 267L117 268L116 267M120 267L121 268L120 267M141.667 267.333L142.333 267.667L141.667 267.333z"/>
<path style="fill:#ac6747; stroke:none;" d="M181 267L181 268L191 271L191 270L181 267z"/>
<path style="fill:#506c4a; stroke:none;" d="M221.667 267.333L222.333 267.667L221.667 267.333z"/>
<path style="fill:#ac6747; stroke:none;" d="M285 267L284 273L287 272L285 267M42.6667 268.333L43.3333 268.667L42.6667 268.333z"/>
<path style="fill:#692516; stroke:none;" d="M144.667 268.333L145.333 268.667L144.667 268.333z"/>
<path style="fill:#ac6747; stroke:none;" d="M171 268L172 269L171 268M195 268L200 271L200 270L195 268z"/>
<path style="fill:#506c4a; stroke:none;" d="M223 268L223 273L223 274L227 274L223 268z"/>
<path style="fill:#ac6747; stroke:none;" d="M281 268L282 269L281 268z"/>
<path style="fill:#f5e1b6; stroke:none;" d="M287.333 268.667L287.667 269.333L287.333 268.667M26 269L27 270L26 269M38 269L39 270L38 269z"/>
<path style="fill:#692516; stroke:none;" d="M117 269L117 270L120 271L117 269z"/>
<path style="fill:#506c4a; stroke:none;" d="M211 269L212 270L211 269z"/>
<path style="fill:#f5e1b6; stroke:none;" d="M299 269L300 270L299 269z"/>
<path style="fill:#ac6747; stroke:none;" d="M26.3333 270.667L26.6667 271.333L26.3333 270.667M39 270L41 278L42 278L46 277L42 275L42 274L50 275L47 270L39 270M163 270L164 271L163 270M201 270L202 274L203 274L201 270z"/>
<path style="fill:#506c4a; stroke:none;" d="M227 270L228 271L227 270z"/>
<path style="fill:#f5e1b6; stroke:none;" d="M234 270L235 271L234 270M240 270L240 271L246 272L240 270z"/>
<path style="fill:#ac6747; stroke:none;" d="M245.667 270.333L246.333 270.667L245.667 270.333M299.333 270.667L299.667 271.333L299.333 270.667z"/>
<path style="fill:#692516; stroke:none;" d="M151 271L155 273L151 271z"/>
<path style="fill:#506c4a; stroke:none;" d="M240 271L241 272L240 271z"/>
<path style="fill:#fefefd; stroke:none;" d="M246 271L247 272L246 271z"/>
<path style="fill:#f5e1b6; stroke:none;" d="M247 271L247 272L251 273L251 272L247 271z"/>
<path style="fill:#ac6747; stroke:none;" d="M249.667 271.333L250.333 271.667L249.667 271.333z"/>
<path style="fill:#f5e1b6; stroke:none;" d="M39.3333 272.667L39.6667 273.333L39.3333 272.667z"/>
<path style="fill:#692516; stroke:none;" d="M66 272L62 273L62 274L67 273L66 272z"/>
<path style="fill:#ac6747; stroke:none;" d="M170 272L170 273L174 274L170 272z"/>
<path style="fill:#506c4a; stroke:none;" d="M203 272L204 273L203 272z"/>
<path style="fill:#f5e1b6; stroke:none;" d="M238 272L239 273L238 272z"/>
<path style="fill:#506c4a; stroke:none;" d="M241 272L242 273L241 272z"/>
<path style="fill:#692516; stroke:none;" d="M242 272L242 273L261 277L242 272z"/>
<path style="fill:#506c4a; stroke:none;" d="M246 272L247 273L246 272z"/>
<path style="fill:#ac6747; stroke:none;" d="M247 272L248 273L247 272z"/>
<path style="fill:#fefefd; stroke:none;" d="M251 272L252 273L251 272z"/>
<path style="fill:#f5e1b6; stroke:none;" d="M252 272L252 273L264 276L264 275L252 272z"/>
<path style="fill:#ac6747; stroke:none;" d="M254.667 272.333L255.333 272.667L254.667 272.333z"/>
<path style="fill:#f5e1b6; stroke:none;" d="M286.333 272.667L286.667 273.333L286.333 272.667M27 273L28 274L27 273z"/>
<path style="fill:#ac6747; stroke:none;" d="M198 273L200 275L200 273L198 273z"/>
<path style="fill:#506c4a; stroke:none;" d="M227 274L227 275L231 274L227 274M233 273L234 276L230 276L230 277L235 280L235 276L248 283L233 273z"/>
<path style="fill:#ac6747; stroke:none;" d="M251.667 273.333L252.333 273.667L251.667 273.333M258 273L258 274L261 274L258 273z"/>
<path style="fill:#f5e1b6; stroke:none;" d="M298 273L299 274L298 273z"/>
<path style="fill:#ac6747; stroke:none;" d="M27 274L28 275L27 274z"/>
<path style="fill:#692516; stroke:none;" d="M57 274L58 275L57 274M150 274L150 275L153 275L150 274z"/>
<path style="fill:#ac6747; stroke:none;" d="M175 274L175 275L179 276L175 274z"/>
<path style="fill:#506c4a; stroke:none;" d="M221 274L222 275L221 274z"/>
<path style="fill:#ac6747; stroke:none;" d="M256.667 274.333L257.333 274.667L256.667 274.333z"/>
<path style="fill:#506c4a; stroke:none;" d="M270 274L271 275L270 274z"/>
<path style="fill:#ac6747; stroke:none;" d="M284.667 274.333L285.333 274.667L284.667 274.333M298 274L299 275L298 274z"/>
<path style="fill:#f5e1b6; stroke:none;" d="M40.3333 275.667L40.6667 276.333L40.3333 275.667z"/>
<path style="fill:#ac6747; stroke:none;" d="M104 275L105 276L104 275z"/>
<path style="fill:#692516; stroke:none;" d="M112 275L111 278L112 275M119 275L120 276L119 275M155 275L156 276L155 275M161 275L158 277L164 280L161 275z"/>
<path style="fill:#506c4a; stroke:none;" d="M248 275L249 276L248 275M260 275L261 276L260 275z"/>
<path style="fill:#692516; stroke:none;" d="M267 277L270 275L267 277z"/>
<path style="fill:#f5e1b6; stroke:none;" d="M285.333 275.667L285.667 276.333L285.333 275.667M28 276L29 277L28 276M83 276L83 277L87 278L87 277L83 276z"/>
<path style="fill:#692516; stroke:none;" d="M140.667 276.333L141.333 276.667L140.667 276.333z"/>
<path style="fill:#506c4a; stroke:none;" d="M220 276L226 288L229 285L233 286L220 276z"/>
<path style="fill:#692516; stroke:none;" d="M235 276C234.758 282.591 239.475 282.98 245 283L235 276z"/>
<path style="fill:#506c4a; stroke:none;" d="M251 276L251 277L259 279L251 276z"/>
<path style="fill:#f5e1b6; stroke:none;" d="M265.667 276.333L266.333 276.667L265.667 276.333M297 276L298 277L297 276z"/>
<path style="fill:#ac6747; stroke:none;" d="M28 277L29 278L28 277M45 281L52 278C48.501 276.583 46.1932 277.404 45 281z"/>
<path style="fill:#692516; stroke:none;" d="M131.667 277.333L132.333 277.667L131.667 277.333z"/>
<path style="fill:#f5e1b6; stroke:none;" d="M155 277L157 279L155 277z"/>
<path style="fill:#506c4a; stroke:none;" d="M260.667 277.333L261.333 277.667L260.667 277.333z"/>
<path style="fill:#f5e1b6; stroke:none;" d="M280 290L277 288L281 289L284 280C271.643 274.255 257.494 279.749 245.91 284.262C241.575 285.952 237.356 285.192 233 287.449C229.269 289.382 217.443 291.808 218.832 297.863C219.897 302.507 231.18 304.501 234.772 306.298C239.421 308.623 240.139 314.273 246 316.171C262.835 321.62 274.539 302.071 280 290z"/>
<path style="fill:#ac6747; stroke:none;" d="M297 277L298 278L297 277z"/>
<path style="fill:#f5e1b6; stroke:none;" d="M41.3333 278.667L41.6667 279.333L41.3333 278.667z"/>
<path style="fill:#692516; stroke:none;" d="M88 278L88 282C92.2147 285.608 94.1452 287.858 100 288L97 282L91 281L91 280L96 281L88 278M167 278L170 281L167 278z"/>
<path style="fill:#f5e1b6; stroke:none;" d="M284 278L285 279L284 278M29 279L30 280L29 279z"/>
<path style="fill:#ac6747; stroke:none;" d="M136 279L137 280L136 279z"/>
<path style="fill:#692516; stroke:none;" d="M165 279L166 280L165 279z"/>
<path style="fill:#ac6747; stroke:none;" d="M191.667 279.333L192.333 279.667L191.667 279.333z"/>
<path style="fill:#f5e1b6; stroke:none;" d="M228 279L229 280L228 279M296 279L297 280L296 279z"/>
<path style="fill:#ac6747; stroke:none;" d="M29 280L30 281L29 280M42 280L43 281L42 280M53 280L53 281L56 282L53 280z"/>
<path style="fill:#692516; stroke:none;" d="M109 280L110 281L109 280z"/>
<path style="fill:#ac6747; stroke:none;" d="M296 280L297 281L296 280z"/>
<path style="fill:#f5e1b6; stroke:none;" d="M42 281L43 282L42 281z"/>
<path style="fill:#ac6747; stroke:none;" d="M57 281L58 282L57 281z"/>
<path style="fill:#692516; stroke:none;" d="M80 281L80 282L88 287L88 283L80 281M101 281L102 282L101 281M111 281L112 282L111 281M143 281L144 282L143 281z"/>
<path style="fill:#f5e1b6; stroke:none;" d="M30 282L31 283L30 282z"/>
<path style="fill:#ac6747; stroke:none;" d="M60 282L61 283L60 282z"/>
<path style="fill:#f5e1b6; stroke:none;" d="M78 282L79 283L78 282M295 282L296 283L295 282z"/>
<path style="fill:#ac6747; stroke:none;" d="M30 283L31 284L30 283M43 283L44 284L43 283z"/>
<path style="fill:#f5e1b6; stroke:none;" d="M79 283L82 287L79 283z"/>
<path style="fill:#506c4a; stroke:none;" d="M239 283L239 284L244 284L239 283z"/>
<path style="fill:#ac6747; stroke:none;" d="M295 283L296 284L295 283z"/>
<path style="fill:#f5e1b6; stroke:none;" d="M43 284L44 285L43 284z"/>
<path style="fill:#ac6747; stroke:none;" d="M121 284L124 286L121 284z"/>
<path style="fill:#f5e1b6; stroke:none;" d="M137 284L138 285L137 284z"/>
<path style="fill:#692516; stroke:none;" d="M182 284L182 285L185 285L182 284M187 284L187 286L189 286L187 284z"/>
<path style="fill:#506c4a; stroke:none;" d="M206.667 284.333L207.333 284.667L206.667 284.333M211 284L211 285L215 285L211 284M217.667 284.333L218.333 284.667L217.667 284.333z"/>
<path style="fill:#f5e1b6; stroke:none;" d="M31 285L32 286L31 285z"/>
<path style="fill:#ac6747; stroke:none;" d="M44 285L45 286L44 285z"/>
<path style="fill:#f5e1b6; stroke:none;" d="M78 285L79 286L78 285z"/>
<path style="fill:#692516; stroke:none;" d="M167 285L170 287L167 285z"/>
<path style="fill:#506c4a; stroke:none;" d="M205 285C203.776 291.624 208.961 294.499 215 294C215.001 306.262 218.608 314.221 203 313L203 314L211 318L191 318L190 318L189 312L202 313L200 306L211 298L208 299C207.468 294.772 202.811 296.148 200 298L203 299C199.263 304.647 194.721 302.623 189 304L187 298L186 298L188 305L188 310L183 310L183 311L185 312L183 318L186 318L185 322L184 324L182 327L181 327L182 316L181 316C175.35 328.035 169.205 342.541 170 356C172.981 354.116 173.567 352.439 173 349L181 348L182 336L186 336L186 335L183 334L188 333L188 332L185 331L188 326L199 325L200 325C203.768 327.952 210.092 326.425 213.262 329.603C218.21 334.566 217.728 343.719 227.171 345.215C234.319 346.348 248.239 333.945 248 327L258 319L263 315L229 318C230.078 315.903 234.501 312.584 234.079 310.209C233.364 306.193 223.155 304.693 220.214 302.836C215.861 300.089 216.484 295.393 217 291C211.756 289.737 208.237 289.675 205 285M219 285L221 288L219 285z"/>
<path style="fill:#f5e1b6; stroke:none;" d="M294 285L295 286L294 285z"/>
<path style="fill:#ac6747; stroke:none;" d="M31 286L32 287L31 286z"/>
<path style="fill:#f5e1b6; stroke:none;" d="M44 286L45 287L44 286z"/>
<path style="fill:#ac6747; stroke:none;" d="M294 286L295 287L294 286z"/>
<path style="fill:#f5e1b6; stroke:none;" d="M32 287L33 288L32 287z"/>
<path style="fill:#ac6747; stroke:none;" d="M45 287L48 290L45 287M64 287L66 289L66 287L64 287M143 287L144 288L143 287z"/>
<path style="fill:#f5e1b6; stroke:none;" d="M293 287L294 288L293 287z"/>
<path style="fill:#ac6747; stroke:none;" d="M32 288L33 289L32 288z"/>
<path style="fill:#f5e1b6; stroke:none;" d="M45 288L46 289L45 288z"/>
<path style="fill:#692516; stroke:none;" d="M86 288L87 289L86 288z"/>
<path style="fill:#506c4a; stroke:none;" d="M221 288L222 289L221 288M224.667 288.333L225.333 288.667L224.667 288.333z"/>
<path style="fill:#ac6747; stroke:none;" d="M277 288L278 291L279 291L280 288L277 288M293 288L294 289L293 288M51 289L51 291L54 291L54 289L51 289M67 289L76 297L77 290L67 289z"/>
<path style="fill:#692516; stroke:none;" d="M93 289L94 290L93 289z"/>
<path style="fill:#ac6747; stroke:none;" d="M138 289L139 290L138 289M144 289L142 295L146 289L144 289z"/>
<path style="fill:#f5e1b6; stroke:none;" d="M33 290L34 291L33 290M46 290L47 291L46 290z"/>
<path style="fill:#ac6747; stroke:none;" d="M55.6667 290.333L56.3333 290.667L55.6667 290.333M61 290L59 294L64 293L64 292L61 290M158 290L159 291L158 290z"/>
<path style="fill:#692516; stroke:none;" d="M172 290L173 294L174 294L172 290z"/>
<path style="fill:#f5e1b6; stroke:none;" d="M292 290L293 291L292 290z"/>
<path style="fill:#ac6747; stroke:none;" d="M33 291L34 292L33 291M47 291L48 292L47 291z"/>
<path style="fill:#692516; stroke:none;" d="M99.3333 291.667L99.6667 292.333L99.3333 291.667z"/>
<path style="fill:#ac6747; stroke:none;" d="M128 291L128 293L130 293L128 291M184 291L185 292L184 291M292 291L293 292L292 291z"/>
<path style="fill:#f5e1b6; stroke:none;" d="M34 292L35 293L34 292M47 292L48 293L47 292z"/>
<path style="fill:#692516; stroke:none;" d="M88 292L89 293L88 292z"/>
<path style="fill:#ac6747; stroke:none;" d="M105 292L106 293L105 292M269 297C267.21 286.271 253.816 296.886 264.96 297.525C266.277 297.6 267.72 297.21 269 297z"/>
<path style="fill:#f5e1b6; stroke:none;" d="M291 292L292 293L291 292z"/>
<path style="fill:#ac6747; stroke:none;" d="M34 293L35 294L34 293M48 293L50 297L51 297L48 293M82 293L83 294L82 293z"/>
<path style="fill:#f5e1b6; stroke:none;" d="M94 294L96 298L100 297C98.4491 294.138 97.2337 293.348 94 294z"/>
<path style="fill:#ac6747; stroke:none;" d="M112.667 293.333L113.333 293.667L112.667 293.333M189 304C194.793 303.335 200.218 305.331 203 299C195.313 294.742 182.549 289.869 189 304z"/>
<path style="fill:#506c4a; stroke:none;" d="M260 294L260 295L263 296L264 294L260 294z"/>
<path style="fill:#692516; stroke:none;" d="M262 295L267 295L262 295z"/>
<path style="fill:#506c4a; stroke:none;" d="M266 293L267 294L266 293z"/>
<path style="fill:#ac6747; stroke:none;" d="M291 293L292 294L291 293z"/>
<path style="fill:#f5e1b6; stroke:none;" d="M35 294L36 295L35 294M48 294L49 295L48 294z"/>
<path style="fill:#ac6747; stroke:none;" d="M126 294L132 299L126 294z"/>
<path style="fill:#506c4a; stroke:none;" d="M267 294L268 295L267 294z"/>
<path style="fill:#f5e1b6; stroke:none;" d="M290 294L291 295L290 294z"/>
<path style="fill:#ac6747; stroke:none;" d="M35 295L36 296L35 295M103 295L106 297L103 295z"/>
<path style="fill:#506c4a; stroke:none;" d="M197 295L198 296L197 295M266 295L267 296L266 295z"/>
<path style="fill:#ac6747; stroke:none;" d="M290 295L291 296L290 295z"/>
<path style="fill:#f5e1b6; stroke:none;" d="M36 296L37 297L36 296M49 296L50 297L49 296z"/>
<path style="fill:#ac6747; stroke:none;" d="M52 297L52 298L66 313L61 312L61 313L64 313L62 315L62 316C66.2671 314.617 69.6342 313.516 71 309L72 309L71 313C77.2748 314.837 87.0059 312.447 91 307L97 311C96.272 307.649 95.403 306.588 92 306L93 302L86 298L90 305L87 304L85 306L86 303L78 307L85 298L85 297L78 296C79.9801 304.241 73.2211 308.155 66 305L67 299L72 298L52 297M177.667 296.333L178.333 296.667L177.667 296.333z"/>
<path style="fill:#506c4a; stroke:none;" d="M198 296L199 297L198 296z"/>
<path style="fill:#f5e1b6; stroke:none;" d="M289 296L290 297L289 296z"/>
<path style="fill:#ac6747; stroke:none;" d="M36 297L37 298L36 297z"/>
<path style="fill:#f5e1b6; stroke:none;" d="M50 297L54 305L55 305C54.6737 300.817 54.1184 298.547 50 297z"/>
<path style="fill:#ac6747; stroke:none;" d="M289 297L290 298L289 297z"/>
<path style="fill:#f5e1b6; stroke:none;" d="M37 298L38 299L37 298M56.6667 298.333L57.3333 298.667L56.6667 298.333M78 307L86 303L85 306L87 304L90 305C88.2052 294.328 80.7356 300.895 78 307z"/>
<path style="fill:#ac6747; stroke:none;" d="M154 298L155 299L154 298M172 298L172 300L174 300L174 298L172 298M177 298L178 303L183 298L177 298M185.333 298.667L185.667 299.333L185.333 298.667z"/>
<path style="fill:#f5e1b6; stroke:none;" d="M193 298L193 300L197 300L197 298L193 298z"/>
<path style="fill:#ac6747; stroke:none;" d="M245 302L252 301L252 299C248.326 298.021 246.26 298.202 245 302z"/>
<path style="fill:#f5e1b6; stroke:none;" d="M288 298L289 299L288 298z"/>
<path style="fill:#ac6747; stroke:none;" d="M37 299L38 300L37 299M107 299L108 300L107 299M142 299L145 301L142 299M161.667 299.333L162.333 299.667L161.667 299.333M288 299L289 300L288 299z"/>
<path style="fill:#f5e1b6; stroke:none;" d="M38 300L39 301L38 300z"/>
<path style="fill:#ac6747; stroke:none;" d="M109 300L106 309L115 303L115 301L109 300M134 300L134 302L137 302L137 300L134 300z"/>
<path style="fill:#f5e1b6; stroke:none;" d="M287 300L288 301L287 300z"/>
<path style="fill:#ac6747; stroke:none;" d="M38 301L39 302L38 301M186 301L187 302L186 301M287 301L288 302L287 301z"/>
<path style="fill:#f5e1b6; stroke:none;" d="M39 302L40 303L39 302z"/>
<path style="fill:#ac6747; stroke:none;" d="M118 302L117 307L121 308L118 302z"/>
<path style="fill:#f5e1b6; stroke:none;" d="M286 302L287 303L286 302z"/>
<path style="fill:#ac6747; stroke:none;" d="M39 303L40 304L39 303z"/>
<path style="fill:#f5e1b6; stroke:none;" d="M58 303L59 304L58 303z"/>
<path style="fill:#ac6747; stroke:none;" d="M143 303L144 304L143 303M158 303L158 306L160 306L160 303L158 303M187 303L188 304L187 303M286 303L287 304L286 303z"/>
<path style="fill:#f5e1b6; stroke:none;" d="M40 304L41 305L40 304M285 304L286 305L285 304M55 305C56.8594 309.42 59.2628 313.543 64 315L61 313L61 312L66 313L55 305z"/>
<path style="fill:#692516; stroke:none;" d="M192 308L193 309L197 306L192 308z"/>
<path style="fill:#ac6747; stroke:none;" d="M41 306L42 307L41 306z"/>
<path style="fill:#692516; stroke:none;" d="M65 306L65 308L67 308L65 306z"/>
<path style="fill:#f5e1b6; stroke:none;" d="M84 306L86 308L84 306z"/>
<path style="fill:#506c4a; stroke:none;" d="M194 306L195 307L194 306z"/>
<path style="fill:#ac6747; stroke:none;" d="M284 306L285 307L284 306z"/>
<path style="fill:#f5e1b6; stroke:none;" d="M42 307L43 308L42 307M283 307L284 308L283 307z"/>
<path style="fill:#ac6747; stroke:none;" d="M42 308L43 309L42 308z"/>
<path style="fill:#692516; stroke:none;" d="M223.667 308.333L224.333 308.667L223.667 308.333z"/>
<path style="fill:#ac6747; stroke:none;" d="M283 308L284 309L283 308z"/>
<path style="fill:#f5e1b6; stroke:none;" d="M43 309L44 310L43 309z"/>
<path style="fill:#ac6747; stroke:none;" d="M112 309L112 311L114 309L112 309z"/>
<path style="fill:#f5e1b6; stroke:none;" d="M282 309L283 310L282 309z"/>
<path style="fill:#ac6747; stroke:none;" d="M163 311L163 312L169 313L163 311M44 311L45 312L44 311M174 311L177 313L174 311M183 311L183 313L185 311L183 311M189 312L190 318L191 318L211 318C206.549 311.95 195.868 309.97 189 312M281 311L282 312L281 311z"/>
<path style="fill:#f5e1b6; stroke:none;" d="M45 312L46 313L45 312z"/>
<path style="fill:#ac6747; stroke:none;" d="M124 312L125 313L124 312M134 312L135 313L134 312M149 312L150 313L149 312z"/>
<path style="fill:#506c4a; stroke:none;" d="M191 312L192 313L191 312z"/>
<path style="fill:#ac6747; stroke:none;" d="M228 312L229 313L228 312M230 312L231 313L230 312z"/>
<path style="fill:#f5e1b6; stroke:none;" d="M280 312L281 313L280 312z"/>
<path style="fill:#ac6747; stroke:none;" d="M101.333 313.667L101.667 314.333L101.333 313.667M171 313L174 315L171 313M177 313L180 315L180 316L177 316L177 317L182 316L181 327L182 327L185 322L186 318L183 318L183 313L177 313M186 313L186 317L189 313L186 313z"/>
<path style="fill:#f5e1b6; stroke:none;" d="M265 313L266 314L265 313z"/>
<path style="fill:#ac6747; stroke:none;" d="M46 314L47 315L46 314M168 314L169 315L168 314z"/>
<path style="fill:#506c4a; stroke:none;" d="M263 314L264 315L263 314z"/>
<path style="fill:#f5e1b6; stroke:none;" d="M264 314L265 315L264 314z"/>
<path style="fill:#ac6747; stroke:none;" d="M279 314L280 315L279 314z"/>
<path style="fill:#f5e1b6; stroke:none;" d="M47 315L48 316L47 315z"/>
<path style="fill:#ac6747; stroke:none;" d="M77 317L84 320L83 315L77 317z"/>
<path style="fill:#f5e1b6; stroke:none;" d="M278 315L279 316L278 315z"/>
<path style="fill:#ac6747; stroke:none;" d="M67 316L70 322L67 316M93.6667 316.333L94.3333 316.667L93.6667 316.333M48 317L49 318L48 317z"/>
<path style="fill:#f5e1b6; stroke:none;" d="M63 317L64 318L63 317M262 317L263 318L262 317z"/>
<path style="fill:#ac6747; stroke:none;" d="M277 317L278 318L277 317z"/>
<path style="fill:#f5e1b6; stroke:none;" d="M49 318L50 319L49 318M64 318L65 319L64 318z"/>
<path style="fill:#ac6747; stroke:none;" d="M163 318L166 320L163 318M192 318L193 319L192 318z"/>
<path style="fill:#f5e1b6; stroke:none;" d="M261 318L262 319L261 318M276 318L277 319L276 318M50 319L51 320L50 319M65 319L66 320L65 319z"/>
<path style="fill:#ac6747; stroke:none;" d="M186 319L185 321L186 319z"/>
<path style="fill:#692516; stroke:none;" d="M258 319L248 327L247 331C251.346 328.973 258.11 324.195 258 319z"/>
<path style="fill:#f5e1b6; stroke:none;" d="M260 319L261 320L260 319M275 319L276 320L275 319M66 320L67 321L66 320M259 320L260 321L259 320z"/>
<path style="fill:#ac6747; stroke:none;" d="M51 321L52 322L51 321M67 321L68 322L67 321M180 321L181 322L180 321M258 321L259 322L258 321M274 321L275 322L274 321M52 322L53 323L52 322M68 322L69 323L68 322M95 322L99 326L95 322M185 322L186 323L185 322M257 322L258 323L257 322M273 322L274 323L273 322z"/>
<path style="fill:#f5e1b6; stroke:none;" d="M53 323L54 324L53 323z"/>
<path style="fill:#ac6747; stroke:none;" d="M69 323L70 324L69 323M112 323L117 329L112 323z"/>
<path style="fill:#692516; stroke:none;" d="M244 323L245 324L244 323z"/>
<path style="fill:#ac6747; stroke:none;" d="M256 323L257 324L256 323z"/>
<path style="fill:#f5e1b6; stroke:none;" d="M272 323L273 324L272 323M54 324L55 325L54 324z"/>
<path style="fill:#ac6747; stroke:none;" d="M70 324L71 325L70 324M89 324L98 335L99 330C96.5782 326.034 93.5773 324.497 89 324M179.333 324.667L179.667 325.333L179.333 324.667z"/>
<path style="fill:#692516; stroke:none;" d="M189 324L190 325L189 324z"/>
<path style="fill:#506c4a; stroke:none;" d="M255 324L256 325L255 324z"/>
<path style="fill:#f5e1b6; stroke:none;" d="M271 324L272 325L271 324z"/>
<path style="fill:#ac6747; stroke:none;" d="M71 325L72 326L71 325z"/>
<path style="fill:#692516; stroke:none;" d="M242 325L245 328L242 325z"/>
<path style="fill:#506c4a; stroke:none;" d="M254 325L255 326L254 325z"/>
<path style="fill:#ac6747; stroke:none;" d="M55 326L56 327L55 326M72 326L73 327L72 326M151 326L152 327L151 326M183 326L184 327L183 326z"/>
<path style="fill:#506c4a; stroke:none;" d="M199 326L200 327L199 326M253 326L254 327L253 326z"/>
<path style="fill:#ac6747; stroke:none;" d="M270 326L271 327L270 326M56 327L57 328L56 327z"/>
<path style="fill:#506c4a; stroke:none;" d="M73 327L74 328L73 327M252 327L253 328L252 327z"/>
<path style="fill:#ac6747; stroke:none;" d="M269 327L270 328L269 327M57 328L58 329L57 328M74 328L75 329L74 328z"/>
<path style="fill:#506c4a; stroke:none;" d="M189 328L190 329L189 328z"/>
<path style="fill:#ac6747; stroke:none;" d="M251 328L252 329L251 328M268 328L269 329L268 328z"/>
<path style="fill:#f5e1b6; stroke:none;" d="M58 329L59 330L58 329z"/>
<path style="fill:#ac6747; stroke:none;" d="M75 329L76 330L75 329M250 329L251 330L250 329z"/>
<path style="fill:#f5e1b6; stroke:none;" d="M267 329L268 330L267 329M59 330L60 331L59 330z"/>
<path style="fill:#ac6747; stroke:none;" d="M76 330L77 331L76 330M105 330L108 333L105 330z"/>
<path style="fill:#506c4a; stroke:none;" d="M187 330L188 331L187 330z"/>
<path style="fill:#ac6747; stroke:none;" d="M249 330L250 331L249 330z"/>
<path style="fill:#f5e1b6; stroke:none;" d="M266 330L267 331L266 330M60 331L61 332L60 331M77 331L78 332L77 331z"/>
<path style="fill:#692516; stroke:none;" d="M183 331L184 332L183 331z"/>
<path style="fill:#f5e1b6; stroke:none;" d="M248 331L249 332L248 331M265 331L266 332L265 331M61 332L62 333L61 332M78 332L79 333L78 332M247 332L248 333L247 332M264 332L265 333L264 332M62 333L63 334L62 333M79 333L80 334L79 333z"/>
<path style="fill:#692516; stroke:none;" d="M240 333L239 335L240 333z"/>
<path style="fill:#f5e1b6; stroke:none;" d="M246 333L247 334L246 333M263 333L264 334L263 333M63 334L64 335L63 334M80 334L81 335L80 334M245 334L246 335L245 334M262 334L263 335L262 334M64 335L65 336L64 335z"/>
<path style="fill:#506c4a; stroke:none;" d="M82 335L83 336L82 335z"/>
<path style="fill:#ac6747; stroke:none;" d="M243 335L244 336L243 335z"/>
<path style="fill:#f5e1b6; stroke:none;" d="M261 335L262 336L261 335M65 336L66 337L65 336z"/>
<path style="fill:#ac6747; stroke:none;" d="M83 336L84 337L83 336z"/>
<path style="fill:#692516; stroke:none;" d="M240 336L241 337L240 336z"/>
<path style="fill:#ac6747; stroke:none;" d="M242 336L243 337L242 336z"/>
<path style="fill:#f5e1b6; stroke:none;" d="M260 336L261 337L260 336M66 337L67 338L66 337M84 337L85 338L84 337z"/>
<path style="fill:#ac6747; stroke:none;" d="M103 337L103 339L105 339L103 337z"/>
<path style="fill:#506c4a; stroke:none;" d="M183.333 337.667L183.667 338.333L183.333 337.667z"/>
<path style="fill:#f5e1b6; stroke:none;" d="M241 337L242 338L241 337M259 337L260 338L259 337M67 338L68 339L67 338M85 338L86 339L85 338M240 338L241 339L240 338M258 338L259 339L258 338M68 339L69 340L68 339z"/>
<path style="fill:#ac6747; stroke:none;" d="M87 339L88 340L87 339M126 339L126 340L130 341L130 340L126 339M238 339L239 340L238 339z"/>
<path style="fill:#f5e1b6; stroke:none;" d="M257 339L258 340L257 339z"/>
<path style="fill:#ac6747; stroke:none;" d="M69 340L70 341L69 340z"/>
<path style="fill:#f5e1b6; stroke:none;" d="M88 340L89 341L88 340z"/>
<path style="fill:#692516; stroke:none;" d="M173 340L174 341L173 340z"/>
<path style="fill:#f5e1b6; stroke:none;" d="M237 340L238 341L237 340z"/>
<path style="fill:#ac6747; stroke:none;" d="M256 340L257 341L256 340M70 341L71 342L70 341z"/>
<path style="fill:#506c4a; stroke:none;" d="M90 341L91 342L90 341z"/>
<path style="fill:#ac6747; stroke:none;" d="M235 341L236 342L235 341M255 341L256 342L255 341M71 342L72 343L71 342z"/>
<path style="fill:#f5e1b6; stroke:none;" d="M91 342L92 343L91 342M234 342L235 343L234 342z"/>
<path style="fill:#ac6747; stroke:none;" d="M254 342L255 343L254 342z"/>
<path style="fill:#f5e1b6; stroke:none;" d="M73 343L74 344L73 343z"/>
<path style="fill:#506c4a; stroke:none;" d="M93 343L94 344L93 343z"/>
<path style="fill:#ac6747; stroke:none;" d="M232 343L233 344L232 343z"/>
<path style="fill:#f5e1b6; stroke:none;" d="M252 343L253 344L252 343M74 344L75 345L74 344M94 344L95 345L94 344M231 344L232 345L231 344M251 344L252 345L251 344z"/>
<path style="fill:#ac6747; stroke:none;" d="M75 345L76 346L75 345M96 345L97 346L96 345z"/>
<path style="fill:#692516; stroke:none;" d="M178 345L179 346L178 345z"/>
<path style="fill:#ac6747; stroke:none;" d="M229 345L230 346L229 345M250 345L251 346L250 345M76 346L77 347L76 346z"/>
<path style="fill:#f5e1b6; stroke:none;" d="M97 346L98 347L97 346z"/>
<path style="fill:#506c4a; stroke:none;" d="M98 346L99 347L98 346z"/>
<path style="fill:#ac6747; stroke:none;" d="M170 346L170 350L171 350L170 346M227 346L228 347L227 346z"/>
<path style="fill:#f5e1b6; stroke:none;" d="M228 346L229 347L228 346z"/>
<path style="fill:#ac6747; stroke:none;" d="M249 346L250 347L249 346z"/>
<path style="fill:#f5e1b6; stroke:none;" d="M78 347L79 348L78 347M99 347L100 348L99 347z"/>
<path style="fill:#692516; stroke:none;" d="M175 347L176 348L175 347z"/>
<path style="fill:#506c4a; stroke:none;" d="M225 347L226 348L225 347z"/>
<path style="fill:#f5e1b6; stroke:none;" d="M226 347L227 348L226 347M247 347L248 348L247 347M79 348L80 349L79 348z"/>
<path style="fill:#ac6747; stroke:none;" d="M101 348L102 349L101 348z"/>
<path style="fill:#506c4a; stroke:none;" d="M223 348L224 349L223 348z"/>
<path style="fill:#f5e1b6; stroke:none;" d="M224 348L225 349L224 348M246 348L247 349L246 348z"/>
<path style="fill:#ac6747; stroke:none;" d="M80 349L81 350L80 349M103 349L104 350L103 349z"/>
<path style="fill:#506c4a; stroke:none;" d="M168 349L169 350L168 349M177 349L177 352L178 352L177 349M221 349L222 350L221 349z"/>
<path style="fill:#f5e1b6; stroke:none;" d="M222 349L223 350L222 349z"/>
<path style="fill:#ac6747; stroke:none;" d="M245 349L246 350L245 349z"/>
<path style="fill:#f5e1b6; stroke:none;" d="M82 350L83 351L82 350z"/>
<path style="fill:#ac6747; stroke:none;" d="M105 350L106 351L105 350z"/>
<path style="fill:#f5e1b6; stroke:none;" d="M220 350L221 351L220 350M243 350L244 351L243 350z"/>
<path style="fill:#ac6747; stroke:none;" d="M83 351L84 352L83 351M107 351L108 352L107 351z"/>
<path style="fill:#692516; stroke:none;" d="M172 351L173 352L172 351z"/>
<path style="fill:#ac6747; stroke:none;" d="M218 351L219 352L218 351M242 351L243 352L242 351z"/>
<path style="fill:#f5e1b6; stroke:none;" d="M85 352L86 353L85 352M109 352L110 353L109 352z"/>
<path style="fill:#506c4a; stroke:none;" d="M215 352L216 353L215 352z"/>
<path style="fill:#f5e1b6; stroke:none;" d="M216 352L217 353L216 352M240 352L241 353L240 352z"/>
<path style="fill:#ac6747; stroke:none;" d="M86 353L87 354L86 353z"/>
<path style="fill:#f5e1b6; stroke:none;" d="M111 353L112 354L111 353z"/>
<path style="fill:#506c4a; stroke:none;" d="M112 353L113 354L112 353M213 353L214 354L213 353z"/>
<path style="fill:#f5e1b6; stroke:none;" d="M214 353L215 354L214 353z"/>
<path style="fill:#ac6747; stroke:none;" d="M239 353L240 354L239 353z"/>
<path style="fill:#f5e1b6; stroke:none;" d="M88 354L89 355L88 354M113 354L114 355L113 354z"/>
<path style="fill:#ac6747; stroke:none;" d="M114 354L115 355L114 354z"/>
<path style="fill:#506c4a; stroke:none;" d="M168 354L169 355L168 354M189 354L189 356L191 356L189 354z"/>
<path style="fill:#ac6747; stroke:none;" d="M211 354L212 355L211 354z"/>
<path style="fill:#f5e1b6; stroke:none;" d="M212 354L213 355L212 354M237 354L238 355L237 354z"/>
<path style="fill:#ac6747; stroke:none;" d="M89 355L90 356L89 355z"/>
<path style="fill:#f5e1b6; stroke:none;" d="M90 355L91 356L90 355M116 355L117 356L116 355z"/>
<path style="fill:#ac6747; stroke:none;" d="M117 355L118 356L117 355M166 355L167 356L166 355z"/>
<path style="fill:#506c4a; stroke:none;" d="M173 355L174 356L173 355M208 355L209 356L208 355z"/>
<path style="fill:#f5e1b6; stroke:none;" d="M209 355L210 356L209 355M235 355L236 356L235 355z"/>
<path style="fill:#ac6747; stroke:none;" d="M236 355L237 356L236 355M91 356L92 357L91 356z"/>
<path style="fill:#f5e1b6; stroke:none;" d="M118 356L119 357L118 356z"/>
<path style="fill:#ac6747; stroke:none;" d="M119 356L120 357L119 356z"/>
<path style="fill:#506c4a; stroke:none;" d="M120 356L121 357L120 356M205 356L206 357L205 356z"/>
<path style="fill:#ac6747; stroke:none;" d="M206 356L207 357L206 356z"/>
<path style="fill:#f5e1b6; stroke:none;" d="M207 356L208 357L207 356z"/>
<path style="fill:#ac6747; stroke:none;" d="M234 356L235 357L234 356z"/>
<path style="fill:#f5e1b6; stroke:none;" d="M93 357L94 358L93 357M121 357L122 358L121 357z"/>
<path style="fill:#ac6747; stroke:none;" d="M122 357L123 358L122 357z"/>
<path style="fill:#506c4a; stroke:none;" d="M123 357L124 358L123 357z"/>
<path style="fill:#ac6747; stroke:none;" d="M203 357L204 358L203 357z"/>
<path style="fill:#f5e1b6; stroke:none;" d="M204 357L205 358L204 357M232 357L233 358L232 357z"/>
<path style="fill:#ac6747; stroke:none;" d="M94 358L95 359L94 358z"/>
<path style="fill:#f5e1b6; stroke:none;" d="M95 358L96 359L95 358M124 358L125 359L124 358z"/>
<path style="fill:#ac6747; stroke:none;" d="M125 358L126 359L125 358z"/>
<path style="fill:#506c4a; stroke:none;" d="M126 358L127 359L126 358M199 358L200 359L199 358z"/>
<path style="fill:#ac6747; stroke:none;" d="M200 358L201 359L200 358z"/>
<path style="fill:#f5e1b6; stroke:none;" d="M201 358L202 359L201 358M230 358L231 359L230 358z"/>
<path style="fill:#ac6747; stroke:none;" d="M231 358L232 359L231 358M96 359L97 360L96 359z"/>
<path style="fill:#f5e1b6; stroke:none;" d="M97 359L98 360L97 359M128 359L129 360L128 359z"/>
<path style="fill:#ac6747; stroke:none;" d="M129 359L130 360L129 359z"/>
<path style="fill:#506c4a; stroke:none;" d="M195 359L196 360L195 359z"/>
<path style="fill:#ac6747; stroke:none;" d="M196 359L197 360L196 359z"/>
<path style="fill:#f5e1b6; stroke:none;" d="M197 359L198 360L197 359M228 359L229 360L228 359z"/>
<path style="fill:#ac6747; stroke:none;" d="M229 359L230 360L229 359M98 360L99 361L98 360z"/>
<path style="fill:#f5e1b6; stroke:none;" d="M99 360L100 361L99 360M131.667 360.333L132.333 360.667L131.667 360.333z"/>
<path style="fill:#ac6747; stroke:none;" d="M133 360L134 361L133 360z"/>
<path style="fill:#506c4a; stroke:none;" d="M134 360L135 361L134 360M191 360L192 361L191 360z"/>
<path style="fill:#ac6747; stroke:none;" d="M192 360L193 361L192 360z"/>
<path style="fill:#f5e1b6; stroke:none;" d="M193.667 360.333L194.333 360.667L193.667 360.333M226 360L227 361L226 360z"/>
<path style="fill:#ac6747; stroke:none;" d="M227 360L228 361L227 360M100 361L101 362L100 361z"/>
<path style="fill:#f5e1b6; stroke:none;" d="M101 361L102 362L101 361M136 361L137 362L136 361z"/>
<path style="fill:#ac6747; stroke:none;" d="M137.667 361.333L138.333 361.667L137.667 361.333z"/>
<path style="fill:#506c4a; stroke:none;" d="M186 361L187 362L186 361z"/>
<path style="fill:#ac6747; stroke:none;" d="M187.667 361.333L188.333 361.667L187.667 361.333z"/>
<path style="fill:#f5e1b6; stroke:none;" d="M189 361L190 362L189 361M224 361L225 362L224 361z"/>
<path style="fill:#ac6747; stroke:none;" d="M225 361L226 362L225 361M102 362L103 363L102 362z"/>
<path style="fill:#f5e1b6; stroke:none;" d="M103 362L104 363L103 362M141.667 362.333L142.333 362.667L141.667 362.333z"/>
<path style="fill:#ac6747; stroke:none;" d="M143.667 362.333L144.333 362.667L143.667 362.333z"/>
<path style="fill:#506c4a; stroke:none;" d="M179 362L180 363L179 362z"/>
<path style="fill:#ac6747; stroke:none;" d="M180.667 362.333L181.333 362.667L180.667 362.333z"/>
<path style="fill:#f5e1b6; stroke:none;" d="M182 362L182 363L185 363L182 362M222 362L223 363L222 362z"/>
<path style="fill:#ac6747; stroke:none;" d="M223 362L224 363L223 362M104 363L105 364L104 363z"/>
<path style="fill:#f5e1b6; stroke:none;" d="M105 363L106 364L105 363M148 363L148 364L151 364L148 363z"/>
<path style="fill:#ac6747; stroke:none;" d="M151 363L151 364L154 364L151 363z"/>
<path style="fill:#506c4a; stroke:none;" d="M154.667 363.333L155.333 363.667L154.667 363.333z"/>
<path style="fill:#ac6747; stroke:none;" d="M160.667 363.333L161.333 363.667L160.667 363.333M164 363L164 364L167 364L164 363z"/>
<path style="fill:#506c4a; stroke:none;" d="M167.667 363.333L168.333 363.667L167.667 363.333z"/>
<path style="fill:#ac6747; stroke:none;" d="M169 363L169 364L174 364L169 363z"/>
<path style="fill:#f5e1b6; stroke:none;" d="M174 363L174 364L178 364L174 363M220 363L221 364L220 363z"/>
<path style="fill:#ac6747; stroke:none;" d="M221 363L222 364L221 363M106 364L107 365L106 364z"/>
<path style="fill:#f5e1b6; stroke:none;" d="M107 364L108 365L107 364M218 364L219 365L218 364z"/>
<path style="fill:#ac6747; stroke:none;" d="M219 364L220 365L219 364M109 365L110 366L109 365z"/>
<path style="fill:#f5e1b6; stroke:none;" d="M110 365L111 366L110 365M215 365L216 366L215 365z"/>
<path style="fill:#ac6747; stroke:none;" d="M216 365L217 366L216 365M111 366L112 367L111 366z"/>
<path style="fill:#f5e1b6; stroke:none;" d="M112 366L113 367L112 366M213 366L214 367L213 366z"/>
<path style="fill:#ac6747; stroke:none;" d="M214 366L215 367L214 366M114 367L115 368L114 367z"/>
<path style="fill:#f5e1b6; stroke:none;" d="M115 367L116 368L115 367M210 367L211 368L210 367z"/>
<path style="fill:#ac6747; stroke:none;" d="M211 367L212 368L211 367M117 368L118 369L117 368z"/>
<path style="fill:#f5e1b6; stroke:none;" d="M118 368L119 369L118 368M207 368L208 369L207 368z"/>
<path style="fill:#ac6747; stroke:none;" d="M208 368L209 369L208 368M120 369L121 370L120 369z"/>
<path style="fill:#f5e1b6; stroke:none;" d="M121 369L122 370L121 369M204 369L205 370L204 369z"/>
<path style="fill:#ac6747; stroke:none;" d="M205 369L206 370L205 369M123 370L124 371L123 370z"/>
<path style="fill:#f5e1b6; stroke:none;" d="M124 370L125 371L124 370M201 370L202 371L201 370z"/>
<path style="fill:#ac6747; stroke:none;" d="M202 370L203 371L202 370M126.667 371.333L127.333 371.667L126.667 371.333z"/>
<path style="fill:#f5e1b6; stroke:none;" d="M128 371L129 372L128 371M197 371L198 372L197 371z"/>
<path style="fill:#ac6747; stroke:none;" d="M198.667 371.333L199.333 371.667L198.667 371.333M130.667 372.333L131.333 372.667L130.667 372.333z"/>
<path style="fill:#f5e1b6; stroke:none;" d="M132.667 372.333L133.333 372.667L132.667 372.333M192.667 372.333L193.333 372.667L192.667 372.333z"/>
<path style="fill:#ac6747; stroke:none;" d="M194.667 372.333L195.333 372.667L194.667 372.333M135.667 373.333L136.333 373.667L135.667 373.333z"/>
<path style="fill:#f5e1b6; stroke:none;" d="M137.667 373.333L138.333 373.667L137.667 373.333M187.667 373.333L188.333 373.667L187.667 373.333z"/>
<path style="fill:#ac6747; stroke:none;" d="M189.667 373.333L190.333 373.667L189.667 373.333M140 374L140 375L143 375L140 374z"/>
<path style="fill:#f5e1b6; stroke:none;" d="M143 374L143 375L146 375L143 374M180 374L180 375L183 375L180 374z"/>
<path style="fill:#ac6747; stroke:none;" d="M183 374L183 375L186 375L183 374M148 375L148 376L152 376L148 375z"/>
<path style="fill:#f5e1b6; stroke:none;" d="M152 375L152 376L159 376L152 375M167 375L167 376L174 376L167 375z"/>
<path style="fill:#ac6747; stroke:none;" d="M174 375L174 376L178 376L174 375z"/>
</svg>
