<?xml version="1.0" standalone="no"?>
<!DOCTYPE svg PUBLIC "-//W3C//DTD SVG 20010904//EN"
 "http://www.w3.org/TR/2001/REC-SVG-20010904/DTD/svg10.dtd">
<svg version="1.0" xmlns="http://www.w3.org/2000/svg"
 width="326.000000pt" height="398.000000pt" viewBox="0 0 326.000000 398.000000"
 preserveAspectRatio="xMidYMid meet">

<g transform="translate(0.000000,398.000000) scale(0.100000,-0.100000)"
fill="#000000" stroke="none">
<path d="M1490 3598 l-145 -363 -110 -28 c-296 -76 -545 -219 -757 -434 -311
-314 -469 -693 -471 -1133 -2 -446 161 -846 474 -1159 310 -310 709 -475 1149
-475 903 0 1624 721 1624 1624 0 518 -234 986 -649 1300 -169 128 -369 224
-573 276 -52 13 -96 25 -97 27 -1 1 -67 165 -146 364 -79 200 -146 363 -149
363 -3 0 -70 -163 -150 -362z m440 -587 c277 -64 496 -186 696 -385 203 -204
329 -434 390 -716 27 -121 27 -439 0 -560 -61 -282 -187 -512 -390 -716 -204
-203 -434 -329 -716 -390 -121 -27 -439 -27 -560 0 -282 61 -512 187 -716 390
-203 204 -329 434 -390 716 -27 121 -27 439 0 560 61 282 187 512 390 716 229
229 489 358 821 408 17 2 111 3 210 1 135 -3 201 -9 265 -24z"/>
<path d="M1500 2914 c-14 -2 -56 -9 -95 -15 -120 -19 -365 -106 -365 -129 0
-4 19 -10 43 -14 73 -12 277 -85 395 -141 502 -241 873 -691 1012 -1227 43
-169 60 -304 60 -494 l1 -169 40 45 c148 166 256 382 305 612 25 116 25 380 0
496 -56 260 -174 481 -356 662 -180 181 -403 301 -660 356 -71 15 -327 27
-380 18z"/>
</g>
</svg>
